<svg width="541.396" height="100.817" xmlns="http://www.w3.org/2000/svg">
 <defs>
  <linearGradient y2="0.500022" x2="1.017103" y1="0.500022" x1="-0.004928" id="SVGID_1_">
   <stop stop-color="#006934" offset="0"/>
   <stop stop-color="#036B34" offset="0.031"/>
   <stop stop-color="#6EB231" offset="1"/>
  </linearGradient>
  <linearGradient y2="0.500055" x2="1.009526" y1="0.500055" x1="-0.03154" id="SVGID_2_">
   <stop stop-color="#009D3F" offset="0"/>
   <stop stop-color="#B8CC00" offset="1"/>
  </linearGradient>
  <linearGradient y2="0.500018" x2="1.031453" y1="0.500018" x1="-0.009448" id="SVGID_3_">
   <stop stop-color="#B8CC00" offset="0"/>
   <stop stop-color="#009F3E" offset="1"/>
  </linearGradient>
 </defs>
 <g>
  <title>background</title>
  <rect fill="none" id="canvas_background" height="102.817" width="543.396" y="-1" x="-1"/>
 </g>
 <g>
  <title>Layer 1</title>
  <g id="图层_1">
   <g id="svg_1">
    <g id="svg_2" opacity="0.8">
     <path id="svg_3" d="m116.069,64.468999c0.002,-0.443 0.081,-0.947 0.216,-1.393c0.151,-0.446 0.328,-0.885 0.565,-1.288c0.454,-0.819 1.032,-1.553 1.659,-2.233c1.253,-1.361 2.686,-2.53 4.166,-3.616c2.971,-2.164 6.151,-4.003 9.383,-5.723c3.236,-1.714 6.543,-3.29 9.884,-4.782c3.347,-1.489 6.716,-2.897 10.148,-4.207l-0.088,1.169l-18.625,-9.869l-18.6,-9.918l-37.197,-19.832l1.311,0.002l0,0c-1.534,0.875 -3.06,1.768 -4.602,2.629l-4.621,2.597c-3.078,1.736 -6.16,3.462 -9.257,5.162c-3.089,1.714 -6.192,3.404 -9.294,5.095c-3.099,1.697 -6.207,3.374 -9.32,5.045c-3.111,1.673 -6.217,3.356 -9.342,5.006l-9.361,4.972l-9.385,4.922c-3.126,1.646 -6.264,3.27 -9.404,4.89l-0.246,-2.631c1.742,0.599 3.438,1.223 5.139,1.867c1.702,0.64 3.385,1.325 5.064,2.019c3.354,1.396 6.68,2.869 9.93,4.514c3.251,1.635 6.447,3.412 9.434,5.537c1.489,1.062 2.932,2.213 4.202,3.561c0.633,0.674 1.22,1.405 1.667,2.232c0.233,0.406 0.407,0.85 0.552,1.297c0.124,0.457 0.192,0.931 0.181,1.404l-0.344,0c-0.029,-0.431 -0.13,-0.852 -0.279,-1.255c-0.17,-0.396 -0.361,-0.785 -0.613,-1.142c-0.482,-0.723 -1.092,-1.364 -1.734,-1.964c-1.299,-1.194 -2.771,-2.207 -4.292,-3.133c-1.521,-0.928 -3.104,-1.766 -4.707,-2.556c-1.602,-0.797 -3.228,-1.548 -4.872,-2.262c-3.292,-1.418 -6.633,-2.733 -10.008,-3.956c-1.688,-0.613 -3.388,-1.193 -5.084,-1.775c-1.697,-0.574 -3.414,-1.137 -5.107,-1.653l-3.188,-0.972l2.942,-1.659c3.078,-1.736 6.157,-3.468 9.251,-5.177l9.266,-5.144l9.295,-5.096c3.092,-1.706 6.203,-3.379 9.311,-5.061c3.105,-1.685 6.213,-3.363 9.333,-5.021c3.116,-1.666 6.23,-3.332 9.36,-4.972c3.12,-1.656 6.256,-3.285 9.396,-4.905l4.706,-2.437c1.567,-0.816 3.15,-1.601 4.725,-2.403l0,0l0.67,-0.354l0.643,0.356l36.875,20.431l18.436,10.216l18.412,10.264l1.244,0.694l-1.332,0.476c-3.416,1.219 -6.814,2.553 -10.17,3.961c-3.355,1.412 -6.675,2.909 -9.926,4.542c-3.247,1.639 -6.442,3.396 -9.42,5.469c-1.483,1.041 -2.918,2.162 -4.168,3.461c-0.622,0.649 -1.197,1.347 -1.645,2.117c-0.234,0.379 -0.408,0.788 -0.56,1.202c-0.134,0.427 -0.213,0.828 -0.229,1.298l-0.346,-0.018z" fill="url(#SVGID_1_)"/>
    </g>
    <path id="svg_4" d="m40.733,46.258999c0,0 1.008,0.683 2.899,1.674c1.888,0.989 4.643,2.303 8.08,3.522c1.715,0.624 3.607,1.188 5.617,1.737c2.025,0.494 4.155,1.029 6.4,1.377c1.112,0.217 2.264,0.329 3.416,0.5c1.16,0.108 2.331,0.254 3.52,0.318c1.186,0.065 2.381,0.146 3.583,0.142c0.601,0.005 1.202,0.024 1.804,0.017l1.807,-0.054c2.408,-0.083 4.807,-0.32 7.151,-0.65c1.171,-0.169 2.322,-0.406 3.466,-0.584c1.135,-0.231 2.256,-0.459 3.359,-0.685s2.17,-0.518 3.232,-0.738c0.531,-0.108 1.05,-0.251 1.561,-0.392c0.514,-0.133 1.021,-0.264 1.521,-0.393c1.009,-0.239 1.969,-0.539 2.9,-0.83c0.931,-0.286 1.854,-0.507 2.705,-0.819c1.711,-0.597 3.316,-1.067 4.693,-1.616c1.388,-0.515 2.623,-0.923 3.608,-1.338c1.987,-0.788 3.157,-1.197 3.157,-1.197l0.137,0.252c0,0 -1.01,0.705 -2.837,1.867c-0.901,0.607 -2.061,1.219 -3.384,1.949c-1.314,0.748 -2.866,1.451 -4.561,2.229c-0.84,0.404 -1.758,0.721 -2.688,1.107c-0.938,0.363 -1.91,0.738 -2.933,1.053c-2.021,0.71 -4.213,1.278 -6.495,1.79c-1.152,0.204 -2.318,0.441 -3.51,0.612c-1.196,0.143 -2.406,0.298 -3.628,0.403c-2.448,0.18 -4.938,0.321 -7.427,0.275l-1.863,-0.027c-0.622,-0.02 -1.241,-0.066 -1.859,-0.098c-1.236,-0.05 -2.463,-0.188 -3.678,-0.309c-1.217,-0.119 -2.414,-0.32 -3.598,-0.485c-1.176,-0.226 -2.347,-0.394 -3.477,-0.665c-0.567,-0.125 -1.129,-0.25 -1.686,-0.373c-0.553,-0.143 -1.098,-0.285 -1.641,-0.425c-1.085,-0.261 -2.122,-0.612 -3.14,-0.913c-2.017,-0.673 -3.905,-1.355 -5.606,-2.085c-3.411,-1.438 -6.13,-2.902 -7.962,-4.033c-1.839,-1.122 -2.815,-1.882 -2.815,-1.882l0.172,-0.233z" fill="#99CC00"/>
    <path id="svg_5" d="m45.433,36.983999c0,0 0.887,0.595 2.553,1.458c1.661,0.86 4.088,2.006 7.109,3.065c1.506,0.542 3.17,1.03 4.936,1.505c1.779,0.426 3.65,0.892 5.621,1.19c0.977,0.188 1.986,0.282 2.998,0.429c1.019,0.093 2.046,0.216 3.087,0.269c1.042,0.055 2.09,0.123 3.145,0.115c0.526,0.002 1.054,0.018 1.582,0.01l1.584,-0.053c2.11,-0.081 4.214,-0.295 6.267,-0.594c1.026,-0.153 2.035,-0.365 3.037,-0.524c0.994,-0.205 1.976,-0.407 2.942,-0.606c0.966,-0.196 1.902,-0.455 2.834,-0.644c0.468,-0.093 0.92,-0.217 1.369,-0.34c0.45,-0.114 0.896,-0.228 1.335,-0.338c0.886,-0.205 1.729,-0.464 2.547,-0.715c0.819,-0.246 1.63,-0.434 2.378,-0.703c1.505,-0.513 2.919,-0.912 4.133,-1.382c1.224,-0.44 2.313,-0.787 3.185,-1.14c1.756,-0.67 2.794,-1.012 2.794,-1.012l0.138,0.252c0,0 -0.878,0.637 -2.475,1.682c-0.786,0.544 -1.801,1.095 -2.959,1.75c-1.152,0.669 -2.512,1.301 -4,1.996c-0.738,0.36 -1.544,0.646 -2.361,0.991c-0.824,0.323 -1.678,0.657 -2.578,0.939c-1.778,0.634 -3.709,1.137 -5.72,1.589c-1.016,0.178 -2.043,0.386 -3.094,0.533c-1.055,0.124 -2.12,0.256 -3.197,0.343c-2.159,0.15 -4.351,0.268 -6.543,0.219l-1.642,-0.028c-0.547,-0.019 -1.093,-0.062 -1.637,-0.092c-1.09,-0.047 -2.168,-0.17 -3.239,-0.281c-1.07,-0.108 -2.124,-0.288 -3.165,-0.437c-1.035,-0.202 -2.064,-0.352 -3.059,-0.595c-0.5,-0.111 -0.994,-0.223 -1.483,-0.332c-0.485,-0.127 -0.966,-0.253 -1.441,-0.378c-0.954,-0.232 -1.867,-0.545 -2.762,-0.812c-1.772,-0.6 -3.432,-1.206 -4.926,-1.854c-2.997,-1.278 -5.384,-2.573 -6.991,-3.576c-1.611,-0.994 -2.469,-1.667 -2.469,-1.667l0.167,-0.232z" fill="#99CC00"/>
    <path id="svg_6" d="m52.388,28.856999c0,0 0.702,0.461 2.021,1.127c1.315,0.663 3.229,1.549 5.614,2.36c1.188,0.416 2.499,0.788 3.891,1.149c1.4,0.323 2.873,0.672 4.422,0.891c0.77,0.14 1.562,0.206 2.357,0.312c0.801,0.062 1.605,0.16 2.424,0.197c0.816,0.04 1.637,0.09 2.465,0.081c0.413,0 0.827,0.011 1.24,0.003l1.242,-0.045c1.654,-0.078 3.302,-0.257 4.908,-0.509c0.803,-0.127 1.592,-0.303 2.376,-0.432c0.777,-0.164 1.546,-0.326 2.303,-0.485c0.757,-0.152 1.489,-0.357 2.221,-0.499c0.366,-0.071 0.722,-0.167 1.073,-0.261c0.354,-0.086 0.705,-0.17 1.051,-0.255c0.695,-0.152 1.359,-0.349 2.003,-0.54c0.646,-0.183 1.285,-0.32 1.876,-0.523c1.188,-0.386 2.308,-0.675 3.269,-1.023c0.972,-0.325 1.839,-0.576 2.534,-0.833c1.4,-0.488 2.235,-0.726 2.235,-0.726l0.137,0.252c0,0 -0.675,0.534 -1.915,1.395c-0.611,0.45 -1.401,0.905 -2.309,1.443c-0.9,0.549 -1.967,1.071 -3.137,1.638c-1.181,0.539 -2.477,1.104 -3.895,1.575c-1.402,0.518 -2.931,0.921 -4.524,1.28c-0.806,0.139 -1.619,0.303 -2.453,0.412c-0.837,0.094 -1.683,0.189 -2.536,0.251c-1.713,0.102 -3.449,0.185 -5.186,0.132l-1.3,-0.026c-0.434,-0.017 -0.864,-0.052 -1.295,-0.077c-0.862,-0.041 -1.716,-0.141 -2.563,-0.231c-0.846,-0.089 -1.681,-0.23 -2.503,-0.358c-0.817,-0.167 -1.631,-0.294 -2.416,-0.494c-1.581,-0.343 -3.079,-0.793 -4.485,-1.247c-1.396,-0.485 -2.705,-0.975 -3.881,-1.497c-2.357,-1.03 -4.234,-2.066 -5.494,-2.872c-1.265,-0.796 -1.936,-1.335 -1.936,-1.334l0.166,-0.231z" fill="#99CC00"/>
    <path id="svg_7" d="m61.463,23.345999c0,0 0.46,0.292 1.317,0.714c0.431,0.203 0.953,0.455 1.565,0.708c0.309,0.123 0.635,0.254 0.98,0.394c0.346,0.131 0.721,0.248 1.104,0.381c0.761,0.285 1.628,0.471 2.519,0.727c0.454,0.094 0.922,0.189 1.399,0.288c0.236,0.049 0.477,0.099 0.72,0.15c0.246,0.033 0.494,0.065 0.745,0.099c0.499,0.067 1.007,0.134 1.521,0.203c0.516,0.032 1.039,0.064 1.566,0.097c1.05,0.107 2.123,0.02 3.189,0.012c0.533,0.005 1.062,-0.096 1.59,-0.151c0.525,-0.067 1.051,-0.133 1.569,-0.2c1.028,-0.208 2.029,-0.447 3.008,-0.613c0.968,-0.228 1.896,-0.478 2.8,-0.646c0.455,-0.075 0.881,-0.208 1.293,-0.338c0.419,-0.115 0.823,-0.226 1.211,-0.333c0.777,-0.222 1.52,-0.359 2.135,-0.598c0.63,-0.206 1.187,-0.378 1.651,-0.509c0.931,-0.268 1.488,-0.389 1.488,-0.389l0.11,0.201c0,0 -0.432,0.357 -1.233,0.924c-0.399,0.287 -0.896,0.622 -1.47,0.998c-0.566,0.399 -1.268,0.724 -2.031,1.089c-0.77,0.345 -1.582,0.8 -2.514,1.081c-0.924,0.306 -1.91,0.612 -2.944,0.859c-1.054,0.162 -2.146,0.322 -3.258,0.411c-0.56,0.015 -1.121,0.029 -1.687,0.045c-0.565,0.007 -1.129,0.061 -1.695,0.006c-1.129,-0.068 -2.259,-0.061 -3.356,-0.25c-0.55,-0.075 -1.097,-0.139 -1.63,-0.225c-0.531,-0.118 -1.055,-0.234 -1.568,-0.348c-0.256,-0.057 -0.512,-0.114 -0.763,-0.169c-0.247,-0.074 -0.493,-0.147 -0.735,-0.22c-0.483,-0.147 -0.956,-0.291 -1.416,-0.431c-0.896,-0.356 -1.758,-0.635 -2.512,-1.005c-0.379,-0.176 -0.746,-0.333 -1.086,-0.502c-0.337,-0.176 -0.656,-0.343 -0.957,-0.501c-0.598,-0.317 -1.102,-0.629 -1.51,-0.889c-0.816,-0.526 -1.249,-0.878 -1.249,-0.879l0.134,-0.191z" fill="#99CC00"/>
    <g id="svg_8">
     <path id="svg_9" d="m45.336,64.401999c0.87,1.437 1.795,2.944 2.8,4.473c1.008,1.525 2.067,3.089 3.206,4.629c1.123,1.552 2.327,3.08 3.55,4.585c1.255,1.48 2.521,2.948 3.854,4.308c0.662,0.682 1.32,1.357 1.99,2.002c0.33,0.327 0.658,0.652 0.985,0.974c0.333,0.314 0.662,0.626 0.99,0.936c0.323,0.314 0.644,0.626 0.96,0.935c0.33,0.293 0.65,0.592 0.965,0.89c0.628,0.6 1.259,1.165 1.876,1.712c0.308,0.276 0.61,0.548 0.91,0.816c0.31,0.255 0.613,0.505 0.913,0.753c0.593,0.503 1.158,1.003 1.738,1.432c0.576,0.433 1.105,0.887 1.636,1.279c0.531,0.39 1.045,0.749 1.515,1.109c0.467,0.369 0.939,0.651 1.362,0.945c0.422,0.294 0.812,0.565 1.163,0.809c1.271,0.793 2.061,1.327 2.234,1.445c0.212,-1.79 1.932,-19.751 -13.377,-28.482c-9.74,-5.555 -23.94,-16.629 -25.908,-18.174c0.382,0.87 1.854,4.135 4.268,8.522c0.712,1.286 1.499,2.666 2.37,4.102z" fill="#76BA0C"/>
     <path id="svg_10" d="m75.286,97.909999c-0.806,-0.327 -1.807,-0.7 -2.909,-1.226c-0.553,-0.261 -1.126,-0.566 -1.74,-0.875c-0.609,-0.316 -1.225,-0.689 -1.873,-1.076c-0.655,-0.375 -1.301,-0.818 -1.979,-1.267c-0.334,-0.232 -0.674,-0.467 -1.02,-0.707c-0.332,-0.253 -0.672,-0.51 -1.016,-0.771c-0.345,-0.261 -0.692,-0.526 -1.045,-0.795c-0.338,-0.287 -0.678,-0.577 -1.022,-0.871c-0.345,-0.293 -0.693,-0.591 -1.036,-0.9c-0.334,-0.319 -0.672,-0.641 -1.012,-0.966c-0.676,-0.653 -1.341,-1.337 -1.982,-2.06c-0.665,-0.701 -1.281,-1.46 -1.912,-2.213c-1.255,-1.513 -2.477,-3.087 -3.659,-4.687c-1.167,-1.609 -2.308,-3.234 -3.364,-4.875c-1.073,-1.631 -2.061,-3.277 -2.998,-4.878c-0.926,-1.607 -1.798,-3.172 -2.566,-4.687c-0.776,-1.51 -1.473,-2.956 -2.096,-4.296c-1.248,-2.685 -2.191,-4.961 -2.805,-6.573c-0.408,-1.064 -0.678,-1.827 -0.815,-2.227c-3.333,43.507 33.97,46.42 38.972,46.614c-0.061,-0.018 -0.117,-0.033 -0.186,-0.054c-0.45,-0.127 -1.106,-0.33 -1.937,-0.61z" fill="#76BA0C"/>
     <path id="svg_11" d="m77.908,98.724999l0.057,-0.132c0,0 -0.198,0 -0.557,-0.015c0.32,0.095 0.5,0.147 0.5,0.147z" fill="#FFFFFF"/>
     <path id="svg_12" d="m38.328,51.643999c0,0 0.037,0.116 0.108,0.321c0.009,-0.125 0.015,-0.246 0.024,-0.372l-0.132,0.051z" fill="#FFFFFF"/>
     <path id="svg_13" d="m38.594,51.541999l-0.134,0.051c0,0 0.088,0.069 0.238,0.187c-0.066,-0.15 -0.104,-0.238 -0.104,-0.238z" fill="#FFFFFF"/>
     <path id="svg_14" d="m77.964,98.592999l0.056,-0.132c0,0 -0.013,-0.009 -0.036,-0.025c-0.012,0.095 -0.02,0.157 -0.02,0.157z" fill="#FFFFFF"/>
    </g>
    <g id="svg_15">
     <path id="svg_16" d="m81.523,96.181999c0.421,-0.294 0.896,-0.576 1.36,-0.945c0.472,-0.361 0.983,-0.719 1.517,-1.109c0.529,-0.393 1.06,-0.847 1.636,-1.279c0.579,-0.429 1.144,-0.93 1.737,-1.433c0.301,-0.248 0.604,-0.498 0.914,-0.753c0.299,-0.268 0.602,-0.54 0.91,-0.816c0.616,-0.547 1.248,-1.113 1.874,-1.712c0.315,-0.298 0.636,-0.597 0.966,-0.89c0.317,-0.309 0.639,-0.621 0.961,-0.935c0.326,-0.31 0.656,-0.622 0.99,-0.937c0.326,-0.322 0.654,-0.647 0.984,-0.974c0.67,-0.645 1.328,-1.32 1.991,-2.002c1.333,-1.36 2.599,-2.828 3.854,-4.307c1.224,-1.506 2.427,-3.034 3.55,-4.586c1.14,-1.541 2.198,-3.104 3.207,-4.629c1.004,-1.528 1.929,-3.036 2.799,-4.473c0.869,-1.436 1.657,-2.816 2.369,-4.1c2.414,-4.386 3.885,-7.651 4.268,-8.521c-1.971,1.547 -16.169,12.618 -25.908,18.173c-15.309,8.731 -13.73,26.692 -13.518,28.482c0.174,-0.118 1.104,-0.651 2.376,-1.445c0.352,-0.244 0.739,-0.515 1.163,-0.809z" fill="#76BA0C"/>
     <path id="svg_17" d="m117.673,51.965999c-0.139,0.4 -0.408,1.162 -0.815,2.226c-0.614,1.611 -1.56,3.888 -2.804,6.573c-0.627,1.341 -1.321,2.787 -2.098,4.296c-0.768,1.515 -1.642,3.08 -2.568,4.687c-0.936,1.601 -1.922,3.246 -2.996,4.877c-1.056,1.641 -2.197,3.266 -3.363,4.875c-1.184,1.6 -2.404,3.173 -3.66,4.687c-0.632,0.753 -1.247,1.512 -1.912,2.213c-0.641,0.722 -1.307,1.407 -1.982,2.06c-0.34,0.325 -0.677,0.647 -1.012,0.966c-0.343,0.309 -0.69,0.607 -1.035,0.9c-0.346,0.294 -0.687,0.584 -1.023,0.871c-0.353,0.269 -0.701,0.534 -1.045,0.795c-0.344,0.261 -0.683,0.518 -1.018,0.771c-0.345,0.239 -0.684,0.475 -1.018,0.707c-0.678,0.449 -1.322,0.892 -1.979,1.267c-0.646,0.386 -1.263,0.759 -1.872,1.076c-0.615,0.309 -1.188,0.613 -1.74,0.875c-1.102,0.525 -2.104,0.899 -2.909,1.226c-0.833,0.28 -1.487,0.483 -1.935,0.614c-0.072,0.021 -0.128,0.037 -0.187,0.054c5.001,-0.197 42.303,-3.11 38.971,-46.616z" fill="#76BA0C"/>
    </g>
    <path id="svg_18" d="m73.368,19.892999c0,0 -0.636,0.355 -1.704,1.052c-1.062,0.706 -2.574,1.72 -4.283,3.072c-0.853,0.676 -1.762,1.426 -2.688,2.256c-0.469,0.409 -0.93,0.852 -1.411,1.289c-0.464,0.458 -0.953,0.908 -1.42,1.397c-0.949,0.96 -1.878,1.999 -2.789,3.073c-0.46,0.535 -0.887,1.102 -1.331,1.657c-0.413,0.579 -0.855,1.139 -1.244,1.735c-0.389,0.596 -0.786,1.185 -1.132,1.801l-0.531,0.912c-0.159,0.312 -0.318,0.622 -0.477,0.932c-0.632,1.238 -1.163,2.488 -1.669,3.695c-0.271,0.597 -0.463,1.211 -0.719,1.789c-0.229,0.586 -0.408,1.176 -0.627,1.738c-0.363,1.143 -0.717,2.231 -0.96,3.262c-0.292,1.022 -0.435,1.987 -0.638,2.842c-0.07,0.433 -0.135,0.837 -0.195,1.211c-0.059,0.375 -0.148,0.723 -0.176,1.039c-0.148,1.261 -0.286,2.005 -0.286,2.005l-0.286,0.022c0,0 -0.198,-0.717 -0.455,-2.013c-0.12,-0.649 -0.184,-1.443 -0.275,-2.366c-0.029,-0.46 -0.014,-0.95 -0.021,-1.469c-0.001,-0.261 -0.001,-0.528 -0.002,-0.801c0.016,-0.272 0.045,-0.549 0.068,-0.833c0.071,-1.142 0.261,-2.371 0.546,-3.655c0.164,-0.635 0.321,-1.294 0.536,-1.951c0.223,-0.653 0.455,-1.32 0.734,-1.98c0.577,-1.311 1.271,-2.622 2.092,-3.871c0.203,-0.313 0.408,-0.627 0.612,-0.943l0.649,-0.92c0.424,-0.623 0.896,-1.211 1.359,-1.804c0.452,-0.601 0.957,-1.16 1.429,-1.737c0.504,-0.552 0.99,-1.113 1.505,-1.639c1.018,-1.063 2.073,-2.052 3.13,-2.961c1.054,-0.913 2.103,-1.757 3.13,-2.509c1.023,-0.757 2.02,-1.432 2.948,-2.035c3.723,-2.413 6.451,-3.55 6.451,-3.55l0.13,0.258z" fill="#99CC00"/>
    <path id="svg_19" d="m75.074,19.582999c0,0 -1.887,2.353 -4.331,6.131c-1.216,1.893 -2.553,4.149 -3.871,6.616c-0.651,1.238 -1.296,2.53 -1.914,3.855c-0.624,1.324 -1.206,2.689 -1.739,4.069c-0.524,1.384 -0.99,2.785 -1.385,4.177c-0.37,1.399 -0.716,2.772 -1.012,4.105c-0.313,1.328 -0.589,2.615 -0.812,3.842c-0.098,0.615 -0.241,1.212 -0.3,1.794c-0.077,0.582 -0.193,1.145 -0.232,1.689c-0.042,0.543 -0.106,1.067 -0.163,1.567c-0.027,0.499 -0.04,0.973 -0.08,1.423c-0.047,0.451 -0.037,0.87 -0.041,1.261c-0.011,0.394 -0.021,0.756 -0.03,1.083c0.038,1.303 0.024,2.081 0.024,2.081l-0.279,0.065c0,0 -0.073,-0.178 -0.211,-0.512c-0.135,-0.335 -0.332,-0.831 -0.551,-1.477c-0.172,-0.65 -0.424,-1.447 -0.586,-2.382c-0.089,-0.466 -0.155,-0.967 -0.24,-1.497c-0.053,-0.53 -0.103,-1.09 -0.138,-1.676c-0.052,-1.171 -0.063,-2.449 0.065,-3.787c0.102,-1.34 0.332,-2.742 0.666,-4.163c0.342,-1.421 0.825,-2.848 1.371,-4.271c0.287,-0.703 0.58,-1.411 0.871,-2.123c0.318,-0.699 0.607,-1.412 0.949,-2.099c0.645,-1.394 1.336,-2.762 2.062,-4.079c0.715,-1.324 1.486,-2.588 2.246,-3.796c0.775,-1.201 1.528,-2.355 2.297,-3.412c0.756,-1.065 1.504,-2.047 2.2,-2.947c2.795,-3.594 4.948,-5.731 4.948,-5.731l0.216,0.194z" fill="#99CC00"/>
    <path id="svg_20" d="m83.906,20.209999c0,0 2.729,1.137 6.451,3.55c0.93,0.603 1.925,1.277 2.948,2.034c1.028,0.751 2.077,1.596 3.13,2.509c1.057,0.911 2.112,1.898 3.131,2.961c0.514,0.526 1.001,1.088 1.504,1.639c0.474,0.578 0.977,1.136 1.43,1.737c0.463,0.593 0.934,1.182 1.357,1.804l0.65,0.92c0.205,0.315 0.409,0.629 0.612,0.942c0.821,1.25 1.515,2.561 2.093,3.872c0.279,0.659 0.512,1.327 0.734,1.979c0.215,0.656 0.372,1.315 0.535,1.951c0.286,1.284 0.475,2.513 0.546,3.655c0.024,0.285 0.054,0.562 0.069,0.833c-0.001,0.273 -0.002,0.54 -0.002,0.801c-0.008,0.52 0.008,1.009 -0.021,1.469c-0.092,0.922 -0.156,1.717 -0.274,2.366c-0.258,1.296 -0.458,2.014 -0.458,2.014l-0.285,-0.022c0,0 -0.137,-0.745 -0.285,-2.006c-0.027,-0.315 -0.117,-0.662 -0.177,-1.039c-0.061,-0.374 -0.126,-0.779 -0.194,-1.211c-0.203,-0.854 -0.345,-1.819 -0.638,-2.842c-0.243,-1.03 -0.598,-2.12 -0.962,-3.263c-0.216,-0.562 -0.396,-1.151 -0.625,-1.737c-0.258,-0.577 -0.448,-1.192 -0.719,-1.79c-0.508,-1.207 -1.039,-2.457 -1.669,-3.695c-0.158,-0.31 -0.317,-0.62 -0.476,-0.932l-0.533,-0.912c-0.346,-0.615 -0.742,-1.205 -1.131,-1.801c-0.389,-0.596 -0.832,-1.156 -1.244,-1.735c-0.444,-0.554 -0.873,-1.122 -1.332,-1.656c-0.911,-1.075 -1.84,-2.113 -2.789,-3.073c-0.466,-0.49 -0.956,-0.939 -1.419,-1.397c-0.483,-0.437 -0.943,-0.879 -1.411,-1.289c-0.926,-0.831 -1.836,-1.58 -2.688,-2.256c-1.708,-1.353 -3.221,-2.367 -4.282,-3.072c-1.068,-0.698 -1.703,-1.052 -1.703,-1.052l0.127,-0.256z" fill="#99CC00"/>
    <path id="svg_21" d="m81.138,19.965999c0,0 2.154,2.137 4.949,5.731c0.695,0.899 1.443,1.882 2.2,2.947c0.768,1.057 1.522,2.212 2.296,3.413c0.76,1.208 1.531,2.471 2.246,3.795c0.727,1.318 1.418,2.686 2.062,4.079c0.342,0.688 0.631,1.401 0.949,2.1c0.291,0.711 0.582,1.419 0.871,2.123c0.546,1.422 1.029,2.85 1.372,4.27c0.333,1.422 0.563,2.823 0.665,4.164c0.129,1.337 0.118,2.616 0.064,3.786c-0.033,0.586 -0.084,1.146 -0.137,1.676c-0.086,0.529 -0.152,1.03 -0.241,1.498c-0.16,0.934 -0.414,1.731 -0.585,2.382c-0.218,0.645 -0.416,1.141 -0.552,1.476c-0.136,0.333 -0.21,0.511 -0.21,0.511l-0.279,-0.065c0,0 -0.013,-0.778 0.023,-2.081c-0.008,-0.327 -0.02,-0.688 -0.03,-1.083c-0.003,-0.39 0.007,-0.81 -0.04,-1.261c-0.039,-0.45 -0.052,-0.925 -0.081,-1.423c-0.056,-0.5 -0.12,-1.023 -0.163,-1.567c-0.037,-0.543 -0.155,-1.107 -0.232,-1.689c-0.058,-0.583 -0.201,-1.18 -0.299,-1.794c-0.225,-1.227 -0.5,-2.514 -0.813,-3.842c-0.296,-1.332 -0.642,-2.705 -1.011,-4.104c-0.395,-1.393 -0.861,-2.794 -1.385,-4.178c-0.533,-1.38 -1.115,-2.745 -1.739,-4.069c-0.618,-1.326 -1.263,-2.617 -1.914,-3.855c-1.319,-2.467 -2.657,-4.723 -3.87,-6.616c-2.445,-3.778 -4.331,-6.131 -4.331,-6.132l0.215,-0.192z" fill="#99CC00"/>
    <line id="svg_22" y2="66.079999" x2="18.794" y1="48.389999" x1="18.856" stroke-miterlimit="10" stroke-width="3" stroke="#00913A" fill="none"/>
    <path id="svg_23" d="m38.766,49.863999c0.21,-1.089 0.506,-2.15 0.834,-3.204c0.333,-1.052 0.7,-2.095 1.122,-3.116c0.411,-1.025 0.882,-2.026 1.367,-3.021c0.504,-0.985 1.035,-1.957 1.605,-2.907c0.574,-0.949 1.187,-1.875 1.83,-2.78l0.998,-1.336l1.057,-1.293c0.734,-0.836 1.479,-1.667 2.279,-2.444c0.387,-0.405 0.805,-0.774 1.22,-1.149c0.41,-0.379 0.825,-0.753 1.269,-1.095c0.44,-0.345 0.863,-0.714 1.318,-1.04l1.363,-0.979c0.462,-0.318 0.941,-0.604 1.413,-0.909c0.468,-0.311 0.956,-0.584 1.449,-0.852c0.493,-0.264 0.972,-0.562 1.48,-0.798l1.518,-0.727c0.501,-0.251 1.033,-0.434 1.55,-0.654c0.521,-0.207 1.034,-0.439 1.57,-0.605l1.594,-0.54c0.529,-0.187 1.078,-0.307 1.617,-0.463c0.543,-0.139 1.079,-0.315 1.628,-0.423l1.647,-0.347c0.547,-0.127 1.1,-0.217 1.654,-0.294l1.663,-0.251c1.112,-0.138 2.229,-0.221 3.345,-0.336l1.762,-0.182l-0.588,1.771c-0.629,1.893 -1.231,3.831 -1.791,5.766c-0.564,1.937 -1.084,3.886 -1.606,5.833l-1.521,5.848l-0.733,2.928l-0.705,2.932c-0.229,0.979 -0.463,1.957 -0.666,2.94l-0.611,2.949c-0.187,0.986 -0.387,1.971 -0.541,2.96c-0.168,0.989 -0.327,1.979 -0.476,2.97c-0.128,0.993 -0.257,1.988 -0.358,2.984c-0.059,0.499 -0.105,0.997 -0.136,1.496c-0.034,0.499 -0.081,1 -0.097,1.5c-0.019,0.5 -0.057,1.003 -0.059,1.503l-0.002,1.506l0.061,1.507l0.137,1.509l-0.279,0.063l-0.426,-1.484l-0.316,-1.513c-0.175,-1.015 -0.305,-2.041 -0.392,-3.068c-0.062,-0.516 -0.065,-1.029 -0.095,-1.545c-0.03,-0.516 -0.043,-1.031 -0.046,-1.546c-0.03,-1.033 0.017,-2.06 0.046,-3.091c0.059,-1.026 0.099,-2.058 0.206,-3.079c0.083,-1.025 0.21,-2.044 0.327,-3.065c0.125,-1.02 0.271,-2.036 0.44,-3.047c0.155,-1.014 0.343,-2.021 0.523,-3.031c0.378,-2.015 0.812,-4.018 1.308,-6.002c0.483,-1.989 1.037,-3.958 1.629,-5.914c0.588,-1.958 1.234,-3.897 1.89,-5.831c0.663,-1.936 1.327,-3.854 2.06,-5.786l1.174,1.589c-1.068,0.069 -2.145,0.105 -3.213,0.204l-1.597,0.186c-0.534,0.056 -1.066,0.124 -1.591,0.228l-1.584,0.278c-0.53,0.084 -1.045,0.237 -1.568,0.351c-0.519,0.132 -1.049,0.228 -1.559,0.39l-1.539,0.462c-0.518,0.14 -1.013,0.346 -1.517,0.526c-0.499,0.194 -1.015,0.351 -1.502,0.574l-1.472,0.645c-0.495,0.208 -0.959,0.478 -1.44,0.714c-0.479,0.239 -0.957,0.485 -1.413,0.768c-0.459,0.276 -0.932,0.535 -1.383,0.824l-1.34,0.893c-0.449,0.297 -0.865,0.638 -1.298,0.956c-0.438,0.314 -0.849,0.66 -1.262,1.006c-0.413,0.344 -0.833,0.682 -1.221,1.056c-0.806,0.717 -1.56,1.487 -2.309,2.268l-1.078,1.209l-1.027,1.257c-0.663,0.855 -1.302,1.731 -1.903,2.635c-0.6,0.904 -1.16,1.834 -1.697,2.78c-0.518,0.956 -1.023,1.92 -1.473,2.911c-0.466,0.985 -0.881,1.994 -1.262,3.015c-0.377,1.022 -0.723,2.062 -0.982,3.116l-0.279,-0.059z" fill="url(#SVGID_2_)"/>
    <path id="svg_24" d="m116.945,49.396999c-0.275,-1.043 -0.635,-2.072 -1.024,-3.083c-0.392,-1.01 -0.818,-2.007 -1.294,-2.981c-0.458,-0.98 -0.971,-1.934 -1.498,-2.877l-0.832,-1.391l-0.881,-1.357l-0.934,-1.321l-0.98,-1.282l-1.032,-1.241l-1.085,-1.193c-0.746,-0.772 -1.5,-1.535 -2.307,-2.241c-0.391,-0.367 -0.803,-0.71 -1.221,-1.043c-0.417,-0.334 -0.82,-0.687 -1.26,-0.994c-0.432,-0.314 -0.854,-0.641 -1.293,-0.944l-1.341,-0.876c-0.443,-0.295 -0.921,-0.54 -1.378,-0.812l-0.693,-0.398l-0.716,-0.357c-0.479,-0.232 -0.947,-0.486 -1.435,-0.702l-1.471,-0.625c-0.482,-0.224 -0.996,-0.375 -1.495,-0.561c-0.504,-0.169 -0.993,-0.379 -1.51,-0.512c-1.024,-0.294 -2.04,-0.61 -3.087,-0.816c-0.521,-0.109 -1.035,-0.249 -1.561,-0.334l-1.578,-0.256l-0.788,-0.126l-0.795,-0.081l-1.59,-0.164c-1.062,-0.085 -2.13,-0.104 -3.194,-0.158l1.155,-1.586c0.731,1.932 1.396,3.85 2.059,5.786c0.656,1.934 1.302,3.873 1.891,5.831c0.594,1.956 1.146,3.924 1.632,5.913c0.495,1.985 0.93,3.988 1.309,6.002c0.182,1.01 0.366,2.017 0.523,3.031c0.168,1.011 0.314,2.028 0.44,3.047c0.116,1.022 0.243,2.04 0.327,3.066c0.107,1.021 0.146,2.053 0.206,3.079c0.028,1.031 0.077,2.059 0.046,3.091c-0.001,0.515 -0.016,1.03 -0.046,1.546c-0.029,0.516 -0.032,1.029 -0.096,1.545c-0.085,1.028 -0.217,2.053 -0.392,3.068l-0.316,1.513l-0.426,1.484l-0.28,-0.063l0.137,-1.509l0.06,-1.507l-0.001,-1.506c-0.003,-0.5 -0.042,-1.003 -0.059,-1.503c-0.017,-0.5 -0.062,-1 -0.098,-1.5c-0.03,-0.499 -0.077,-0.998 -0.136,-1.496c-0.101,-0.996 -0.229,-1.991 -0.359,-2.983c-0.148,-0.993 -0.307,-1.982 -0.475,-2.971c-0.156,-0.989 -0.354,-1.975 -0.542,-2.96l-0.611,-2.95c-0.204,-0.982 -0.438,-1.961 -0.664,-2.939l-0.707,-2.933l-0.732,-2.928l-1.519,-5.849c-0.521,-1.947 -1.042,-3.896 -1.606,-5.834c-0.56,-1.934 -1.161,-3.873 -1.792,-5.766l-0.577,-1.741l1.733,0.155c1.11,0.099 2.223,0.164 3.33,0.288l1.657,0.228l0.827,0.114l0.821,0.16l1.644,0.325c0.546,0.108 1.082,0.271 1.623,0.406c1.087,0.254 2.144,0.62 3.205,0.965c0.534,0.157 1.043,0.396 1.566,0.59c0.516,0.212 1.045,0.391 1.544,0.642l1.517,0.707c0.502,0.243 0.984,0.525 1.478,0.786l0.734,0.4l0.71,0.439c0.469,0.301 0.956,0.573 1.41,0.897l1.365,0.96c0.446,0.332 0.875,0.686 1.312,1.028c0.445,0.334 0.853,0.714 1.269,1.082c0.419,0.365 0.829,0.738 1.216,1.136c0.803,0.767 1.549,1.587 2.282,2.416l1.061,1.276l1.004,1.32l0.948,1.357l0.894,1.392l0.84,1.422l0.782,1.453c0.495,0.983 0.974,1.972 1.396,2.987c0.43,1.01 0.81,2.041 1.154,3.082c0.341,1.042 0.65,2.094 0.877,3.172l-0.277,0.063z" fill="url(#SVGID_3_)"/>
    <circle id="svg_25" r="1.405" cy="67.484999" cx="18.793" stroke-miterlimit="10" stroke-width="3" stroke="#00913A" fill="none"/>
    <polyline id="svg_26" points="17.387998580932617,67.48500061035156 17.387998580932617,74.11699676513672 17.387998580932617,76.37899780273438 20.197999954223633,74.11699676513672 20.197999954223633,67.48500061035156 " stroke-miterlimit="10" stroke-width="3" stroke="#00913A" fill="none"/>
    <polygon id="svg_27" points="18.244001388549805,67.48500061035156 18.244001388549805,74.61399841308594 19.343000411987305,73.68199920654297 19.343000411987305,67.48500061035156 " fill="#FFFFFF"/>
   </g>
   <text x="-26.225" y="-32.303001" id="svg_28" font-size="36" font-family="'FZCSJW--GB1-0'" fill="#231815" transform="matrix(1,0,0,1,170.4297,114.1826) ">全国环境博士生学术会议</text>
  </g>
  <g id="图层_2"/>
 </g>
</svg>