<svg width="481" height="242" xmlns="http://www.w3.org/2000/svg">
 <defs>
  <linearGradient id="SVGID_1_" x1="-0.00491" y1="0.5" x2="1.01713" y2="0.5">
   <stop offset="0" stop-color="#006934"/>
   <stop offset="0.031" stop-color="#036B34"/>
   <stop offset="1" stop-color="#6EB231"/>
  </linearGradient>
  <linearGradient id="SVGID_2_" x1="-0.03155" y1="0.49999" x2="1.00947" y2="0.49999">
   <stop offset="0" stop-color="#009D3F"/>
   <stop offset="1" stop-color="#B8CC00"/>
  </linearGradient>
  <linearGradient id="SVGID_3_" x1="-0.00949" y1="0.50002" x2="1.03137" y2="0.50002">
   <stop offset="0" stop-color="#B8CC00"/>
   <stop offset="1" stop-color="#009F3E"/>
  </linearGradient>
 </defs>
 <g>
  <title>background</title>
  <rect x="-1" y="-1" width="483" height="244" id="canvas_background" fill="none"/>
 </g>
 <g>
  <title>Layer 1</title>
  <g id="图层_1">
   <text transform="matrix(1,0,0,1,58.4287,267.3999) " fill="#231815" font-family="'FZCSJW--GB1-0'" font-size="48" id="svg_1" y="-41.623" x="-57.4287">全国环境博士生学术会议</text>
   <g id="svg_2">
    <g opacity="0.8" id="svg_3">
     <path fill="url(#SVGID_1_)" d="m316.5913,101.518c0.003,-0.69 0.125,-1.477 0.337,-2.171c0.235,-0.694 0.512,-1.379 0.881,-2.007c0.709,-1.277 1.61,-2.421 2.586,-3.482c1.955,-2.123 4.188,-3.945 6.496,-5.638c4.632,-3.375 9.592,-6.241 14.63,-8.923c5.046,-2.672 10.201,-5.13 15.411,-7.457c5.218,-2.321 10.472,-4.518 15.823,-6.559l-0.137,1.823l-29.041,-15.387l-29,-15.464l-57.999,-30.925l2.044,0.004l0,0c-2.393,1.364 -4.771,2.756 -7.175,4.099l-7.206,4.049c-4.797,2.707 -9.603,5.398 -14.432,8.048c-4.817,2.673 -9.655,5.308 -14.492,7.944c-4.831,2.646 -9.678,5.261 -14.53,7.867c-4.852,2.608 -9.694,5.232 -14.565,7.805l-14.596,7.751l-14.635,7.674c-4.873,2.566 -9.766,5.098 -14.662,7.625l-0.383,-4.102c2.715,0.934 5.357,1.906 8.012,2.911c2.653,0.998 5.277,2.065 7.896,3.148c5.23,2.177 10.416,4.474 15.482,7.037c5.069,2.549 10.053,5.319 14.708,8.633c2.322,1.656 4.572,3.451 6.553,5.552c0.986,1.051 1.902,2.191 2.599,3.481c0.364,0.633 0.636,1.324 0.86,2.022c0.194,0.712 0.301,1.451 0.282,2.188l-0.537,0c-0.045,-0.672 -0.201,-1.328 -0.434,-1.957c-0.267,-0.618 -0.565,-1.223 -0.957,-1.779c-0.753,-1.128 -1.703,-2.126 -2.705,-3.063c-2.025,-1.861 -4.321,-3.441 -6.691,-4.885c-2.372,-1.447 -4.839,-2.752 -7.339,-3.985c-2.497,-1.243 -5.032,-2.414 -7.597,-3.526c-5.133,-2.21 -10.342,-4.262 -15.604,-6.167c-2.63,-0.957 -5.281,-1.861 -7.927,-2.768c-2.646,-0.895 -5.322,-1.773 -7.963,-2.578l-4.97,-1.515l4.588,-2.586c4.799,-2.708 9.601,-5.408 14.423,-8.072l14.448,-8.02l14.491,-7.945c4.821,-2.66 9.673,-5.268 14.517,-7.891c4.843,-2.626 9.688,-5.243 14.553,-7.829c4.858,-2.597 9.715,-5.195 14.594,-7.752c4.865,-2.583 9.754,-5.122 14.65,-7.647l7.338,-3.799c2.443,-1.272 4.911,-2.497 7.367,-3.747l0,0l1.043,-0.553l1.002,0.556l57.495,31.856l28.745,15.929l28.707,16.002l1.94,1.082l-2.077,0.742c-5.326,1.9 -10.624,3.981 -15.856,6.176c-5.231,2.201 -10.408,4.536 -15.478,7.083c-5.062,2.555 -10.044,5.296 -14.688,8.528c-2.312,1.622 -4.549,3.371 -6.498,5.396c-0.97,1.012 -1.865,2.101 -2.563,3.301c-0.366,0.592 -0.638,1.229 -0.872,1.874c-0.21,0.666 -0.332,1.291 -0.359,2.024l-0.533,-0.031z" id="svg_4"/>
    </g>
    <path fill="#99CC00" d="m199.1283,73.125c0,0 1.571,1.065 4.521,2.61c2.944,1.542 7.239,3.59 12.6,5.492c2.672,0.972 5.624,1.853 8.758,2.708c3.157,0.77 6.479,1.605 9.978,2.146c1.735,0.339 3.53,0.513 5.326,0.78c1.811,0.168 3.637,0.396 5.488,0.495c1.85,0.102 3.714,0.229 5.588,0.221c0.937,0.008 1.873,0.038 2.812,0.026l2.817,-0.084c3.754,-0.13 7.495,-0.499 11.149,-1.013c1.825,-0.264 3.622,-0.633 5.403,-0.911c1.771,-0.361 3.52,-0.717 5.239,-1.067c1.72,-0.352 3.384,-0.808 5.04,-1.151c0.829,-0.168 1.636,-0.391 2.433,-0.611c0.802,-0.207 1.591,-0.411 2.372,-0.613c1.572,-0.372 3.069,-0.84 4.521,-1.293c1.452,-0.446 2.891,-0.79 4.219,-1.277c2.668,-0.931 5.171,-1.664 7.317,-2.52c2.163,-0.803 4.091,-1.44 5.627,-2.086c3.099,-1.228 4.923,-1.866 4.923,-1.867l0.213,0.394c0,0 -1.574,1.098 -4.424,2.911c-1.404,0.946 -3.213,1.9 -5.275,3.039c-2.049,1.166 -4.47,2.263 -7.11,3.476c-1.311,0.629 -2.741,1.125 -4.191,1.726c-1.463,0.566 -2.977,1.151 -4.572,1.643c-3.151,1.107 -6.568,1.992 -10.126,2.791c-1.797,0.317 -3.615,0.688 -5.474,0.954c-1.865,0.222 -3.75,0.465 -5.656,0.628c-3.817,0.282 -7.698,0.501 -11.579,0.429l-2.906,-0.042c-0.969,-0.03 -1.935,-0.104 -2.898,-0.153c-1.929,-0.078 -3.84,-0.292 -5.735,-0.482c-1.896,-0.186 -3.764,-0.499 -5.608,-0.755c-1.833,-0.353 -3.658,-0.614 -5.421,-1.037c-0.884,-0.196 -1.76,-0.389 -2.628,-0.581c-0.861,-0.223 -1.712,-0.443 -2.557,-0.662c-1.693,-0.407 -3.31,-0.955 -4.896,-1.423c-3.145,-1.049 -6.088,-2.113 -8.742,-3.251c-5.318,-2.243 -9.557,-4.525 -12.414,-6.289c-2.865,-1.749 -4.39,-2.935 -4.39,-2.934l0.258,-0.367z" id="svg_5"/>
    <path fill="#99CC00" d="m206.4573,58.663c0,0 1.383,0.928 3.979,2.274c2.591,1.34 6.373,3.127 11.084,4.779c2.349,0.844 4.943,1.606 7.697,2.346c2.774,0.665 5.69,1.391 8.763,1.857c1.522,0.292 3.098,0.439 4.676,0.668c1.587,0.144 3.19,0.337 4.812,0.419c1.624,0.085 3.258,0.192 4.903,0.179c0.82,0.003 1.643,0.028 2.467,0.016l2.469,-0.082c3.291,-0.127 6.571,-0.46 9.771,-0.927c1.601,-0.238 3.173,-0.569 4.735,-0.817c1.55,-0.319 3.081,-0.634 4.588,-0.944c1.507,-0.307 2.966,-0.709 4.418,-1.004c0.729,-0.145 1.435,-0.338 2.135,-0.53c0.702,-0.178 1.397,-0.355 2.082,-0.528c1.38,-0.319 2.695,-0.724 3.971,-1.115c1.277,-0.383 2.542,-0.676 3.708,-1.096c2.346,-0.8 4.552,-1.422 6.443,-2.155c1.907,-0.687 3.607,-1.227 4.966,-1.776c2.738,-1.045 4.356,-1.578 4.356,-1.578l0.213,0.394c0,0 -1.367,0.993 -3.856,2.622c-1.226,0.849 -2.808,1.707 -4.614,2.728c-1.796,1.044 -3.916,2.029 -6.236,3.112c-1.152,0.562 -2.407,1.006 -3.682,1.544c-1.287,0.503 -2.617,1.024 -4.021,1.464c-2.772,0.989 -5.782,1.772 -8.917,2.478c-1.584,0.278 -3.186,0.602 -4.825,0.831c-1.644,0.192 -3.306,0.398 -4.984,0.535c-3.366,0.234 -6.784,0.418 -10.201,0.341l-2.561,-0.044c-0.853,-0.029 -1.703,-0.096 -2.552,-0.143c-1.698,-0.073 -3.381,-0.266 -5.05,-0.438c-1.67,-0.169 -3.312,-0.45 -4.937,-0.68c-1.613,-0.316 -3.219,-0.55 -4.768,-0.928c-0.779,-0.173 -1.55,-0.347 -2.312,-0.518c-0.758,-0.198 -1.507,-0.395 -2.248,-0.589c-1.488,-0.362 -2.912,-0.849 -4.307,-1.267c-2.763,-0.935 -5.35,-1.879 -7.68,-2.89c-4.673,-1.993 -8.394,-4.012 -10.899,-5.575c-2.514,-1.549 -3.85,-2.599 -3.85,-2.598l0.264,-0.365z" id="svg_6"/>
    <path fill="#99CC00" d="m217.3003,45.993c0,0 1.095,0.719 3.15,1.757c2.05,1.033 5.036,2.416 8.753,3.68c1.853,0.648 3.897,1.229 6.066,1.792c2.184,0.503 4.479,1.047 6.895,1.389c1.199,0.217 2.438,0.32 3.676,0.487c1.248,0.096 2.504,0.249 3.779,0.307c1.272,0.062 2.553,0.141 3.843,0.126c0.646,0.001 1.29,0.017 1.935,0.005l1.936,-0.071c2.581,-0.121 5.149,-0.4 7.654,-0.792c1.252,-0.199 2.481,-0.473 3.703,-0.674c1.213,-0.255 2.412,-0.507 3.592,-0.755c1.18,-0.238 2.322,-0.557 3.462,-0.778c0.571,-0.11 1.126,-0.259 1.674,-0.406c0.553,-0.134 1.1,-0.266 1.638,-0.398c1.084,-0.237 2.119,-0.544 3.123,-0.841c1.006,-0.285 2.004,-0.499 2.924,-0.816c1.852,-0.601 3.599,-1.052 5.098,-1.596c1.516,-0.506 2.868,-0.898 3.951,-1.299c2.184,-0.761 3.485,-1.132 3.485,-1.132l0.213,0.393c0,0 -1.052,0.832 -2.986,2.175c-0.953,0.702 -2.185,1.411 -3.599,2.25c-1.403,0.856 -3.066,1.67 -4.891,2.554c-1.841,0.84 -3.861,1.72 -6.072,2.456c-2.188,0.807 -4.57,1.437 -7.055,1.996c-1.256,0.217 -2.525,0.472 -3.825,0.643c-1.304,0.146 -2.623,0.295 -3.954,0.392c-2.671,0.159 -5.377,0.288 -8.085,0.206l-2.027,-0.041c-0.675,-0.027 -1.347,-0.081 -2.019,-0.12c-1.344,-0.063 -2.676,-0.22 -3.996,-0.361c-1.319,-0.139 -2.621,-0.359 -3.903,-0.559c-1.275,-0.261 -2.543,-0.458 -3.767,-0.77c-2.465,-0.536 -4.801,-1.237 -6.994,-1.943c-2.178,-0.757 -4.217,-1.521 -6.05,-2.334c-3.676,-1.606 -6.603,-3.222 -8.567,-4.478c-1.972,-1.241 -3.018,-2.082 -3.018,-2.081l0.258,-0.363z" id="svg_7"/>
    <path fill="#99CC00" d="m231.4503,37.4c0,0 0.717,0.456 2.053,1.113c0.673,0.316 1.486,0.709 2.441,1.104c0.48,0.192 0.989,0.397 1.527,0.614c0.541,0.205 1.124,0.386 1.723,0.594c1.188,0.444 2.538,0.733 3.928,1.133c0.707,0.146 1.436,0.295 2.182,0.448c0.369,0.077 0.742,0.155 1.123,0.234c0.382,0.05 0.771,0.102 1.16,0.153c0.777,0.104 1.569,0.209 2.371,0.316c0.805,0.051 1.62,0.1 2.442,0.151c1.637,0.167 3.311,0.03 4.972,0.018c0.832,0.009 1.658,-0.15 2.48,-0.236c0.82,-0.105 1.638,-0.208 2.446,-0.312c1.603,-0.323 3.165,-0.696 4.69,-0.956c1.509,-0.355 2.957,-0.744 4.365,-1.007c0.71,-0.117 1.374,-0.325 2.017,-0.528c0.653,-0.179 1.282,-0.352 1.888,-0.519c1.211,-0.345 2.369,-0.559 3.329,-0.932c0.98,-0.32 1.849,-0.589 2.574,-0.794c1.45,-0.418 2.32,-0.606 2.32,-0.606l0.171,0.314c0,0 -0.671,0.557 -1.922,1.441c-0.623,0.447 -1.396,0.969 -2.293,1.556c-0.883,0.622 -1.975,1.127 -3.165,1.698c-1.2,0.538 -2.467,1.248 -3.921,1.685c-1.44,0.477 -2.978,0.954 -4.59,1.339c-1.644,0.253 -3.346,0.502 -5.08,0.64c-0.872,0.023 -1.748,0.046 -2.629,0.07c-0.882,0.011 -1.76,0.094 -2.643,0.009c-1.762,-0.106 -3.522,-0.095 -5.234,-0.389c-0.857,-0.117 -1.709,-0.216 -2.542,-0.351c-0.827,-0.183 -1.644,-0.364 -2.445,-0.542c-0.399,-0.088 -0.798,-0.177 -1.188,-0.264c-0.386,-0.115 -0.77,-0.23 -1.146,-0.343c-0.754,-0.229 -1.49,-0.453 -2.208,-0.672c-1.396,-0.555 -2.74,-0.99 -3.915,-1.567c-0.591,-0.273 -1.164,-0.519 -1.694,-0.783c-0.525,-0.275 -1.022,-0.535 -1.492,-0.781c-0.933,-0.494 -1.718,-0.981 -2.354,-1.386c-1.271,-0.82 -1.946,-1.369 -1.946,-1.37l0.205,-0.292z" id="svg_8"/>
    <g id="svg_9">
     <path fill="#76BA0C" d="m206.3043,101.413c1.356,2.24 2.798,4.591 4.365,6.974c1.571,2.378 3.223,4.816 4.999,7.218c1.75,2.42 3.628,4.802 5.534,7.149c1.958,2.308 3.932,4.597 6.009,6.716c1.034,1.064 2.059,2.117 3.104,3.122c0.515,0.509 1.026,1.016 1.536,1.519c0.52,0.49 1.032,0.977 1.544,1.459c0.503,0.49 1.003,0.976 1.497,1.458c0.514,0.458 1.014,0.924 1.505,1.388c0.978,0.935 1.962,1.816 2.924,2.67c0.479,0.43 0.952,0.854 1.42,1.272c0.482,0.397 0.956,0.788 1.423,1.174c0.925,0.784 1.806,1.564 2.71,2.233c0.898,0.675 1.725,1.383 2.551,1.995c0.828,0.608 1.63,1.167 2.362,1.729c0.729,0.575 1.465,1.015 2.124,1.473c0.658,0.459 1.265,0.881 1.812,1.261c1.982,1.237 3.213,2.069 3.483,2.253c0.332,-2.792 3.014,-30.796 -20.855,-44.41c-15.187,-8.662 -37.328,-25.927 -40.396,-28.336c0.596,1.355 2.89,6.447 6.654,13.288c1.111,2.004 2.338,4.156 3.695,6.395z" id="svg_10"/>
     <path fill="#76BA0C" d="m253.0023,153.658c-1.256,-0.51 -2.817,-1.092 -4.535,-1.911c-0.861,-0.407 -1.757,-0.882 -2.714,-1.363c-0.949,-0.493 -1.91,-1.075 -2.92,-1.677c-1.022,-0.584 -2.029,-1.275 -3.085,-1.975c-0.521,-0.362 -1.052,-0.729 -1.589,-1.102c-0.52,-0.395 -1.05,-0.794 -1.585,-1.201c-0.537,-0.407 -1.079,-0.82 -1.629,-1.239c-0.526,-0.447 -1.057,-0.899 -1.595,-1.357c-0.538,-0.457 -1.081,-0.922 -1.616,-1.403c-0.521,-0.497 -1.047,-0.999 -1.576,-1.505c-1.054,-1.019 -2.091,-2.085 -3.091,-3.211c-1.037,-1.093 -1.998,-2.277 -2.982,-3.451c-1.955,-2.359 -3.859,-4.813 -5.705,-7.307c-1.819,-2.509 -3.599,-5.043 -5.246,-7.602c-1.672,-2.543 -3.212,-5.109 -4.673,-7.605c-1.443,-2.506 -2.804,-4.946 -4.002,-7.307c-1.211,-2.354 -2.296,-4.608 -3.269,-6.699c-1.944,-4.187 -3.415,-7.736 -4.373,-10.248c-0.636,-1.66 -1.055,-2.849 -1.271,-3.473c-5.196,67.836 52.965,72.377 60.764,72.68c-0.095,-0.028 -0.183,-0.052 -0.29,-0.085c-0.699,-0.206 -1.721,-0.522 -3.018,-0.959z" id="svg_11"/>
     <path fill="#FFFFFF" d="m257.0903,154.929l0.088,-0.205c0,0 -0.308,-0.001 -0.867,-0.023c0.499,0.147 0.779,0.228 0.779,0.228z" id="svg_12"/>
     <path fill="#FFFFFF" d="m195.3773,81.521c0,0 0.06,0.18 0.17,0.5c0.013,-0.196 0.022,-0.384 0.038,-0.579l-0.208,0.079z" id="svg_13"/>
     <path fill="#FFFFFF" d="m195.7943,81.363l-0.209,0.079c0,0 0.137,0.107 0.371,0.291c-0.105,-0.234 -0.162,-0.37 -0.162,-0.37z" id="svg_14"/>
     <path fill="#FFFFFF" d="m257.1773,154.724l0.088,-0.206c0,0 -0.021,-0.014 -0.058,-0.039c-0.017,0.148 -0.03,0.245 -0.03,0.245z" id="svg_15"/>
    </g>
    <g id="svg_16">
     <path fill="#76BA0C" d="m262.7273,150.964c0.656,-0.458 1.396,-0.898 2.121,-1.473c0.734,-0.563 1.533,-1.121 2.363,-1.729c0.826,-0.612 1.652,-1.32 2.552,-1.994c0.902,-0.669 1.784,-1.45 2.709,-2.234c0.468,-0.386 0.941,-0.777 1.425,-1.174c0.465,-0.417 0.938,-0.842 1.418,-1.272c0.962,-0.854 1.946,-1.735 2.924,-2.67c0.492,-0.464 0.99,-0.93 1.505,-1.388c0.495,-0.481 0.995,-0.967 1.498,-1.457c0.509,-0.484 1.024,-0.97 1.544,-1.46c0.509,-0.503 1.021,-1.01 1.534,-1.519c1.046,-1.004 2.071,-2.058 3.105,-3.122c2.078,-2.12 4.051,-4.408 6.009,-6.715c1.908,-2.349 3.783,-4.73 5.535,-7.15c1.776,-2.402 3.427,-4.838 4.999,-7.218c1.566,-2.382 3.008,-4.734 4.363,-6.974c1.356,-2.239 2.586,-4.391 3.696,-6.393c3.763,-6.838 6.056,-11.929 6.653,-13.287c-3.074,2.413 -25.211,19.674 -40.396,28.335c-23.869,13.614 -21.41,41.618 -21.078,44.41c0.271,-0.184 1.724,-1.016 3.706,-2.253c0.55,-0.382 1.155,-0.804 1.815,-1.263z" id="svg_17"/>
     <path fill="#76BA0C" d="m319.0923,82.023c-0.216,0.625 -0.637,1.812 -1.271,3.471c-0.958,2.512 -2.432,6.062 -4.373,10.248c-0.976,2.091 -2.06,4.344 -3.27,6.699c-1.197,2.362 -2.559,4.802 -4.004,7.308c-1.458,2.496 -2.998,5.061 -4.672,7.604c-1.646,2.559 -3.426,5.092 -5.244,7.602c-1.845,2.494 -3.749,4.947 -5.707,7.307c-0.985,1.174 -1.945,2.357 -2.98,3.451c-1,1.126 -2.038,2.193 -3.092,3.211c-0.53,0.506 -1.055,1.008 -1.576,1.505c-0.535,0.481 -1.077,0.946 -1.615,1.403c-0.538,0.458 -1.07,0.91 -1.596,1.357c-0.549,0.419 -1.093,0.832 -1.629,1.239c-0.535,0.407 -1.064,0.807 -1.586,1.201c-0.538,0.373 -1.066,0.74 -1.588,1.102c-1.057,0.699 -2.062,1.391 -3.086,1.975c-1.008,0.602 -1.97,1.184 -2.92,1.677c-0.958,0.481 -1.852,0.956 -2.713,1.363c-1.718,0.819 -3.278,1.401 -4.536,1.911c-1.297,0.437 -2.319,0.752 -3.017,0.958c-0.111,0.033 -0.198,0.057 -0.29,0.085c7.8,-0.302 65.96,-4.843 60.765,-72.677z" id="svg_18"/>
    </g>
    <path fill="#99CC00" d="m250.0113,32.015c0,0 -0.991,0.553 -2.657,1.641c-1.655,1.1 -4.015,2.681 -6.678,4.79c-1.329,1.053 -2.747,2.223 -4.191,3.518c-0.729,0.637 -1.448,1.328 -2.2,2.009c-0.723,0.715 -1.485,1.415 -2.213,2.178c-1.481,1.497 -2.929,3.116 -4.349,4.791c-0.717,0.834 -1.383,1.718 -2.076,2.583c-0.644,0.903 -1.334,1.775 -1.94,2.706c-0.605,0.929 -1.225,1.848 -1.764,2.809l-0.828,1.421c-0.249,0.486 -0.497,0.97 -0.743,1.453c-0.984,1.93 -1.812,3.879 -2.603,5.761c-0.424,0.93 -0.722,1.889 -1.12,2.789c-0.356,0.915 -0.637,1.833 -0.977,2.71c-0.568,1.782 -1.119,3.479 -1.498,5.087c-0.456,1.594 -0.679,3.099 -0.994,4.43c-0.109,0.675 -0.211,1.305 -0.306,1.889c-0.091,0.586 -0.23,1.127 -0.272,1.619c-0.232,1.966 -0.446,3.127 -0.446,3.127l-0.446,0.035c0,0 -0.31,-1.118 -0.71,-3.139c-0.188,-1.012 -0.285,-2.251 -0.429,-3.688c-0.047,-0.717 -0.021,-1.48 -0.034,-2.291c-0.001,-0.406 -0.001,-0.823 -0.003,-1.25c0.025,-0.423 0.07,-0.855 0.107,-1.298c0.11,-1.781 0.406,-3.697 0.851,-5.699c0.256,-0.99 0.5,-2.019 0.835,-3.042c0.347,-1.018 0.711,-2.059 1.146,-3.087c0.9,-2.044 1.982,-4.088 3.263,-6.036c0.316,-0.489 0.635,-0.978 0.954,-1.47l1.013,-1.435c0.66,-0.971 1.398,-1.888 2.119,-2.812c0.705,-0.937 1.491,-1.808 2.228,-2.708c0.785,-0.86 1.544,-1.735 2.347,-2.555c1.587,-1.657 3.232,-3.199 4.879,-4.617c1.645,-1.423 3.278,-2.74 4.881,-3.912c1.596,-1.18 3.148,-2.232 4.597,-3.172c5.804,-3.763 10.06,-5.535 10.06,-5.535l0.197,0.4z" id="svg_19"/>
    <path fill="#99CC00" d="m252.6713,31.533c0,0.001 -2.941,3.668 -6.752,9.56c-1.895,2.952 -3.98,6.469 -6.036,10.315c-1.017,1.931 -2.021,3.945 -2.984,6.011c-0.972,2.064 -1.88,4.193 -2.712,6.345c-0.816,2.158 -1.544,4.341 -2.158,6.513c-0.577,2.182 -1.116,4.323 -1.577,6.4c-0.489,2.07 -0.919,4.077 -1.268,5.991c-0.153,0.958 -0.376,1.889 -0.468,2.797c-0.12,0.907 -0.302,1.786 -0.362,2.634c-0.066,0.847 -0.166,1.663 -0.254,2.443c-0.044,0.778 -0.063,1.517 -0.126,2.219c-0.071,0.703 -0.057,1.356 -0.062,1.966c-0.018,0.614 -0.033,1.179 -0.048,1.688c0.059,2.031 0.038,3.244 0.039,3.244l-0.438,0.102c0,0 -0.113,-0.277 -0.327,-0.797c-0.212,-0.523 -0.518,-1.296 -0.859,-2.302c-0.268,-1.014 -0.661,-2.256 -0.913,-3.714c-0.14,-0.727 -0.242,-1.508 -0.375,-2.334c-0.083,-0.826 -0.16,-1.699 -0.215,-2.613c-0.082,-1.825 -0.099,-3.818 0.102,-5.903c0.159,-2.09 0.519,-4.275 1.038,-6.491c0.534,-2.215 1.288,-4.441 2.139,-6.659c0.448,-1.096 0.903,-2.2 1.357,-3.31c0.497,-1.089 0.947,-2.202 1.48,-3.273c1.005,-2.173 2.084,-4.306 3.217,-6.36c1.113,-2.064 2.316,-4.035 3.501,-5.918c1.208,-1.872 2.383,-3.672 3.581,-5.32c1.178,-1.661 2.345,-3.192 3.431,-4.596c4.358,-5.604 7.716,-8.935 7.716,-8.935l0.333,0.297z" id="svg_20"/>
    <path fill="#99CC00" d="m266.4423,32.509c0,0.001 4.256,1.772 10.059,5.535c1.449,0.94 3.001,1.992 4.597,3.172c1.604,1.171 3.238,2.488 4.881,3.912c1.647,1.419 3.292,2.96 4.88,4.617c0.803,0.819 1.562,1.696 2.347,2.555c0.737,0.901 1.522,1.772 2.228,2.708c0.723,0.925 1.457,1.842 2.117,2.812l1.016,1.436c0.318,0.491 0.637,0.98 0.953,1.469c1.281,1.948 2.361,3.992 3.264,6.037c0.435,1.028 0.798,2.068 1.146,3.086c0.335,1.022 0.579,2.051 0.834,3.042c0.445,2.001 0.739,3.918 0.851,5.698c0.037,0.443 0.083,0.876 0.107,1.299c0,0.426 -0.002,0.842 -0.002,1.249c-0.013,0.811 0.012,1.573 -0.035,2.291c-0.142,1.438 -0.243,2.677 -0.426,3.688c-0.402,2.021 -0.714,3.14 -0.714,3.14l-0.444,-0.035c0,0 -0.214,-1.161 -0.447,-3.127c-0.041,-0.491 -0.181,-1.032 -0.274,-1.619c-0.095,-0.583 -0.195,-1.215 -0.304,-1.888c-0.316,-1.332 -0.537,-2.837 -0.994,-4.431c-0.378,-1.607 -0.932,-3.305 -1.499,-5.087c-0.337,-0.877 -0.618,-1.794 -0.976,-2.709c-0.4,-0.9 -0.698,-1.858 -1.119,-2.79c-0.791,-1.881 -1.62,-3.831 -2.604,-5.761c-0.246,-0.483 -0.494,-0.966 -0.742,-1.453l-0.83,-1.421c-0.539,-0.96 -1.156,-1.878 -1.763,-2.809c-0.606,-0.929 -1.297,-1.802 -1.939,-2.706c-0.693,-0.864 -1.361,-1.749 -2.077,-2.583c-1.421,-1.676 -2.869,-3.295 -4.35,-4.792c-0.726,-0.763 -1.49,-1.463 -2.212,-2.178c-0.753,-0.68 -1.471,-1.371 -2.2,-2.009c-1.443,-1.294 -2.861,-2.463 -4.191,-3.517c-2.663,-2.109 -5.021,-3.69 -6.676,-4.791c-1.667,-1.088 -2.656,-1.641 -2.656,-1.641l0.194,-0.399z" id="svg_21"/>
    <path fill="#99CC00" d="m262.1283,32.13c0,0 3.357,3.331 7.717,8.936c1.084,1.402 2.249,2.934 3.43,4.595c1.197,1.647 2.373,3.449 3.579,5.32c1.186,1.884 2.388,3.854 3.503,5.918c1.134,2.055 2.21,4.187 3.215,6.36c0.535,1.072 0.985,2.185 1.48,3.274c0.455,1.109 0.908,2.213 1.359,3.31c0.851,2.217 1.604,4.444 2.139,6.658c0.518,2.217 0.878,4.401 1.036,6.492c0.202,2.085 0.185,4.078 0.101,5.902c-0.052,0.915 -0.131,1.788 -0.213,2.614c-0.134,0.825 -0.237,1.606 -0.376,2.334c-0.249,1.457 -0.646,2.699 -0.912,3.714c-0.34,1.005 -0.649,1.778 -0.86,2.301c-0.212,0.52 -0.326,0.798 -0.326,0.798l-0.437,-0.102c0,0 -0.021,-1.213 0.037,-3.244c-0.013,-0.51 -0.03,-1.074 -0.048,-1.688c-0.006,-0.609 0.011,-1.263 -0.062,-1.966c-0.062,-0.701 -0.08,-1.442 -0.126,-2.219c-0.086,-0.78 -0.187,-1.595 -0.254,-2.443c-0.06,-0.847 -0.242,-1.727 -0.362,-2.633c-0.091,-0.909 -0.314,-1.839 -0.466,-2.798c-0.351,-1.913 -0.78,-3.919 -1.269,-5.99c-0.462,-2.077 -1,-4.218 -1.576,-6.399c-0.615,-2.171 -1.344,-4.356 -2.16,-6.514c-0.831,-2.151 -1.739,-4.28 -2.711,-6.344c-0.964,-2.067 -1.969,-4.081 -2.984,-6.011c-2.057,-3.847 -4.143,-7.364 -6.035,-10.315c-3.812,-5.891 -6.752,-9.56 -6.752,-9.561l0.333,-0.299z" id="svg_22"/>
    <line fill="none" stroke="#00913A" stroke-width="3" stroke-miterlimit="10" x1="165.0183" y1="76.448" x2="164.9213" y2="104.03" id="svg_23"/>
    <path fill="url(#SVGID_2_)" d="m196.0613,78.746c0.326,-1.698 0.788,-3.352 1.301,-4.995c0.518,-1.64 1.09,-3.266 1.748,-4.858c0.642,-1.599 1.376,-3.159 2.132,-4.71c0.786,-1.536 1.614,-3.052 2.504,-4.533c0.896,-1.479 1.851,-2.922 2.854,-4.335l1.558,-2.083l1.646,-2.016c1.145,-1.304 2.307,-2.599 3.555,-3.812c0.603,-0.631 1.254,-1.207 1.9,-1.792c0.64,-0.59 1.287,-1.173 1.979,-1.707c0.686,-0.538 1.345,-1.113 2.055,-1.621l2.126,-1.526c0.72,-0.495 1.469,-0.942 2.203,-1.417c0.729,-0.485 1.49,-0.911 2.26,-1.328c0.77,-0.411 1.515,-0.875 2.309,-1.244l2.366,-1.132c0.781,-0.391 1.611,-0.676 2.416,-1.02c0.812,-0.322 1.612,-0.684 2.448,-0.942l2.485,-0.841c0.826,-0.292 1.682,-0.478 2.521,-0.722c0.847,-0.217 1.683,-0.492 2.538,-0.661l2.568,-0.541c0.853,-0.199 1.716,-0.338 2.581,-0.458l2.592,-0.392c1.734,-0.215 3.475,-0.345 5.215,-0.524l2.746,-0.283l-0.917,2.76c-0.98,2.952 -1.919,5.974 -2.791,8.991c-0.88,3.021 -1.689,6.06 -2.505,9.095l-2.372,9.119l-1.144,4.565l-1.101,4.571c-0.354,1.526 -0.72,3.051 -1.038,4.584l-0.951,4.599c-0.293,1.537 -0.604,3.073 -0.846,4.616c-0.262,1.542 -0.51,3.085 -0.74,4.631c-0.201,1.548 -0.4,3.1 -0.56,4.653c-0.091,0.778 -0.164,1.555 -0.212,2.333c-0.053,0.779 -0.127,1.56 -0.151,2.338c-0.027,0.779 -0.088,1.563 -0.09,2.344l-0.003,2.348l0.095,2.35l0.213,2.353l-0.437,0.099l-0.662,-2.313l-0.494,-2.359c-0.273,-1.583 -0.476,-3.182 -0.611,-4.785c-0.096,-0.803 -0.101,-1.604 -0.147,-2.408s-0.067,-1.607 -0.071,-2.411c-0.047,-1.61 0.026,-3.211 0.072,-4.819c0.092,-1.601 0.152,-3.208 0.32,-4.802c0.13,-1.599 0.328,-3.188 0.51,-4.779c0.196,-1.59 0.424,-3.174 0.687,-4.751c0.242,-1.582 0.534,-3.152 0.816,-4.727c0.59,-3.142 1.267,-6.264 2.038,-9.359c0.755,-3.102 1.618,-6.171 2.541,-9.221c0.915,-3.053 1.924,-6.076 2.946,-9.092c1.034,-3.018 2.069,-6.009 3.212,-9.021l1.829,2.478c-1.667,0.107 -3.343,0.164 -5.009,0.318l-2.489,0.289c-0.834,0.088 -1.663,0.193 -2.481,0.355l-2.471,0.433c-0.826,0.131 -1.627,0.369 -2.443,0.547c-0.81,0.206 -1.636,0.355 -2.432,0.608l-2.398,0.721c-0.809,0.218 -1.579,0.539 -2.365,0.819c-0.779,0.303 -1.582,0.547 -2.342,0.895l-2.295,1.005c-0.771,0.326 -1.494,0.745 -2.246,1.113c-0.748,0.373 -1.492,0.757 -2.203,1.197c-0.716,0.43 -1.452,0.833 -2.156,1.285l-2.09,1.393c-0.698,0.464 -1.347,0.995 -2.022,1.49c-0.682,0.489 -1.323,1.029 -1.967,1.569c-0.644,0.536 -1.3,1.062 -1.903,1.646c-1.256,1.118 -2.433,2.319 -3.6,3.536l-1.681,1.886l-1.603,1.959c-1.034,1.333 -2.028,2.7 -2.967,4.108c-0.935,1.41 -1.81,2.86 -2.646,4.334c-0.808,1.49 -1.597,2.994 -2.297,4.54c-0.727,1.536 -1.373,3.109 -1.967,4.701c-0.587,1.593 -1.127,3.215 -1.531,4.858l-0.438,-0.092z" id="svg_24"/>
    <path fill="url(#SVGID_3_)" d="m317.9553,78.018c-0.428,-1.627 -0.989,-3.23 -1.596,-4.807c-0.61,-1.575 -1.276,-3.129 -2.017,-4.648c-0.716,-1.528 -1.516,-3.015 -2.338,-4.486l-1.295,-2.169l-1.375,-2.116l-1.456,-2.06l-1.529,-2l-1.608,-1.935l-1.691,-1.86c-1.163,-1.204 -2.339,-2.393 -3.598,-3.494c-0.608,-0.572 -1.25,-1.106 -1.903,-1.626c-0.649,-0.522 -1.277,-1.071 -1.962,-1.549c-0.674,-0.49 -1.333,-1 -2.018,-1.472l-2.09,-1.366c-0.691,-0.461 -1.436,-0.841 -2.148,-1.266l-1.081,-0.621l-1.116,-0.557c-0.748,-0.362 -1.478,-0.757 -2.236,-1.094l-2.293,-0.975c-0.753,-0.349 -1.553,-0.585 -2.332,-0.875c-0.786,-0.263 -1.549,-0.591 -2.354,-0.798c-1.597,-0.458 -3.181,-0.951 -4.812,-1.272c-0.812,-0.17 -1.613,-0.388 -2.434,-0.521l-2.46,-0.398l-1.229,-0.197l-1.24,-0.127l-2.479,-0.254c-1.655,-0.134 -3.321,-0.164 -4.98,-0.247l1.802,-2.473c1.139,3.012 2.175,6.003 3.209,9.021c1.024,3.015 2.03,6.039 2.948,9.091c0.926,3.049 1.787,6.119 2.544,9.219c0.772,3.096 1.449,6.218 2.041,9.359c0.282,1.574 0.57,3.145 0.816,4.727c0.262,1.577 0.49,3.162 0.687,4.751c0.18,1.593 0.379,3.181 0.51,4.78c0.167,1.593 0.229,3.201 0.32,4.801c0.045,1.607 0.121,3.209 0.073,4.82c-0.002,0.803 -0.025,1.606 -0.073,2.411c-0.045,0.804 -0.051,1.604 -0.148,2.408c-0.134,1.603 -0.338,3.202 -0.61,4.785l-0.494,2.359l-0.663,2.313l-0.438,-0.099l0.213,-2.353l0.094,-2.35l-0.002,-2.348c-0.004,-0.781 -0.064,-1.565 -0.092,-2.344c-0.025,-0.778 -0.098,-1.56 -0.151,-2.338c-0.048,-0.777 -0.121,-1.555 -0.213,-2.333c-0.156,-1.553 -0.356,-3.104 -0.56,-4.652c-0.23,-1.547 -0.479,-3.09 -0.74,-4.632c-0.244,-1.542 -0.553,-3.079 -0.845,-4.615l-0.953,-4.6c-0.317,-1.532 -0.683,-3.058 -1.035,-4.583l-1.103,-4.572l-1.143,-4.565l-2.366,-9.12c-0.814,-3.036 -1.626,-6.074 -2.506,-9.096c-0.872,-3.016 -1.811,-6.039 -2.793,-8.99l-0.9,-2.714l2.701,0.241c1.731,0.155 3.468,0.255 5.192,0.449l2.585,0.355l1.29,0.178l1.28,0.249l2.562,0.507c0.852,0.169 1.688,0.423 2.531,0.632c1.695,0.396 3.343,0.967 4.997,1.505c0.833,0.246 1.627,0.617 2.442,0.92c0.804,0.331 1.629,0.608 2.407,1l2.365,1.103c0.783,0.379 1.535,0.819 2.304,1.225l1.145,0.623l1.107,0.686c0.731,0.469 1.491,0.893 2.198,1.398l2.129,1.498c0.695,0.517 1.365,1.07 2.048,1.603c0.693,0.521 1.328,1.113 1.977,1.687c0.653,0.57 1.293,1.151 1.896,1.771c1.252,1.196 2.414,2.476 3.558,3.768l1.654,1.989l1.564,2.058l1.478,2.116l1.394,2.169l1.311,2.218l1.22,2.266c0.771,1.532 1.518,3.075 2.176,4.656c0.671,1.575 1.264,3.182 1.802,4.806c0.53,1.625 1.013,3.265 1.367,4.945l-0.439,0.101z" id="svg_25"/>
    <circle fill="none" stroke="#00913A" stroke-width="3" stroke-miterlimit="10" cx="164.9203" cy="106.22" r="2.19" id="svg_26"/>
    <polyline fill="none" stroke="#00913A" stroke-width="3" stroke-miterlimit="10" points="162.7303009033203,106.22000122070312 162.7303009033203,116.56100463867188 162.7303009033203,120.08799743652344 167.1103057861328,116.56100463867188 167.1103057861328,106.22000122070312 " id="svg_27"/>
    <polygon fill="#FFFFFF" points="164.0633087158203,106.22000122070312 164.0633087158203,117.33599853515625 165.7772979736328,115.88200378417969 165.7772979736328,106.22000122070312 " id="svg_28"/>
   </g>
  </g>
  <g id="图层_2"/>
 </g>
</svg>