<svg width="1000" height="376" xmlns="http://www.w3.org/2000/svg">

 <g>
  <title>background</title>
  <rect fill="none" id="canvas_background" height="378" width="1002" y="-1" x="-1"/>
 </g>
 <g>
  <title>Layer 1</title>
  <g id="svg_1">
   <path id="svg_2" d="m843.874,288.026c0,3.329 -4.559,6.027 -10.181,6.027l-147.638,0c-5.623,0 -10.182,-2.698 -10.182,-6.027l0,-56.255c0,-3.328 4.559,-6.027 10.182,-6.027l40.619,0l7.985,-13.065l8.944,13.065l90.089,0c5.623,0 10.181,2.699 10.181,6.027l0,56.255l0.001,0z" fill="#F7F8F8"/>
   <path id="svg_3" d="m833.692,294.554l-147.637,0c-5.89,0 -10.682,-2.928 -10.682,-6.527l0,-56.255c0,-3.599 4.792,-6.527 10.682,-6.527l40.338,0l8.241,-13.485l9.232,13.485l89.826,0c5.89,0 10.681,2.928 10.681,6.527l0,56.255c0.001,3.598 -4.791,6.527 -10.681,6.527zm-147.637,-68.31c-5.338,0 -9.682,2.479 -9.682,5.527l0,56.255c0,3.048 4.343,5.527 9.682,5.527l147.637,0c5.338,0 9.681,-2.479 9.681,-5.527l0,-56.255c0,-3.048 -4.343,-5.527 -9.681,-5.527l-90.353,0l-8.657,-12.646l-7.729,12.646l-40.898,0z" fill="#C9CACA"/>
  </g>
  <g id="svg_4">
   <path id="svg_5" d="m287.011,281.521c0,3.027 -2.903,5.481 -6.484,5.481l-94.027,0c-3.581,0 -6.484,-2.454 -6.484,-5.481l0,-51.161c0,-3.027 2.903,-5.481 6.484,-5.481l26.506,0l6.997,-11.882l6.971,11.882l53.553,0c3.581,0 6.484,2.455 6.484,5.481l0,51.161z" fill="#F7F8F8"/>
   <path id="svg_6" d="m280.526,287.502l-94.027,0c-3.851,0 -6.984,-2.683 -6.984,-5.981l0,-51.161c0,-3.298 3.133,-5.981 6.984,-5.981l26.221,0l7.284,-12.369l7.256,12.369l53.267,0c3.851,0 6.984,2.683 6.984,5.981l0,51.161c0,3.298 -3.134,5.981 -6.985,5.981zm-94.027,-62.123c-3.3,0 -5.984,2.235 -5.984,4.981l0,51.161c0,2.747 2.685,4.981 5.984,4.981l94.027,0c3.3,0 5.984,-2.235 5.984,-4.981l0,-51.161c0,-2.747 -2.685,-4.981 -5.984,-4.981l-53.84,0l-6.685,-11.396l-6.71,11.396l-26.792,0z" fill="#C9CACA"/>
  </g>
  <g id="svg_7">
   <path id="svg_8" d="m528.117,294.133c0,3.792 -3.122,6.865 -6.973,6.865l-101.107,0c-3.851,0 -6.973,-3.074 -6.973,-6.865l0,-64.073c0,-3.791 3.122,-6.865 6.973,-6.865l27.66,0l7.524,-12.2l5.811,12.2l60.114,0c3.851,0 6.973,3.074 6.973,6.865l0,64.073l-0.002,0z" fill="#F7F8F8"/>
   <path id="svg_9" d="m521.145,301.499l-101.108,0c-4.121,0 -7.473,-3.304 -7.473,-7.365l0,-64.073c0,-4.061 3.353,-7.365 7.473,-7.365l27.38,0l7.86,-12.744l6.07,12.744l59.798,0c4.121,0 7.473,3.304 7.473,7.365l0,64.073c-0.001,4.06 -3.353,7.365 -7.473,7.365zm-101.108,-77.803c-3.569,0 -6.473,2.855 -6.473,6.365l0,64.073c0,3.51 2.904,6.365 6.473,6.365l101.108,0c3.569,0 6.473,-2.855 6.473,-6.365l0,-64.073c0,-3.51 -2.904,-6.365 -6.473,-6.365l-60.43,0l-5.551,-11.656l-7.188,11.656l-27.939,0z" fill="#C9CACA"/>
  </g>
  <g id="svg_10">
   <path id="svg_11" d="m660.524,97.358c0,-3.027 -2.903,-5.481 -6.484,-5.481l-94.027,0c-3.581,0 -6.484,2.454 -6.484,5.481l0,51.161c0,3.026 2.903,5.48 6.484,5.48l26.506,0l6.997,11.883l6.971,-11.882l53.553,0c3.581,0 6.484,-2.454 6.484,-5.48l0,-51.162z" fill="#F7F8F8"/>
   <path id="svg_12" d="m593.517,166.87l-7.284,-12.37l-26.221,0c-3.851,0 -6.984,-2.683 -6.984,-5.98l0,-51.162c0,-3.298 3.133,-5.981 6.984,-5.981l94.027,0c3.851,0 6.984,2.683 6.984,5.981l0,51.161c0,3.298 -3.133,5.98 -6.984,5.98l-53.267,0l-7.255,12.371zm-33.504,-74.493c-3.3,0 -5.984,2.235 -5.984,4.981l0,51.161c0,2.746 2.685,4.98 5.984,4.98l26.792,0l6.71,11.396l6.685,-11.395l53.84,0c3.3,0 5.984,-2.234 5.984,-4.98l0,-51.162c0,-2.747 -2.685,-4.981 -5.984,-4.981l-94.027,0z" fill="#C9CACA"/>
  </g>
  <g id="svg_13">
   <path id="svg_14" d="m401.213,97.358c0,-3.027 -2.903,-5.481 -6.484,-5.481l-94.027,0c-3.581,0 -6.484,2.454 -6.484,5.481l0,51.161c0,3.026 2.903,5.48 6.484,5.48l26.506,0l6.997,11.883l6.97,-11.882l53.553,0c3.581,0 6.484,-2.454 6.484,-5.48l0,-51.162l0.001,0z" fill="#F7F8F8"/>
   <path id="svg_15" d="m334.206,166.87l-7.284,-12.37l-26.221,0c-3.851,0 -6.984,-2.683 -6.984,-5.98l0,-51.162c0,-3.298 3.133,-5.981 6.984,-5.981l94.027,0c3.851,0 6.984,2.683 6.984,5.981l0,51.161c0,3.298 -3.133,5.98 -6.984,5.98l-53.267,0l-7.255,12.371zm-33.505,-74.493c-3.3,0 -5.984,2.235 -5.984,4.981l0,51.161c0,2.746 2.685,4.98 5.984,4.98l26.792,0l6.71,11.396l6.685,-11.396l53.84,0c3.3,0 5.984,-2.234 5.984,-4.98l0,-51.161c0,-2.747 -2.685,-4.981 -5.984,-4.981l-94.027,0z" fill="#C9CACA"/>
  </g>
  <g id="svg_16">
   <path id="svg_17" d="m107.898,200.101c0,2.138 -1.733,3.871 -3.871,3.871l-59.03,0c-2.138,0 -3.871,-1.733 -3.871,-3.871l0,-29.999c0,-2.138 1.733,-3.871 3.871,-3.871l59.031,0c2.138,0 3.871,1.733 3.871,3.871l0,29.999l-0.001,0z" fill="#3FA304"/>
  </g>
  <g id="svg_18">
   <path id="svg_19" d="m743.881,271.91c-0.315,-0.172 -0.759,-0.415 -1.332,-0.73c-0.172,-0.114 -0.301,-0.2 -0.387,-0.258l0,0.988l-5.629,0l0,-0.902c-0.544,0.344 -1.132,0.688 -1.762,1.031c-0.086,-0.2 -0.272,-0.501 -0.559,-0.902c-0.029,-0.057 -0.058,-0.1 -0.086,-0.129c2.177,-1.06 3.795,-2.334 4.855,-3.824l1.375,0.129l-0.258,0.344c1.031,1.347 2.521,2.406 4.469,3.18c-0.228,0.343 -0.457,0.701 -0.686,1.073zm-9.41,2.278l0,-1.074l9.754,0l0,1.074l-5.242,0c-0.659,0.688 -1.289,1.347 -1.891,1.977c0.2,0 0.501,-0.014 0.902,-0.043c1.432,-0.028 2.549,-0.071 3.352,-0.129l-0.945,-0.988l0.816,-0.645c0.286,0.287 0.73,0.73 1.332,1.332c0.544,0.487 0.945,0.859 1.203,1.117l-0.902,0.773c-0.201,-0.258 -0.416,-0.487 -0.645,-0.688c-1.318,0 -3.008,0.071 -5.07,0.215c-0.516,0.028 -0.96,0.086 -1.332,0.172l-0.559,-1.031c0.372,-0.172 0.688,-0.387 0.945,-0.645c0.344,-0.315 0.788,-0.788 1.332,-1.418l-3.05,0l0,0.001zm4.984,-5.672c-0.831,0.917 -1.733,1.69 -2.707,2.32l5.285,0c-1.06,-0.659 -1.919,-1.432 -2.578,-2.32z" fill="#595757"/>
   <path id="svg_20" d="m746.674,276.852l-0.73,-0.773c0.258,-0.286 0.387,-0.63 0.387,-1.031l0,-3.266l-1.16,0l0,-1.074l2.234,0l0,4.082c0.401,-0.315 0.816,-0.659 1.246,-1.031c0.086,0.43 0.186,0.802 0.301,1.117c-0.602,0.516 -0.688,0.587 -0.258,0.215c-0.43,0.373 -0.902,0.773 -1.418,1.203c-0.201,0.171 -0.402,0.357 -0.602,0.558zm0.344,-7.004c-0.144,-0.229 -0.373,-0.544 -0.688,-0.945c-0.287,-0.43 -0.516,-0.745 -0.688,-0.945l0.902,-0.559c0.258,0.287 0.616,0.73 1.074,1.332c0.172,0.201 0.301,0.358 0.387,0.473l-0.987,0.644zm1.418,7.691c-0.086,-0.172 -0.287,-0.473 -0.602,-0.902c-0.058,-0.058 -0.101,-0.101 -0.129,-0.129c1.346,-0.659 2.42,-1.375 3.223,-2.148c-1.175,-1.375 -1.991,-3.352 -2.449,-5.93l1.117,-0.258c0.43,2.378 1.146,4.154 2.148,5.328c1.031,-1.203 1.733,-3.022 2.105,-5.457l1.16,0.215c-0.487,2.722 -1.318,4.755 -2.492,6.102c0.831,0.773 1.862,1.418 3.094,1.934c-0.115,0.172 -0.287,0.444 -0.516,0.816c-0.086,0.172 -0.158,0.286 -0.215,0.344c-1.375,-0.773 -2.435,-1.504 -3.18,-2.191c-0.715,0.715 -1.804,1.474 -3.264,2.276zm3.222,-7.434c-0.373,-0.945 -0.73,-1.776 -1.074,-2.492l1.031,-0.344c0.458,0.945 0.831,1.748 1.117,2.406l-1.074,0.43z" fill="#595757"/>
   <path id="svg_21" d="m757.416,277.453l0,-9.582l7.906,0l0,9.582l-1.203,0l0,-0.688l-5.5,0l0,0.688l-1.203,0zm1.203,-8.465l0,2.793l5.5,0l0,-2.793l-5.5,0zm0,3.867l0,2.836l5.5,0l0,-2.836l-5.5,0z" fill="#595757"/>
   <path id="svg_22" d="m767.299,269.375l0,-0.945l0.688,0l0,-1.074l1.074,0l0,1.074l1.891,0l0,-1.117l1.074,0l0,1.117l0.688,0l0,0.945l-0.688,0l0,4.684l0.816,0l0,0.945l-5.672,0l0,-0.945l0.816,0l0,-4.684l-0.687,0zm0.687,8.121c-0.401,-0.401 -0.673,-0.645 -0.816,-0.73c0.716,-0.63 1.26,-1.188 1.633,-1.676l0.902,0.602c-0.601,0.687 -1.175,1.288 -1.719,1.804zm1.075,-8.121l0,0.988l1.891,0l0,-0.988l-1.891,0zm0,1.848l0,0.988l1.891,0l0,-0.988l-1.891,0zm0,1.847l0,0.988l1.891,0l0,-0.988l-1.891,0zm2.449,4.082c-0.144,-0.172 -0.373,-0.43 -0.688,-0.773c-0.258,-0.286 -0.458,-0.516 -0.602,-0.688l0.773,-0.602c0.487,0.487 0.931,0.917 1.332,1.289c0.659,-0.831 0.959,-2.292 0.902,-4.383l0,-4.383l3.867,0l0,8.637c0,0.716 -0.344,1.088 -1.031,1.117c-0.115,0 -0.33,0 -0.645,0c-0.315,0.028 -0.544,0.043 -0.688,0.043c-0.029,-0.086 -0.072,-0.272 -0.129,-0.559c-0.058,-0.229 -0.101,-0.401 -0.129,-0.516c0.372,0.028 0.702,0.043 0.988,0.043c0.401,0.028 0.587,-0.129 0.559,-0.473l0,-1.805l-1.805,0c-0.115,1.318 -0.544,2.478 -1.289,3.48c-0.172,-0.144 -0.416,-0.33 -0.73,-0.559c-0.086,-0.086 -0.158,-0.144 -0.215,-0.172c0.028,-0.029 0.071,-0.072 0.129,-0.129c0.028,-0.058 0.057,-0.101 0.086,-0.129l-0.685,0.562zm2.793,-5.07c0,0.344 -0.015,0.688 -0.043,1.031l1.762,0l0,-1.719l-1.719,0l0,0.688zm0,-3.394l0,1.719l1.719,0l0,-1.719l-1.719,0z" fill="#595757"/>
  </g>
  <g id="svg_23">
   <path id="svg_24" d="m196.623,268.33l0,-1.074l1.074,0l0,-1.934l1.031,0l0,1.934l0.816,0l0,1.074l-0.816,0l0,1.891l0.902,-0.258c0,0.401 0,0.773 0,1.117c-0.229,0.029 -0.53,0.101 -0.902,0.215l0,2.793c0.028,0.831 -0.344,1.26 -1.117,1.289c-0.229,0.028 -0.516,0.043 -0.859,0.043c-0.029,-0.315 -0.086,-0.688 -0.172,-1.117c0.143,0.028 0.344,0.043 0.602,0.043c0.344,0.028 0.516,-0.143 0.516,-0.516l0,-2.234l-1.074,0.301l-0.129,-1.16c0.372,-0.086 0.773,-0.172 1.203,-0.258l0,-2.148l-1.075,0l0,-0.001zm3.094,-1.118l0,-0.902l3.008,0c-0.029,-0.114 -0.086,-0.272 -0.172,-0.473c-0.058,-0.229 -0.115,-0.387 -0.172,-0.473l1.203,-0.129c0.028,0.058 0.057,0.158 0.086,0.301c0.086,0.172 0.172,0.43 0.258,0.773l2.965,0l0,0.902l-2.277,0l0.859,0.172c-0.058,0.086 -0.144,0.215 -0.258,0.387c-0.172,0.258 -0.315,0.458 -0.43,0.602l1.676,0l0,5.93c0.028,0.716 -0.344,1.074 -1.117,1.074c-0.287,0 -0.673,0 -1.16,0c-0.029,-0.229 -0.101,-0.53 -0.215,-0.902c0.372,0 0.716,0 1.031,0c0.344,0 0.501,-0.129 0.473,-0.387l0,-4.855l-4.555,0l0,6.273l-0.945,0l0,-7.133l1.633,0c-0.258,-0.458 -0.473,-0.788 -0.645,-0.988l0.73,-0.172l-1.976,0zm1.676,3.739l0,-0.816l1.332,0l0,-0.645l0.945,0l0,0.645l1.375,0l0,0.816l-1.375,0l0,0.816l1.074,0l0,2.535l-3.094,0l0,-2.535l1.074,0l0,-0.816l-1.331,0zm1.375,-2.578l-0.086,0l0.988,0c0.028,-0.057 0.086,-0.143 0.172,-0.258c0.258,-0.401 0.43,-0.702 0.516,-0.902l-2.32,0c0.314,0.458 0.558,0.845 0.73,1.16zm-0.301,4.168l0,1.031l1.461,0l0,-1.031l-1.461,0z" fill="#595757"/>
   <path id="svg_25" d="m207.838,266.611l0,-0.902l9.797,0l0,0.902l-3.051,0l0,0.902l2.621,0l0,2.879l-5.629,0l1.031,0.086c-0.172,0.287 -0.358,0.559 -0.559,0.816l5.887,0l0,0.902l-2.062,0c-0.401,0.688 -0.874,1.218 -1.418,1.59c0.945,0.258 1.948,0.501 3.008,0.73l-0.473,0.988c-0.544,-0.172 -1.347,-0.43 -2.406,-0.773c-0.544,-0.172 -0.945,-0.301 -1.203,-0.387c-1.175,0.544 -2.908,0.945 -5.199,1.203c-0.029,-0.086 -0.101,-0.258 -0.215,-0.516c-0.086,-0.229 -0.144,-0.387 -0.172,-0.473c1.833,-0.172 3.165,-0.358 3.996,-0.559c-0.344,-0.114 -0.859,-0.272 -1.547,-0.473c-0.487,-0.143 -0.859,-0.258 -1.117,-0.344c0.172,-0.172 0.387,-0.415 0.645,-0.73c0.086,-0.114 0.157,-0.2 0.215,-0.258l-2.449,0l0,-0.902l3.18,0c0.2,-0.286 0.401,-0.587 0.602,-0.902l-3.051,0l0,-2.879l2.621,0l0,-0.902l-3.052,0l0,0.002zm1.461,1.805l0,1.117l1.59,0l0,-1.117l-1.59,0zm3.824,5.027c0.602,-0.344 1.06,-0.759 1.375,-1.246l-3.137,0c-0.058,0.058 -0.144,0.158 -0.258,0.301c-0.144,0.144 -0.244,0.258 -0.301,0.344c0.459,0.114 1.232,0.315 2.321,0.601zm-1.16,-6.832l0,0.902l1.547,0l0,-0.902l-1.547,0zm0,1.805l0,1.117l1.547,0l0,-1.117l-1.547,0zm4.254,0l-1.633,0l0,1.117l1.633,0l0,-1.117z" fill="#595757"/>
   <path id="svg_26" d="m218.666,268.244l0,-1.031l1.203,0l0,-1.891l1.031,0l0,1.891l1.16,0l0,1.031l-1.16,0l0,1.891l1.074,-0.215c-0.029,0.43 -0.029,0.788 0,1.074l-1.074,0.258l0,2.922c0.028,0.831 -0.33,1.246 -1.074,1.246c-0.258,0.028 -0.602,0.043 -1.031,0.043c-0.029,-0.229 -0.072,-0.53 -0.129,-0.902c-0.029,-0.115 -0.043,-0.187 -0.043,-0.215c0.086,0 0.329,0 0.73,0c0.372,0.028 0.544,-0.129 0.516,-0.473l0,-2.32l-1.289,0.344l-0.086,-1.203c0.114,-0.028 0.286,-0.071 0.516,-0.129c0.372,-0.086 0.659,-0.143 0.859,-0.172l0,-2.148l-1.203,0l0,-0.001zm9.711,7.218c-1.232,-0.344 -2.277,-0.759 -3.137,-1.246c-0.831,0.487 -1.891,0.931 -3.18,1.332c-0.058,-0.115 -0.144,-0.287 -0.258,-0.516c-0.144,-0.229 -0.244,-0.401 -0.301,-0.516c1.146,-0.229 2.105,-0.573 2.879,-1.031c-0.716,-0.716 -1.261,-1.504 -1.633,-2.363l0.473,-0.258l-0.73,0l0,-1.031l5.629,0l0,1.074c-0.458,0.974 -1.103,1.833 -1.934,2.578c0.773,0.458 1.704,0.773 2.793,0.945c-0.115,0.172 -0.287,0.458 -0.516,0.859c-0.028,0.087 -0.057,0.145 -0.085,0.173zm-5.758,-5.886c-0.258,-0.344 -0.487,-0.645 -0.688,-0.902c0.974,-0.43 1.418,-1.146 1.332,-2.148l0,-0.816l4.211,0l0,1.805c-0.029,0.43 0.157,0.63 0.559,0.602l0.902,0c-0.058,0.201 -0.115,0.487 -0.172,0.859c0,0.058 0,0.101 0,0.129l-1.16,0c-0.859,0.029 -1.275,-0.358 -1.246,-1.16l0,-1.246l-2.02,0l0,0.301c0.058,1.086 -0.515,1.946 -1.718,2.576zm4.254,1.289l-3.094,0c0.401,0.802 0.902,1.461 1.504,1.977c0.716,-0.545 1.246,-1.204 1.59,-1.977z" fill="#595757"/>
   <path id="svg_27" d="m229.795,266.912c0,-0.114 -0.015,-0.272 -0.043,-0.473c-0.029,-0.229 -0.058,-0.387 -0.086,-0.473c0.63,-0.028 1.518,-0.086 2.664,-0.172c0.2,-0.028 0.358,-0.043 0.473,-0.043l0.172,0.945c-0.029,0 -0.072,0 -0.129,0c-0.287,0.058 -0.602,0.086 -0.945,0.086l0,1.59l1.16,0l0,0.988l-1.16,0l0,0.73c0.086,0.058 0.2,0.144 0.344,0.258c0.401,0.344 0.716,0.616 0.945,0.816l-0.516,0.902l-0.773,-0.816l0,4.297l-0.988,0l0,-4.125c-0.315,0.802 -0.688,1.519 -1.117,2.148c-0.029,-0.114 -0.072,-0.286 -0.129,-0.516c-0.086,-0.315 -0.158,-0.544 -0.215,-0.688c0.63,-0.945 1.103,-1.948 1.418,-3.008l-1.246,0l0,-0.988l1.289,0l0,-1.504l-1.118,0.046zm3.48,0.214l0,-0.859l2.621,0l-0.215,-0.902l1.16,-0.086c0.057,0.315 0.129,0.645 0.215,0.988l2.75,0l0,0.859l-6.531,0zm0,8.379l0,-4.941l6.316,0l0,3.738c0.057,0.773 -0.301,1.16 -1.074,1.16c-0.344,0 -0.702,0 -1.074,0c0,-0.029 -0.015,-0.086 -0.043,-0.172c-0.029,-0.315 -0.072,-0.559 -0.129,-0.73c0.114,0.028 0.401,0.043 0.859,0.043c0.344,0.028 0.501,-0.101 0.473,-0.387l0,-2.793l-4.34,0l0,4.082l-0.988,0zm0.645,-5.543l0,-2.234l5.027,0l0,2.234l-5.027,0zm0.988,-1.504l0,0.773l3.051,0l0,-0.773l-3.051,0zm0.086,5.844l0,-2.234l2.836,0l0,2.234l-2.836,0zm0.817,-1.547l0,0.902l1.246,0l0,-0.902l-1.246,0z" fill="#595757"/>
   <path id="svg_28" d="m241.139,266.998l0,-1.117l9.367,0l0,1.117l-1.891,0l0,2.836l2.32,0l0,1.117l-2.32,0l0,4.469l-1.203,0l0,-4.469l-3.051,0c0.028,2.091 -0.859,3.638 -2.664,4.641c-0.172,-0.201 -0.473,-0.516 -0.902,-0.945c1.633,-0.773 2.42,-2.005 2.363,-3.695l-2.535,0l0,-1.117l2.535,0l0,-2.836l-2.019,0l0,-0.001zm3.222,0l0,2.836l3.051,0l0,-2.836l-3.051,0z" fill="#595757"/>
   <path id="svg_29" d="m255.189,274.56l-1.074,-0.902c-0.458,0.573 -1.103,1.188 -1.934,1.848l-0.73,-0.859c0.802,-0.573 1.418,-1.16 1.848,-1.762l-1.504,-1.375c0.229,-0.831 0.444,-1.891 0.645,-3.18l-0.902,0l0,-1.031l1.074,0c0.086,-0.688 0.172,-1.375 0.258,-2.062l1.117,0.129c-0.086,0.401 -0.172,0.96 -0.258,1.676c0.057,-0.43 0.043,-0.344 -0.043,0.258l1.977,0l0,1.031c-0.144,1.948 -0.458,3.409 -0.945,4.383l1.246,1.074l-0.775,0.772zm-0.558,-6.23l-1.117,0c-0.172,1.089 -0.373,2.048 -0.602,2.879c0.114,0.086 0.272,0.215 0.473,0.387c0.229,0.172 0.387,0.301 0.473,0.387c0.4,-0.832 0.658,-2.049 0.773,-3.653zm1.504,1.503l-0.473,-1.074c0.258,-0.143 0.516,-0.387 0.773,-0.73c0.516,-0.716 1.06,-1.647 1.633,-2.793l1.16,0.43c-0.802,1.261 -1.49,2.263 -2.062,3.008c0.487,-0.028 1.303,-0.071 2.449,-0.129c-0.172,0.029 0,0.029 0.516,0c-0.058,-0.114 -0.158,-0.272 -0.301,-0.473c-0.229,-0.401 -0.401,-0.702 -0.516,-0.902l0.902,-0.473c0.43,0.63 0.959,1.519 1.59,2.664c0.086,0.172 0.157,0.301 0.215,0.387l-0.988,0.516c-0.115,-0.229 -0.244,-0.473 -0.387,-0.73c-1.748,0.058 -2.922,0.115 -3.523,0.172c-0.401,-0.001 -0.73,0.042 -0.988,0.127zm0.086,5.715l0,-4.727l5.07,0l0,4.727l-1.117,0l0,-0.645l-2.836,0l0,0.645l-1.117,0zm1.117,-3.738l0,2.148l2.836,0l0,-2.148l-2.836,0z" fill="#595757"/>
  </g>
  <g id="svg_30">
   <path id="svg_31" d="m312.285,142.334l-0.73,-0.945c0.258,-0.229 0.387,-0.53 0.387,-0.902l0,-3.695l-1.117,0l0,-1.074l2.234,0l0,4.684c0.086,-0.057 0.2,-0.143 0.344,-0.258c0.401,-0.315 0.688,-0.544 0.859,-0.688c0,0.058 0.014,0.129 0.043,0.215c0.057,0.201 0.143,0.501 0.258,0.902c-0.716,0.487 -1.261,0.888 -1.633,1.203c-0.259,0.2 -0.473,0.387 -0.645,0.558zm0.472,-7.519c-0.115,-0.143 -0.258,-0.344 -0.43,-0.602c-0.43,-0.573 -0.773,-1.017 -1.031,-1.332l0.945,-0.602c0.143,0.172 0.344,0.416 0.602,0.73c0.401,0.458 0.702,0.831 0.902,1.117l-0.988,0.689zm7.95,1.848c-1.318,-0.831 -2.363,-1.833 -3.137,-3.008c-0.773,1.117 -1.876,2.148 -3.309,3.094c-0.201,-0.401 -0.416,-0.745 -0.645,-1.031c1.575,-0.917 2.764,-2.105 3.566,-3.566l1.246,0.129l-0.301,0.473c0.831,1.203 1.891,2.148 3.18,2.836c-0.058,0.115 -0.158,0.287 -0.301,0.516c-0.113,0.227 -0.214,0.414 -0.299,0.557zm-4.04,5.457c-1.117,0.028 -1.662,-0.487 -1.633,-1.547l0,-4.254l1.16,0l0,1.805c1.174,-0.487 2.206,-1.06 3.094,-1.719l0.73,0.902c-1.146,0.745 -2.421,1.404 -3.824,1.977l0,1.074c-0.029,0.573 0.258,0.845 0.859,0.816l1.461,0c0.573,0.029 0.888,-0.243 0.945,-0.816c0.086,-0.344 0.143,-0.831 0.172,-1.461c0.43,0.144 0.802,0.258 1.117,0.344c-0.086,0.659 -0.172,1.246 -0.258,1.762c-0.144,0.745 -0.73,1.117 -1.762,1.117l-2.061,0z" fill="#595757"/>
   <path id="svg_32" d="m321.91,134.987l0,-1.117l4.77,0c-0.172,-0.516 -0.373,-1.017 -0.602,-1.504l1.332,-0.215c0.086,0.287 0.229,0.702 0.43,1.246c0.086,0.201 0.143,0.358 0.172,0.473l4.082,0l0,1.117l-1.762,0c-0.43,1.805 -1.218,3.309 -2.363,4.512c1.117,0.745 2.521,1.318 4.211,1.719c-0.258,0.315 -0.501,0.673 -0.73,1.074c-1.919,-0.573 -3.409,-1.231 -4.469,-1.977c-0.859,0.63 -2.32,1.332 -4.383,2.105c-0.172,-0.315 -0.416,-0.702 -0.73,-1.16c1.719,-0.458 3.122,-1.045 4.211,-1.762c-1.175,-1.203 -1.977,-2.707 -2.406,-4.512l-1.763,0l0,0.001zm5.07,3.738c1.06,-0.974 1.747,-2.22 2.062,-3.738l-4.125,0c0.344,1.461 1.032,2.707 2.063,3.738z" fill="#595757"/>
   <path id="svg_33" d="m332.91,135.245l0,-1.074l1.074,0l0,-1.934l1.031,0l0,1.934l0.816,0l0,1.074l-0.816,0l0,1.891l0.902,-0.258c0,0.401 0,0.773 0,1.117c-0.229,0.029 -0.53,0.101 -0.902,0.215l0,2.793c0.028,0.831 -0.344,1.26 -1.117,1.289c-0.229,0.028 -0.516,0.043 -0.859,0.043c-0.029,-0.315 -0.086,-0.688 -0.172,-1.117c0.143,0.028 0.344,0.043 0.602,0.043c0.344,0.028 0.516,-0.143 0.516,-0.516l0,-2.234l-1.074,0.301l-0.129,-1.16c0.372,-0.086 0.773,-0.172 1.203,-0.258l0,-2.148l-1.075,0l0,-0.001zm3.093,-1.118l0,-0.902l3.008,0c-0.029,-0.114 -0.086,-0.272 -0.172,-0.473c-0.058,-0.229 -0.115,-0.387 -0.172,-0.473l1.203,-0.129c0.028,0.058 0.057,0.158 0.086,0.301c0.086,0.172 0.172,0.43 0.258,0.773l2.965,0l0,0.902l-2.277,0l0.859,0.172c-0.058,0.086 -0.144,0.215 -0.258,0.387c-0.172,0.258 -0.315,0.458 -0.43,0.602l1.676,0l0,5.93c0.028,0.716 -0.344,1.074 -1.117,1.074c-0.287,0 -0.673,0 -1.16,0c-0.029,-0.229 -0.101,-0.53 -0.215,-0.902c0.372,0 0.716,0 1.031,0c0.344,0 0.501,-0.129 0.473,-0.387l0,-4.855l-4.555,0l0,6.273l-0.945,0l0,-7.133l1.633,0c-0.258,-0.458 -0.473,-0.788 -0.645,-0.988l0.73,-0.172l-1.976,0zm1.676,3.739l0,-0.816l1.332,0l0,-0.645l0.945,0l0,0.645l1.375,0l0,0.816l-1.375,0l0,0.816l1.074,0l0,2.535l-3.094,0l0,-2.535l1.074,0l0,-0.816l-1.331,0zm1.375,-2.578l-0.086,0l0.988,0c0.028,-0.057 0.086,-0.143 0.172,-0.258c0.258,-0.401 0.43,-0.702 0.516,-0.902l-2.32,0c0.315,0.458 0.558,0.845 0.73,1.16zm-0.301,4.168l0,1.031l1.461,0l0,-1.031l-1.461,0z" fill="#595757"/>
   <path id="svg_34" d="m344.125,133.526l0,-0.902l9.797,0l0,0.902l-3.051,0l0,0.902l2.621,0l0,2.879l-5.629,0l1.031,0.086c-0.172,0.287 -0.358,0.559 -0.559,0.816l5.887,0l0,0.902l-2.062,0c-0.401,0.688 -0.874,1.218 -1.418,1.59c0.945,0.258 1.948,0.501 3.008,0.73l-0.473,0.988c-0.544,-0.172 -1.347,-0.43 -2.406,-0.773c-0.544,-0.172 -0.945,-0.301 -1.203,-0.387c-1.175,0.544 -2.908,0.945 -5.199,1.203c-0.029,-0.086 -0.101,-0.258 -0.215,-0.516c-0.086,-0.229 -0.144,-0.387 -0.172,-0.473c1.833,-0.172 3.165,-0.358 3.996,-0.559c-0.344,-0.114 -0.859,-0.272 -1.547,-0.473c-0.487,-0.143 -0.859,-0.258 -1.117,-0.344c0.172,-0.172 0.387,-0.415 0.645,-0.73c0.086,-0.114 0.157,-0.2 0.215,-0.258l-2.449,0l0,-0.902l3.18,0c0.2,-0.286 0.401,-0.587 0.602,-0.902l-3.051,0l0,-2.879l2.621,0l0,-0.902l-3.052,0l0,0.002zm1.46,1.805l0,1.117l1.59,0l0,-1.117l-1.59,0zm3.825,5.027c0.602,-0.344 1.06,-0.759 1.375,-1.246l-3.137,0c-0.058,0.058 -0.144,0.158 -0.258,0.301c-0.144,0.144 -0.244,0.258 -0.301,0.344c0.458,0.114 1.232,0.315 2.321,0.601zm-1.16,-6.832l0,0.902l1.547,0l0,-0.902l-1.547,0zm0,1.805l0,1.117l1.547,0l0,-1.117l-1.547,0zm4.253,0l-1.633,0l0,1.117l1.633,0l0,-1.117z" fill="#595757"/>
   <path id="svg_35" d="m355.683,142.42l0,-3.609c-0.058,0.058 -0.129,0.129 -0.215,0.215s-0.215,0.258 -0.387,0.516c-0.115,-0.344 -0.229,-0.716 -0.344,-1.117c0.659,-0.773 1.174,-1.618 1.547,-2.535l1.074,0.172c-0.029,0.086 -0.086,0.201 -0.172,0.344c-0.086,0.172 -0.158,0.301 -0.215,0.387l1.332,0l-0.258,-0.73l1.031,-0.129l0.301,0.859l1.418,0l0,0.73l-1.676,0l0,0.73l1.547,0l0,0.773l-1.547,0l0,0.73l1.59,0l0,0.773l-1.59,0l0,0.688l1.805,0l0,0.688l-4.254,0l0,0.516l-0.987,0l0,-0.001zm-0.215,-8.464l0,-0.816l2.062,0l0,-0.945l1.074,0l0,0.945l1.891,0l0,0.816l-1.891,0l0,0.816l2.621,0c0,-1.146 -0.015,-2.005 -0.043,-2.578l1.117,0c0,1.232 0.014,2.091 0.043,2.578l2.793,0l0,0.902l-2.75,0c0.028,1.318 0.129,2.32 0.301,3.008c0.43,-0.745 0.816,-1.518 1.16,-2.32l0.945,0.43c-0.63,1.347 -1.232,2.378 -1.805,3.094l0.086,0.129c0.2,0.802 0.444,1.203 0.73,1.203c0.143,0 0.229,-0.114 0.258,-0.344c0.086,-0.401 0.172,-0.945 0.258,-1.633c0.401,0.201 0.702,0.33 0.902,0.387c-0.086,0.773 -0.187,1.347 -0.301,1.719c-0.144,0.659 -0.516,1.002 -1.117,1.031c-0.688,0.028 -1.246,-0.473 -1.676,-1.504c-0.229,0.229 -0.516,0.458 -0.859,0.688c-0.058,-0.086 -0.158,-0.215 -0.301,-0.387c-0.172,-0.2 -0.287,-0.344 -0.344,-0.43c0.487,-0.344 0.874,-0.688 1.16,-1.031c-0.258,-1.088 -0.43,-2.435 -0.516,-4.039l-6.402,0l0,-0.902l2.664,0l0,-0.816l-2.06,0l0,-0.001zm1.203,3.566l0,0.73l1.418,0l0,-0.73l-1.418,0zm0,1.504l0,0.73l1.418,0l0,-0.73l-1.418,0zm0,1.504l0,0.688l1.418,0l0,-0.688l-1.418,0zm7.305,-6.016c-0.344,-0.43 -0.773,-0.917 -1.289,-1.461l0.73,-0.559c0.544,0.487 1.002,0.945 1.375,1.375l-0.816,0.645z" fill="#595757"/>
   <path id="svg_36" d="m365.91,141.776l0,-1.074l1.633,0l0,-6.488l1.246,0l0,6.488l2.363,0l0,-8.508l1.203,0l0,3.137l3.223,0l0,1.117l-3.223,0l0,4.254l3.781,0l0,1.074l-10.226,0z" fill="#595757"/>
  </g>
  <g id="svg_37">
   <path id="svg_38" d="m572.705,142.334l-0.73,-0.945c0.258,-0.229 0.387,-0.53 0.387,-0.902l0,-3.695l-1.117,0l0,-1.074l2.234,0l0,4.684c0.086,-0.057 0.2,-0.143 0.344,-0.258c0.401,-0.315 0.688,-0.544 0.859,-0.688c0,0.058 0.014,0.129 0.043,0.215c0.057,0.201 0.143,0.501 0.258,0.902c-0.716,0.487 -1.261,0.888 -1.633,1.203c-0.258,0.2 -0.473,0.387 -0.645,0.558zm0.473,-7.519c-0.115,-0.143 -0.258,-0.344 -0.43,-0.602c-0.43,-0.573 -0.773,-1.017 -1.031,-1.332l0.945,-0.602c0.143,0.172 0.344,0.416 0.602,0.73c0.401,0.458 0.702,0.831 0.902,1.117l-0.988,0.689zm7.949,1.848c-1.318,-0.831 -2.363,-1.833 -3.137,-3.008c-0.773,1.117 -1.876,2.148 -3.309,3.094c-0.201,-0.401 -0.416,-0.745 -0.645,-1.031c1.575,-0.917 2.764,-2.105 3.566,-3.566l1.246,0.129l-0.301,0.473c0.831,1.203 1.891,2.148 3.18,2.836c-0.058,0.115 -0.158,0.287 -0.301,0.516c-0.113,0.227 -0.213,0.414 -0.299,0.557zm-4.039,5.457c-1.117,0.028 -1.662,-0.487 -1.633,-1.547l0,-4.254l1.16,0l0,1.805c1.174,-0.487 2.206,-1.06 3.094,-1.719l0.73,0.902c-1.146,0.745 -2.421,1.404 -3.824,1.977l0,1.074c-0.029,0.573 0.258,0.845 0.859,0.816l1.461,0c0.573,0.029 0.888,-0.243 0.945,-0.816c0.086,-0.344 0.143,-0.831 0.172,-1.461c0.43,0.144 0.802,0.258 1.117,0.344c-0.086,0.659 -0.172,1.246 -0.258,1.762c-0.144,0.745 -0.73,1.117 -1.762,1.117l-2.061,0z" fill="#595757"/>
   <path id="svg_39" d="m582.33,134.987l0,-1.117l4.77,0c-0.172,-0.516 -0.373,-1.017 -0.602,-1.504l1.332,-0.215c0.086,0.287 0.229,0.702 0.43,1.246c0.086,0.201 0.143,0.358 0.172,0.473l4.082,0l0,1.117l-1.762,0c-0.43,1.805 -1.218,3.309 -2.363,4.512c1.117,0.745 2.521,1.318 4.211,1.719c-0.258,0.315 -0.501,0.673 -0.73,1.074c-1.919,-0.573 -3.409,-1.231 -4.469,-1.977c-0.859,0.63 -2.32,1.332 -4.383,2.105c-0.172,-0.315 -0.416,-0.702 -0.73,-1.16c1.719,-0.458 3.122,-1.045 4.211,-1.762c-1.175,-1.203 -1.977,-2.707 -2.406,-4.512l-1.763,0l0,0.001zm5.07,3.738c1.06,-0.974 1.747,-2.22 2.062,-3.738l-4.125,0c0.345,1.461 1.032,2.707 2.063,3.738z" fill="#595757"/>
   <path id="svg_40" d="m602.998,136.834c-0.544,-0.286 -1.031,-0.559 -1.461,-0.816l0,0.988l-2.492,0l0,1.375l3.223,0l0,1.074l-3.223,0l0,1.504l4.211,0l0,1.031l-9.625,0l0,-1.031l4.168,0l0,-1.504l-3.223,0l0,-1.074l3.223,0l0,-1.375l-2.449,0l0,-0.945c-0.458,0.315 -0.974,0.602 -1.547,0.859c-0.172,-0.286 -0.387,-0.616 -0.645,-0.988c2.234,-1.117 3.838,-2.392 4.812,-3.824l1.332,0.129l-0.172,0.301c1.146,1.375 2.649,2.449 4.512,3.223c-0.029,0.029 -0.058,0.086 -0.086,0.172c-0.257,0.429 -0.444,0.73 -0.558,0.901zm-4.512,-3.48c-0.773,0.945 -1.762,1.805 -2.965,2.578l5.887,0c-1.175,-0.716 -2.148,-1.575 -2.922,-2.578z" fill="#595757"/>
   <path id="svg_41" d="m604.33,134.987l0,-1.117l4.77,0c-0.172,-0.516 -0.373,-1.017 -0.602,-1.504l1.332,-0.215c0.086,0.287 0.229,0.702 0.43,1.246c0.086,0.201 0.143,0.358 0.172,0.473l4.082,0l0,1.117l-1.762,0c-0.43,1.805 -1.218,3.309 -2.363,4.512c1.117,0.745 2.521,1.318 4.211,1.719c-0.258,0.315 -0.501,0.673 -0.73,1.074c-1.919,-0.573 -3.409,-1.231 -4.469,-1.977c-0.859,0.63 -2.32,1.332 -4.383,2.105c-0.172,-0.315 -0.416,-0.702 -0.73,-1.16c1.719,-0.458 3.122,-1.045 4.211,-1.762c-1.175,-1.203 -1.977,-2.707 -2.406,-4.512l-1.763,0l0,0.001zm5.07,3.738c1.06,-0.974 1.747,-2.22 2.062,-3.738l-4.125,0c0.345,1.461 1.032,2.707 2.063,3.738z" fill="#595757"/>
   <path id="svg_42" d="m616.104,142.42l0,-3.609c-0.058,0.058 -0.129,0.129 -0.215,0.215s-0.215,0.258 -0.387,0.516c-0.115,-0.344 -0.229,-0.716 -0.344,-1.117c0.659,-0.773 1.174,-1.618 1.547,-2.535l1.074,0.172c-0.029,0.086 -0.086,0.201 -0.172,0.344c-0.086,0.172 -0.158,0.301 -0.215,0.387l1.332,0l-0.258,-0.73l1.031,-0.129l0.301,0.859l1.418,0l0,0.73l-1.676,0l0,0.73l1.547,0l0,0.773l-1.547,0l0,0.73l1.59,0l0,0.773l-1.59,0l0,0.688l1.805,0l0,0.688l-4.254,0l0,0.516l-0.987,0l0,-0.001zm-0.215,-8.464l0,-0.816l2.062,0l0,-0.945l1.074,0l0,0.945l1.891,0l0,0.816l-1.891,0l0,0.816l2.621,0c0,-1.146 -0.015,-2.005 -0.043,-2.578l1.117,0c0,1.232 0.014,2.091 0.043,2.578l2.793,0l0,0.902l-2.75,0c0.028,1.318 0.129,2.32 0.301,3.008c0.43,-0.745 0.816,-1.518 1.16,-2.32l0.945,0.43c-0.63,1.347 -1.232,2.378 -1.805,3.094l0.086,0.129c0.2,0.802 0.444,1.203 0.73,1.203c0.143,0 0.229,-0.114 0.258,-0.344c0.086,-0.401 0.172,-0.945 0.258,-1.633c0.401,0.201 0.702,0.33 0.902,0.387c-0.086,0.773 -0.187,1.347 -0.301,1.719c-0.144,0.659 -0.516,1.002 -1.117,1.031c-0.688,0.028 -1.246,-0.473 -1.676,-1.504c-0.229,0.229 -0.516,0.458 -0.859,0.688c-0.058,-0.086 -0.158,-0.215 -0.301,-0.387c-0.172,-0.2 -0.287,-0.344 -0.344,-0.43c0.487,-0.344 0.874,-0.688 1.16,-1.031c-0.258,-1.088 -0.43,-2.435 -0.516,-4.039l-6.402,0l0,-0.902l2.664,0l0,-0.816l-2.06,0l0,-0.001zm1.203,3.566l0,0.73l1.418,0l0,-0.73l-1.418,0zm0,1.504l0,0.73l1.418,0l0,-0.73l-1.418,0zm0,1.504l0,0.688l1.418,0l0,-0.688l-1.418,0zm7.304,-6.016c-0.344,-0.43 -0.773,-0.917 -1.289,-1.461l0.73,-0.559c0.544,0.487 1.002,0.945 1.375,1.375l-0.816,0.645z" fill="#595757"/>
   <path id="svg_43" d="m626.33,141.776l0,-1.074l1.633,0l0,-6.488l1.246,0l0,6.488l2.363,0l0,-8.508l1.203,0l0,3.137l3.223,0l0,1.117l-3.223,0l0,4.254l3.781,0l0,1.074l-10.226,0z" fill="#595757"/>
  </g>
  <g id="svg_44">
   <path id="svg_45" d="m209.871,248.33c0.109,6.29 -2.215,9.378 -6.973,9.27c-4.594,-0.11 -6.919,-3.171 -6.973,-9.188c0.164,-6.124 2.488,-9.296 6.973,-9.516c4.594,0.055 6.917,3.199 6.973,9.434zm-4.266,0.082c0.054,-4.43 -0.82,-6.589 -2.625,-6.48c-1.86,-0.054 -2.789,2.106 -2.789,6.48c0,4.212 0.929,6.316 2.789,6.316c1.805,0 2.679,-2.104 2.625,-6.316z" fill="#3FA304"/>
   <path id="svg_46" d="m225.703,253.58l-2.215,0l0,3.773l-3.527,0l0,-3.773l-8.859,0l0,-2.543l8.531,-11.812l3.855,0l0,11.484l2.215,0l0,2.871zm-5.661,-10.5c-0.164,0.383 -0.41,0.82 -0.738,1.312l-4.43,6.316l5.086,0l0,-5.742c0,-0.82 0.027,-1.448 0.082,-1.886z" fill="#3FA304"/>
   <path id="svg_47" d="m231.199,257.353l-4.266,0l0,-4.102l4.266,0l0,4.102z" fill="#3FA304"/>
   <path id="svg_48" d="m237.433,254.154l8.613,0l0,3.199l-13.371,0l0,-2.379c1.53,-2.297 3.308,-4.184 5.332,-5.66c2.843,-2.133 4.155,-3.718 3.938,-4.758c-0.055,-1.585 -0.875,-2.379 -2.461,-2.379c-1.641,-0.054 -2.653,0.958 -3.035,3.035l-3.691,-0.738c0.71,-3.663 3.144,-5.496 7.301,-5.496c3.773,0.164 5.796,1.887 6.07,5.168c0.273,2.297 -1.066,4.294 -4.02,5.988c-1.915,1.368 -3.474,2.707 -4.676,4.02z" fill="#3FA304"/>
   <path id="svg_49" d="m260.976,243.408l-3.773,0.656c-0.328,-1.477 -1.148,-2.187 -2.461,-2.133c-2.133,-0.054 -3.228,1.86 -3.281,5.742c0.929,-1.257 2.297,-1.914 4.102,-1.969c3.609,0.219 5.55,2.133 5.824,5.742c-0.219,3.938 -2.434,5.988 -6.645,6.152c-4.922,0.164 -7.329,-2.925 -7.219,-9.27c0.164,-6.124 2.543,-9.27 7.137,-9.434c3.445,0.002 5.549,1.507 6.316,4.514zm-3.445,8.285c-0.055,-1.914 -1.04,-2.898 -2.953,-2.953c-1.86,0.055 -2.844,0.984 -2.953,2.789c0.054,1.969 1.093,3.008 3.117,3.117c1.749,-0.164 2.678,-1.148 2.789,-2.953z" fill="#3FA304"/>
  </g>
  <g id="svg_50">
   <path id="svg_51" d="m325.207,114.244c0.109,6.29 -2.215,9.378 -6.973,9.27c-4.594,-0.11 -6.919,-3.171 -6.973,-9.188c0.164,-6.124 2.488,-9.296 6.973,-9.516c4.594,0.056 6.918,3.2 6.973,9.434zm-4.266,0.082c0.054,-4.43 -0.82,-6.589 -2.625,-6.48c-1.86,-0.054 -2.789,2.106 -2.789,6.48c0,4.212 0.929,6.316 2.789,6.316c1.805,0.001 2.679,-2.104 2.625,-6.316z" fill="#3FA304"/>
   <path id="svg_52" d="m333.656,123.186l-4.102,0c0.546,-5.031 2.515,-9.871 5.906,-14.52l-8.941,0l0,-3.281l13.371,0l0,2.871c-3.773,4.758 -5.852,9.735 -6.234,14.93z" fill="#3FA304"/>
   <path id="svg_53" d="m345.469,123.268l-4.266,0l0,-4.102l4.266,0l0,4.102z" fill="#3FA304"/>
   <path id="svg_54" d="m347.027,118.838l4.102,-0.82c0.273,1.751 1.284,2.625 3.035,2.625c1.694,-0.054 2.57,-0.902 2.625,-2.543c0.054,-1.694 -1.259,-2.543 -3.938,-2.543l-1.641,0l0,-3.035l1.559,0c2.406,0 3.609,-0.792 3.609,-2.379c-0.055,-1.53 -0.82,-2.297 -2.297,-2.297c-1.532,0.11 -2.489,0.984 -2.871,2.625l-3.855,-0.738c0.765,-3.226 3.117,-4.867 7.055,-4.922c3.773,0.11 5.796,1.696 6.07,4.758c0.054,2.243 -1.23,3.665 -3.855,4.266l0,0.082c2.625,0.438 4.046,1.915 4.266,4.43c-0.219,3.335 -2.543,5.058 -6.973,5.168c-3.72,0.216 -6.017,-1.342 -6.891,-4.677z" fill="#3FA304"/>
   <path id="svg_55" d="m376.23,114.244c0.109,6.29 -2.215,9.378 -6.973,9.27c-4.594,-0.11 -6.919,-3.171 -6.973,-9.188c0.164,-6.124 2.488,-9.296 6.973,-9.516c4.595,0.056 6.918,3.2 6.973,9.434zm-4.265,0.082c0.054,-4.43 -0.82,-6.589 -2.625,-6.48c-1.86,-0.054 -2.789,2.106 -2.789,6.48c0,4.212 0.929,6.316 2.789,6.316c1.805,0.001 2.679,-2.104 2.625,-6.316z" fill="#3FA304"/>
  </g>
  <g id="svg_56">
   <path id="svg_57" d="m442.443,248.33c0.109,6.29 -2.215,9.378 -6.973,9.27c-4.594,-0.11 -6.919,-3.171 -6.973,-9.188c0.164,-6.124 2.488,-9.296 6.973,-9.516c4.594,0.055 6.918,3.199 6.973,9.434zm-4.265,0.082c0.054,-4.43 -0.82,-6.589 -2.625,-6.48c-1.86,-0.054 -2.789,2.106 -2.789,6.48c0,4.212 0.929,6.316 2.789,6.316c1.804,0 2.678,-2.104 2.625,-6.316z" fill="#898989"/>
   <path id="svg_58" d="m447.857,248.001l0,-0.082c-2.188,-0.546 -3.31,-1.94 -3.363,-4.184c0.328,-3.062 2.488,-4.676 6.48,-4.84c3.991,0.164 6.152,1.778 6.48,4.84c0,2.188 -1.259,3.583 -3.773,4.184c2.734,0.547 4.155,2.024 4.266,4.43c-0.055,3.499 -2.516,5.25 -7.383,5.25c-4.266,-0.11 -6.48,-1.805 -6.645,-5.086c0.11,-2.35 1.422,-3.855 3.938,-4.512zm5.989,4.43c0.054,-1.477 -0.958,-2.461 -3.035,-2.953c-1.86,0.492 -2.789,1.45 -2.789,2.871c0.109,1.587 1.066,2.434 2.871,2.543c1.913,-0.054 2.898,-0.874 2.953,-2.461zm-0.492,-8.449c0,-1.421 -0.793,-2.133 -2.379,-2.133c-1.532,0.055 -2.325,0.767 -2.379,2.133c-0.055,1.204 0.738,2.024 2.379,2.461c1.585,-0.437 2.379,-1.257 2.379,-2.461z" fill="#898989"/>
   <path id="svg_59" d="m463.607,257.353l-4.266,0l0,-4.102l4.266,0l0,4.102z" fill="#898989"/>
   <path id="svg_60" d="m469.842,254.154l8.613,0l0,3.199l-13.371,0l0,-2.379c1.53,-2.297 3.308,-4.184 5.332,-5.66c2.843,-2.133 4.155,-3.718 3.938,-4.758c-0.055,-1.585 -0.875,-2.379 -2.461,-2.379c-1.641,-0.054 -2.653,0.958 -3.035,3.035l-3.691,-0.738c0.71,-3.663 3.144,-5.496 7.301,-5.496c3.773,0.164 5.796,1.887 6.07,5.168c0.273,2.297 -1.066,4.294 -4.02,5.988c-1.915,1.368 -3.474,2.707 -4.676,4.02z" fill="#898989"/>
   <path id="svg_61" d="m493.877,248.33c0.109,6.29 -2.215,9.378 -6.973,9.27c-4.594,-0.11 -6.919,-3.171 -6.973,-9.188c0.164,-6.124 2.488,-9.296 6.973,-9.516c4.594,0.055 6.918,3.199 6.973,9.434zm-4.266,0.082c0.054,-4.43 -0.82,-6.589 -2.625,-6.48c-1.86,-0.054 -2.789,2.106 -2.789,6.48c0,4.212 0.929,6.316 2.789,6.316c1.805,0 2.679,-2.104 2.625,-6.316z" fill="#898989"/>
  </g>
  <g id="svg_62">
   <path id="svg_63" d="m429.521,275.419l-0.73,-0.945c0.258,-0.229 0.387,-0.53 0.387,-0.902l0,-3.695l-1.117,0l0,-1.074l2.234,0l0,4.684c0.086,-0.057 0.2,-0.143 0.344,-0.258c0.401,-0.315 0.688,-0.544 0.859,-0.688c0,0.058 0.014,0.129 0.043,0.215c0.057,0.201 0.143,0.501 0.258,0.902c-0.716,0.487 -1.261,0.888 -1.633,1.203c-0.258,0.2 -0.473,0.387 -0.645,0.558zm0.473,-7.519c-0.115,-0.143 -0.258,-0.344 -0.43,-0.602c-0.43,-0.573 -0.773,-1.017 -1.031,-1.332l0.945,-0.602c0.143,0.172 0.344,0.416 0.602,0.73c0.401,0.458 0.702,0.831 0.902,1.117l-0.988,0.689zm7.949,1.848c-1.318,-0.831 -2.363,-1.833 -3.137,-3.008c-0.773,1.117 -1.876,2.148 -3.309,3.094c-0.201,-0.401 -0.416,-0.745 -0.645,-1.031c1.575,-0.917 2.764,-2.105 3.566,-3.566l1.246,0.129l-0.301,0.473c0.831,1.203 1.891,2.148 3.18,2.836c-0.058,0.115 -0.158,0.287 -0.301,0.516c-0.113,0.227 -0.213,0.413 -0.299,0.557zm-4.039,5.457c-1.117,0.028 -1.662,-0.487 -1.633,-1.547l0,-4.254l1.16,0l0,1.805c1.174,-0.487 2.206,-1.06 3.094,-1.719l0.73,0.902c-1.146,0.745 -2.421,1.404 -3.824,1.977l0,1.074c-0.029,0.573 0.258,0.845 0.859,0.816l1.461,0c0.573,0.029 0.888,-0.243 0.945,-0.816c0.086,-0.344 0.143,-0.831 0.172,-1.461c0.43,0.144 0.802,0.258 1.117,0.344c-0.086,0.659 -0.172,1.246 -0.258,1.762c-0.144,0.745 -0.73,1.117 -1.762,1.117l-2.061,0z" fill="#595757"/>
   <path id="svg_64" d="m439.146,268.072l0,-1.117l4.77,0c-0.172,-0.516 -0.373,-1.017 -0.602,-1.504l1.332,-0.215c0.086,0.287 0.229,0.702 0.43,1.246c0.086,0.201 0.143,0.358 0.172,0.473l4.082,0l0,1.117l-1.762,0c-0.43,1.805 -1.218,3.309 -2.363,4.512c1.117,0.745 2.521,1.318 4.211,1.719c-0.258,0.315 -0.501,0.673 -0.73,1.074c-1.919,-0.573 -3.409,-1.231 -4.469,-1.977c-0.859,0.63 -2.32,1.332 -4.383,2.105c-0.172,-0.315 -0.416,-0.702 -0.73,-1.16c1.719,-0.458 3.122,-1.045 4.211,-1.762c-1.175,-1.203 -1.977,-2.707 -2.406,-4.512l-1.763,0l0,0.001zm5.071,3.738c1.06,-0.974 1.747,-2.22 2.062,-3.738l-4.125,0c0.344,1.461 1.032,2.707 2.063,3.738z" fill="#595757"/>
   <path id="svg_65" d="m450.146,268.33l0,-1.074l1.074,0l0,-1.934l1.031,0l0,1.934l0.816,0l0,1.074l-0.816,0l0,1.891l0.902,-0.258c0,0.401 0,0.773 0,1.117c-0.229,0.029 -0.53,0.101 -0.902,0.215l0,2.793c0.028,0.831 -0.344,1.26 -1.117,1.289c-0.229,0.028 -0.516,0.043 -0.859,0.043c-0.029,-0.315 -0.086,-0.688 -0.172,-1.117c0.143,0.028 0.344,0.043 0.602,0.043c0.344,0.028 0.516,-0.143 0.516,-0.516l0,-2.234l-1.074,0.301l-0.129,-1.16c0.372,-0.086 0.773,-0.172 1.203,-0.258l0,-2.148l-1.075,0l0,-0.001zm3.094,-1.118l0,-0.902l3.008,0c-0.029,-0.114 -0.086,-0.272 -0.172,-0.473c-0.058,-0.229 -0.115,-0.387 -0.172,-0.473l1.203,-0.129c0.028,0.058 0.057,0.158 0.086,0.301c0.086,0.172 0.172,0.43 0.258,0.773l2.965,0l0,0.902l-2.277,0l0.859,0.172c-0.058,0.086 -0.144,0.215 -0.258,0.387c-0.172,0.258 -0.315,0.458 -0.43,0.602l1.676,0l0,5.93c0.028,0.716 -0.344,1.074 -1.117,1.074c-0.287,0 -0.673,0 -1.16,0c-0.029,-0.229 -0.101,-0.53 -0.215,-0.902c0.372,0 0.716,0 1.031,0c0.344,0 0.501,-0.129 0.473,-0.387l0,-4.855l-4.555,0l0,6.273l-0.945,0l0,-7.133l1.633,0c-0.258,-0.458 -0.473,-0.788 -0.645,-0.988l0.73,-0.172l-1.976,0zm1.676,3.739l0,-0.816l1.332,0l0,-0.645l0.945,0l0,0.645l1.375,0l0,0.816l-1.375,0l0,0.816l1.074,0l0,2.535l-3.094,0l0,-2.535l1.074,0l0,-0.816l-1.331,0zm1.375,-2.578l-0.086,0l0.988,0c0.028,-0.057 0.086,-0.143 0.172,-0.258c0.258,-0.401 0.43,-0.702 0.516,-0.902l-2.32,0c0.314,0.458 0.558,0.845 0.73,1.16zm-0.301,4.168l0,1.031l1.461,0l0,-1.031l-1.461,0z" fill="#595757"/>
   <path id="svg_66" d="m461.361,266.611l0,-0.902l9.797,0l0,0.902l-3.051,0l0,0.902l2.621,0l0,2.879l-5.628,0l1.031,0.086c-0.172,0.287 -0.358,0.559 -0.559,0.816l5.887,0l0,0.902l-2.062,0c-0.401,0.688 -0.874,1.218 -1.418,1.59c0.945,0.258 1.948,0.501 3.008,0.73l-0.473,0.988c-0.544,-0.172 -1.347,-0.43 -2.406,-0.773c-0.544,-0.172 -0.945,-0.301 -1.203,-0.387c-1.175,0.544 -2.908,0.945 -5.199,1.203c-0.029,-0.086 -0.101,-0.258 -0.215,-0.516c-0.086,-0.229 -0.144,-0.387 -0.172,-0.473c1.833,-0.172 3.165,-0.358 3.996,-0.559c-0.344,-0.114 -0.859,-0.272 -1.547,-0.473c-0.487,-0.143 -0.859,-0.258 -1.117,-0.344c0.172,-0.172 0.387,-0.415 0.645,-0.73c0.086,-0.114 0.157,-0.2 0.215,-0.258l-2.449,0l0,-0.902l3.18,0c0.2,-0.286 0.401,-0.587 0.602,-0.902l-3.051,0l0,-2.879l2.621,0l0,-0.902l-3.053,0l0,0.002zm1.461,1.805l0,1.117l1.59,0l0,-1.117l-1.59,0zm3.824,5.027c0.602,-0.344 1.06,-0.759 1.375,-1.246l-3.137,0c-0.058,0.058 -0.144,0.158 -0.258,0.301c-0.144,0.144 -0.244,0.258 -0.301,0.344c0.459,0.114 1.233,0.315 2.321,0.601zm-1.16,-6.832l0,0.902l1.547,0l0,-0.902l-1.547,0zm0,1.805l0,1.117l1.547,0l0,-1.117l-1.547,0zm4.254,0l-1.633,0l0,1.117l1.633,0l0,-1.117z" fill="#595757"/>
   <path id="svg_67" d="m473.393,268.544l0,-0.902l6.402,0l0,-0.945l-6.66,0l0,-0.945l7.777,0l0,3.738l1.504,0l0,0.945l-4.512,0l0,0.258c0.344,0.544 0.673,1.003 0.988,1.375c0.773,-0.458 1.461,-0.945 2.062,-1.461l0.773,0.859c-0.172,0.115 -0.444,0.287 -0.816,0.516c-0.516,0.344 -0.917,0.602 -1.203,0.773c0.716,0.487 1.633,0.874 2.75,1.16c-0.058,0.086 -0.129,0.215 -0.215,0.387c-0.086,0.086 -0.215,0.301 -0.387,0.645c-1.891,-0.573 -3.208,-1.432 -3.953,-2.578l0,1.59c0.057,0.945 -0.401,1.432 -1.375,1.461c-0.573,0 -1.003,0.014 -1.289,0.043c-0.029,-0.201 -0.086,-0.473 -0.172,-0.816c-0.029,-0.115 -0.058,-0.201 -0.086,-0.258c0.344,0 0.702,0 1.074,0c0.516,0.028 0.759,-0.186 0.73,-0.645l0,-0.859l-4.34,1.848l-0.387,-1.074c0.114,-0.028 0.286,-0.1 0.516,-0.215c0.458,-0.172 1.16,-0.444 2.105,-0.816c-0.258,-0.2 -0.716,-0.516 -1.375,-0.945c-0.201,-0.143 -0.358,-0.258 -0.473,-0.344l0.645,-0.773c0.172,0.115 0.43,0.272 0.773,0.473c0.516,0.315 0.902,0.559 1.16,0.73l-0.688,0.859c0.688,-0.315 1.375,-0.616 2.062,-0.902l0,-1.289l-4.684,0l0,-0.945l7.691,0l0,-0.945l-6.397,0l0,-0.003z" fill="#595757"/>
   <path id="svg_68" d="m484.092,275.591c-0.115,-0.058 -0.287,-0.158 -0.516,-0.301c-0.258,-0.144 -0.444,-0.258 -0.559,-0.344c0.43,-0.659 0.716,-1.303 0.859,-1.934c0.143,-0.63 0.215,-1.575 0.215,-2.836l0,-4.383l8.766,0l0,8.207c0.057,0.945 -0.416,1.403 -1.418,1.375c-0.373,0.028 -0.831,0.043 -1.375,0.043c-0.029,-0.086 -0.058,-0.215 -0.086,-0.387c-0.058,-0.315 -0.115,-0.559 -0.172,-0.73c0.143,0 0.344,0.014 0.602,0.043c0.258,0 0.444,0 0.559,0c0.516,0.028 0.759,-0.157 0.73,-0.559l0,-1.418l-2.707,0l0,2.922l-1.16,0l0,-2.922l-2.621,0c-0.058,1.033 -0.43,2.107 -1.117,3.224zm1.203,-5.414c0,0.144 -0.015,0.358 -0.043,0.645c0,0.229 0,0.401 0,0.516l2.578,0l0,-1.719l-2.535,0l0,0.558zm0,-3.308l0,1.719l2.535,0l0,-1.719l-2.535,0zm6.402,0l-2.707,0l0,1.719l2.707,0l0,-1.719zm-2.707,2.75l0,1.719l2.707,0l0,-1.719l-2.707,0z" fill="#595757"/>
   <path id="svg_69" d="m494.318,266.998l0,-0.945l3.609,0l0,0.945l-1.375,0c-0.172,0.745 -0.401,1.461 -0.688,2.148l1.719,0l0,5.113l-1.762,0l0,0.73l-0.902,0l0,-3.867c-0.058,0.086 -0.144,0.229 -0.258,0.43c-0.144,0.172 -0.244,0.315 -0.301,0.43c-0.115,-0.43 -0.244,-0.831 -0.387,-1.203c0.716,-1.06 1.217,-2.32 1.504,-3.781l-1.159,0zm2.45,6.316l0,-3.223l-0.945,0l0,3.223l0.945,0zm1.418,-4.383c-0.058,-0.086 -0.172,-0.229 -0.344,-0.43c-0.144,-0.143 -0.244,-0.243 -0.301,-0.301c0.888,-0.859 1.633,-1.862 2.234,-3.008l1.16,0.129l-0.473,0.816l2.75,0l0,0.945l-0.773,0.945l1.676,0l0,6.145c0.028,0.802 -0.315,1.203 -1.031,1.203c-0.258,0.028 -0.544,0.043 -0.859,0.043c-0.058,-0.258 -0.129,-0.573 -0.215,-0.945c0.2,0 0.415,0 0.645,0c0.372,0.028 0.544,-0.115 0.516,-0.43l0,-0.988l-1.418,0l0,2.062l-0.988,0l0,-2.062l-1.461,0c-0.086,0.888 -0.387,1.719 -0.902,2.492c-0.287,-0.201 -0.587,-0.416 -0.902,-0.645c0.401,-0.516 0.645,-1.017 0.73,-1.504c0.114,-0.516 0.172,-1.346 0.172,-2.492l0,-2.148l-0.216,0.173zm3.824,-1.89l-2.105,0c-0.258,0.315 -0.53,0.645 -0.816,0.988l2.105,0l0.816,-0.988zm-2.621,3.953c0,0.458 -0.015,0.874 -0.043,1.246l1.418,0l0,-1.246l-1.375,0zm0,-2.063l0,1.203l1.375,0l0,-1.203l-1.375,0zm3.781,0l-1.418,0l0,1.203l1.418,0l0,-1.203zm-1.418,2.063l0,1.246l1.418,0l0,-1.246l-1.418,0z" fill="#595757"/>
   <path id="svg_70" d="m506.65,274.861l-0.773,-0.816c0.258,-0.344 0.387,-0.688 0.387,-1.031l0,-3.223l-1.203,0l0,-1.074l2.32,0l0,3.91c0.229,-0.172 0.702,-0.616 1.418,-1.332c0.086,0.401 0.2,0.773 0.344,1.117c-0.745,0.688 -1.347,1.261 -1.805,1.719c-0.316,0.286 -0.545,0.529 -0.688,0.73zm0.86,-6.961c-0.43,-0.516 -0.974,-1.131 -1.633,-1.848l0.902,-0.688c0.544,0.544 1.117,1.132 1.719,1.762l-0.988,0.774zm1.375,7.648c-0.258,-0.401 -0.516,-0.745 -0.773,-1.031c1.977,-1.461 2.965,-3.709 2.965,-6.746c0,-0.315 0.014,-0.816 0.043,-1.504c0,-0.43 0,-0.716 0,-0.859l1.203,0c0,0.773 -0.015,1.361 -0.043,1.762c0.286,3.523 1.346,5.901 3.18,7.133c-0.086,0.086 -0.215,0.258 -0.387,0.516c-0.201,0.258 -0.344,0.444 -0.43,0.559c-1.461,-1.174 -2.392,-2.836 -2.793,-4.984c-0.344,2.003 -1.332,3.722 -2.965,5.154z" fill="#595757"/>
   <path id="svg_71" d="m428.061,288.891l0,-1.117l7.477,0l0,1.117l-7.477,0zm4.769,2.578c-0.029,-0.373 -0.115,-0.759 -0.258,-1.16c0.688,0.029 1.403,0.043 2.148,0.043c1.002,0.029 1.504,-0.344 1.504,-1.117c0.114,-0.945 0.172,-1.891 0.172,-2.836l-6.918,0l0.43,-5.027l1.246,0l-0.129,1.418l7.262,0l0,1.117l-7.348,0l-0.129,1.418l6.918,0c-0.029,0.63 -0.101,1.69 -0.215,3.18c-0.029,0.401 -0.043,0.702 -0.043,0.902c0,1.403 -0.773,2.091 -2.32,2.062c-0.831,0 -1.604,0 -2.32,0z" fill="#595757"/>
   <path id="svg_72" d="m448.814,286.012c-0.544,-0.286 -1.031,-0.559 -1.461,-0.816l0,0.988l-2.492,0l0,1.375l3.223,0l0,1.074l-3.223,0l0,1.504l4.211,0l0,1.031l-9.625,0l0,-1.031l4.168,0l0,-1.504l-3.223,0l0,-1.074l3.223,0l0,-1.375l-2.449,0l0,-0.945c-0.458,0.315 -0.974,0.602 -1.547,0.859c-0.172,-0.286 -0.387,-0.616 -0.645,-0.988c2.234,-1.117 3.838,-2.392 4.812,-3.824l1.332,0.129l-0.172,0.301c1.146,1.375 2.649,2.449 4.512,3.223c-0.029,0.029 -0.058,0.086 -0.086,0.172c-0.257,0.428 -0.443,0.729 -0.558,0.901zm-4.511,-3.481c-0.773,0.945 -1.762,1.805 -2.965,2.578l5.887,0c-1.175,-0.715 -2.149,-1.575 -2.922,-2.578z" fill="#595757"/>
   <path id="svg_73" d="m450.146,284.164l0,-1.117l4.77,0c-0.172,-0.516 -0.373,-1.017 -0.602,-1.504l1.332,-0.215c0.086,0.287 0.229,0.702 0.43,1.246c0.086,0.201 0.143,0.358 0.172,0.473l4.082,0l0,1.117l-1.762,0c-0.43,1.805 -1.218,3.309 -2.363,4.512c1.117,0.745 2.521,1.318 4.211,1.719c-0.258,0.315 -0.501,0.673 -0.73,1.074c-1.919,-0.573 -3.409,-1.231 -4.469,-1.977c-0.859,0.63 -2.32,1.332 -4.383,2.105c-0.172,-0.315 -0.416,-0.702 -0.73,-1.16c1.719,-0.458 3.122,-1.045 4.211,-1.762c-1.175,-1.203 -1.977,-2.707 -2.406,-4.512l-1.763,0l0,0.001zm5.071,3.738c1.06,-0.974 1.747,-2.22 2.062,-3.738l-4.125,0c0.344,1.461 1.032,2.707 2.063,3.738z" fill="#595757"/>
   <path id="svg_74" d="m461.189,284.336l0,-1.031l1.203,0l0,-1.891l1.031,0l0,1.891l1.16,0l0,1.031l-1.16,0l0,1.891l1.074,-0.215c-0.029,0.43 -0.029,0.788 0,1.074l-1.074,0.258l0,2.922c0.028,0.831 -0.33,1.246 -1.074,1.246c-0.258,0.028 -0.602,0.043 -1.031,0.043c-0.029,-0.229 -0.072,-0.53 -0.129,-0.902c-0.029,-0.115 -0.043,-0.187 -0.043,-0.215c0.086,0 0.329,0 0.73,0c0.372,0.028 0.544,-0.129 0.516,-0.473l0,-2.32l-1.289,0.344l-0.086,-1.203c0.114,-0.028 0.286,-0.071 0.516,-0.129c0.372,-0.086 0.659,-0.143 0.859,-0.172l0,-2.148l-1.203,0l0,-0.001zm9.711,7.219c-1.232,-0.344 -2.277,-0.759 -3.137,-1.246c-0.831,0.487 -1.891,0.931 -3.18,1.332c-0.058,-0.115 -0.144,-0.287 -0.258,-0.516c-0.144,-0.229 -0.244,-0.401 -0.301,-0.516c1.146,-0.229 2.105,-0.573 2.879,-1.031c-0.716,-0.716 -1.261,-1.504 -1.633,-2.363l0.473,-0.258l-0.73,0l0,-1.031l5.629,0l0,1.074c-0.458,0.974 -1.103,1.833 -1.934,2.578c0.773,0.458 1.704,0.773 2.793,0.945c-0.115,0.172 -0.287,0.458 -0.516,0.859c-0.027,0.087 -0.056,0.144 -0.085,0.173zm-5.757,-5.887c-0.258,-0.344 -0.487,-0.645 -0.688,-0.902c0.974,-0.43 1.418,-1.146 1.332,-2.148l0,-0.816l4.211,0l0,1.805c-0.029,0.43 0.157,0.63 0.559,0.602l0.902,0c-0.058,0.201 -0.115,0.487 -0.172,0.859c0,0.058 0,0.101 0,0.129l-1.16,0c-0.859,0.029 -1.275,-0.358 -1.246,-1.16l0,-1.246l-2.02,0l0,0.301c0.057,1.087 -0.515,1.946 -1.718,2.576zm4.253,1.289l-3.094,0c0.401,0.802 0.902,1.461 1.504,1.977c0.716,-0.544 1.247,-1.204 1.59,-1.977z" fill="#595757"/>
   <path id="svg_75" d="m472.318,283.004c0,-0.114 -0.015,-0.272 -0.043,-0.473c-0.029,-0.229 -0.058,-0.387 -0.086,-0.473c0.63,-0.028 1.518,-0.086 2.664,-0.172c0.2,-0.028 0.358,-0.043 0.473,-0.043l0.172,0.945c-0.029,0 -0.072,0 -0.129,0c-0.287,0.058 -0.602,0.086 -0.945,0.086l0,1.59l1.16,0l0,0.988l-1.16,0l0,0.73c0.086,0.058 0.2,0.144 0.344,0.258c0.401,0.344 0.716,0.616 0.945,0.816l-0.516,0.902l-0.773,-0.816l0,4.297l-0.988,0l0,-4.125c-0.315,0.802 -0.688,1.519 -1.117,2.148c-0.029,-0.114 -0.072,-0.286 -0.129,-0.516c-0.086,-0.315 -0.158,-0.544 -0.215,-0.688c0.63,-0.945 1.103,-1.948 1.418,-3.008l-1.246,0l0,-0.988l1.289,0l0,-1.504l-1.118,0.046zm3.481,0.215l0,-0.859l2.621,0l-0.215,-0.902l1.16,-0.086c0.057,0.315 0.129,0.645 0.215,0.988l2.75,0l0,0.859l-6.531,0zm0,8.379l0,-4.941l6.316,0l0,3.738c0.057,0.773 -0.301,1.16 -1.074,1.16c-0.344,0 -0.702,0 -1.074,0c0,-0.029 -0.015,-0.086 -0.043,-0.172c-0.029,-0.315 -0.072,-0.559 -0.129,-0.73c0.114,0.028 0.401,0.043 0.859,0.043c0.344,0.028 0.501,-0.101 0.473,-0.387l0,-2.793l-4.34,0l0,4.082l-0.988,0zm0.644,-5.543l0,-2.234l5.027,0l0,2.234l-5.027,0zm0.989,-1.504l0,0.773l3.051,0l0,-0.773l-3.051,0zm0.086,5.844l0,-2.234l2.836,0l0,2.234l-2.836,0zm0.816,-1.547l0,0.902l1.246,0l0,-0.902l-1.246,0z" fill="#595757"/>
   <path id="svg_76" d="m483.662,283.09l0,-1.117l9.367,0l0,1.117l-1.891,0l0,2.836l2.32,0l0,1.117l-2.32,0l0,4.469l-1.203,0l0,-4.469l-3.051,0c0.028,2.091 -0.859,3.638 -2.664,4.641c-0.172,-0.201 -0.473,-0.516 -0.902,-0.945c1.633,-0.773 2.42,-2.005 2.363,-3.695l-2.535,0l0,-1.117l2.535,0l0,-2.836l-2.019,0l0,-0.001zm3.223,0l0,2.836l3.051,0l0,-2.836l-3.051,0z" fill="#595757"/>
   <path id="svg_77" d="m497.713,290.652l-1.074,-0.902c-0.458,0.573 -1.103,1.188 -1.934,1.848l-0.73,-0.859c0.802,-0.573 1.418,-1.16 1.848,-1.762l-1.504,-1.375c0.229,-0.831 0.444,-1.891 0.645,-3.18l-0.902,0l0,-1.031l1.074,0c0.086,-0.688 0.172,-1.375 0.258,-2.062l1.117,0.129c-0.086,0.401 -0.172,0.96 -0.258,1.676c0.057,-0.43 0.043,-0.344 -0.043,0.258l1.977,0l0,1.031c-0.144,1.948 -0.458,3.409 -0.945,4.383l1.246,1.074l-0.775,0.772zm-0.559,-6.23l-1.117,0c-0.172,1.089 -0.373,2.048 -0.602,2.879c0.114,0.086 0.272,0.215 0.473,0.387c0.229,0.172 0.387,0.301 0.473,0.387c0.401,-0.831 0.659,-2.049 0.773,-3.653zm1.504,1.504l-0.473,-1.074c0.258,-0.143 0.516,-0.387 0.773,-0.73c0.516,-0.716 1.06,-1.647 1.633,-2.793l1.16,0.43c-0.802,1.261 -1.49,2.263 -2.062,3.008c0.487,-0.028 1.303,-0.071 2.449,-0.129c-0.172,0.029 0,0.029 0.516,0c-0.058,-0.114 -0.158,-0.272 -0.301,-0.473c-0.229,-0.401 -0.401,-0.702 -0.516,-0.902l0.902,-0.473c0.43,0.63 0.959,1.519 1.59,2.664c0.086,0.172 0.157,0.301 0.215,0.387l-0.988,0.516c-0.115,-0.229 -0.244,-0.473 -0.387,-0.73c-1.748,0.058 -2.922,0.115 -3.523,0.172c-0.401,-0.002 -0.73,0.041 -0.988,0.127zm0.086,5.715l0,-4.727l5.07,0l0,4.727l-1.117,0l0,-0.645l-2.836,0l0,0.645l-1.117,0zm1.117,-3.739l0,2.148l2.836,0l0,-2.148l-2.836,0z" fill="#595757"/>
  </g>
  <g id="svg_78">
   <path id="svg_79" d="m585.627,112.243c0.109,6.29 -2.215,9.378 -6.973,9.27c-4.594,-0.11 -6.919,-3.171 -6.973,-9.188c0.164,-6.124 2.488,-9.296 6.973,-9.516c4.594,0.055 6.918,3.199 6.973,9.434zm-4.266,0.082c0.054,-4.43 -0.82,-6.589 -2.625,-6.48c-1.86,-0.054 -2.789,2.106 -2.789,6.48c0,4.212 0.929,6.316 2.789,6.316c1.805,0 2.679,-2.104 2.625,-6.316z" fill="#898989"/>
   <path id="svg_80" d="m587.432,117.083l3.691,-0.574c0.328,1.423 1.175,2.133 2.543,2.133c2.078,0.055 3.171,-1.858 3.281,-5.742c-0.931,1.204 -2.297,1.833 -4.102,1.887c-3.665,-0.164 -5.578,-2.022 -5.742,-5.578c0.273,-4.046 2.515,-6.179 6.727,-6.398c4.867,-0.164 7.219,2.899 7.055,9.188c0,6.29 -2.434,9.46 -7.301,9.516c-3.445,-0.003 -5.496,-1.479 -6.152,-4.432zm9.351,-8.04c-0.055,-2.078 -1.066,-3.144 -3.035,-3.199c-1.751,0.11 -2.68,1.148 -2.789,3.117c0.054,1.86 1.011,2.844 2.871,2.953c1.914,-0.053 2.898,-1.011 2.953,-2.871z" fill="#898989"/>
   <path id="svg_81" d="m606.545,121.266l-4.266,0l0,-4.102l4.266,0l0,4.102z" fill="#898989"/>
   <path id="svg_82" d="m612.779,118.067l8.613,0l0,3.199l-13.371,0l0,-2.379c1.53,-2.297 3.308,-4.184 5.332,-5.66c2.843,-2.133 4.155,-3.718 3.938,-4.758c-0.055,-1.585 -0.875,-2.379 -2.461,-2.379c-1.641,-0.054 -2.653,0.958 -3.035,3.035l-3.691,-0.738c0.71,-3.663 3.144,-5.496 7.301,-5.496c3.773,0.164 5.796,1.887 6.07,5.168c0.273,2.297 -1.066,4.294 -4.02,5.988c-1.915,1.368 -3.474,2.707 -4.676,4.02z" fill="#898989"/>
   <path id="svg_83" d="m636.814,112.243c0.109,6.29 -2.215,9.378 -6.973,9.27c-4.594,-0.11 -6.919,-3.171 -6.973,-9.188c0.164,-6.124 2.488,-9.296 6.973,-9.516c4.595,0.055 6.918,3.199 6.973,9.434zm-4.265,0.082c0.054,-4.43 -0.82,-6.589 -2.625,-6.48c-1.86,-0.054 -2.789,2.106 -2.789,6.48c0,4.212 0.929,6.316 2.789,6.316c1.805,0 2.679,-2.104 2.625,-6.316z" fill="#898989"/>
  </g>
  <g id="svg_84">
   <path id="svg_85" d="m693.258,257.353l-4.02,0l0,-12.633c-1.805,1.312 -3.72,2.297 -5.742,2.953l0,-3.445c2.898,-1.093 5.113,-2.761 6.645,-5.004l3.117,0l0,18.129z" fill="#898989"/>
   <path id="svg_86" d="m709.829,248.33c0.109,6.29 -2.215,9.378 -6.973,9.27c-4.594,-0.11 -6.919,-3.171 -6.973,-9.188c0.164,-6.124 2.488,-9.296 6.973,-9.516c4.594,0.055 6.917,3.199 6.973,9.434zm-4.266,0.082c0.054,-4.43 -0.82,-6.589 -2.625,-6.48c-1.86,-0.054 -2.789,2.106 -2.789,6.48c0,4.212 0.929,6.316 2.789,6.316c1.805,0 2.679,-2.104 2.625,-6.316z" fill="#898989"/>
   <path id="svg_87" d="m715.653,257.353l-4.266,0l0,-4.102l4.266,0l0,4.102z" fill="#898989"/>
   <path id="svg_88" d="m726.727,257.353l-4.02,0l0,-12.633c-1.805,1.312 -3.72,2.297 -5.742,2.953l0,-3.445c2.898,-1.093 5.113,-2.761 6.645,-5.004l3.117,0l0,18.129z" fill="#898989"/>
   <path id="svg_89" d="m733.29,248.001l0,-0.082c-2.188,-0.546 -3.31,-1.94 -3.363,-4.184c0.328,-3.062 2.488,-4.676 6.48,-4.84c3.991,0.164 6.152,1.778 6.48,4.84c0,2.188 -1.259,3.583 -3.773,4.184c2.734,0.547 4.155,2.024 4.266,4.43c-0.055,3.499 -2.516,5.25 -7.383,5.25c-4.266,-0.11 -6.48,-1.805 -6.645,-5.086c0.109,-2.35 1.421,-3.855 3.938,-4.512zm5.988,4.43c0.054,-1.477 -0.958,-2.461 -3.035,-2.953c-1.86,0.492 -2.789,1.45 -2.789,2.871c0.109,1.587 1.066,2.434 2.871,2.543c1.913,-0.054 2.898,-0.874 2.953,-2.461zm-0.492,-8.449c0,-1.421 -0.793,-2.133 -2.379,-2.133c-1.532,0.055 -2.325,0.767 -2.379,2.133c-0.055,1.204 0.738,2.024 2.379,2.461c1.585,-0.437 2.379,-1.257 2.379,-2.461z" fill="#898989"/>
   <path id="svg_90" d="m756.094,249.724l-11.484,0l0,-2.789l11.484,0l0,2.789z" fill="#898989"/>
   <path id="svg_91" d="m766.922,257.353l-4.02,0l0,-12.633c-1.805,1.312 -3.72,2.297 -5.742,2.953l0,-3.445c2.898,-1.093 5.113,-2.761 6.645,-5.004l3.117,0l0,18.129z" fill="#898989"/>
   <path id="svg_92" d="m783.493,248.33c0.109,6.29 -2.215,9.378 -6.973,9.27c-4.594,-0.11 -6.919,-3.171 -6.973,-9.188c0.164,-6.124 2.488,-9.296 6.973,-9.516c4.594,0.055 6.918,3.199 6.973,9.434zm-4.266,0.082c0.054,-4.43 -0.82,-6.589 -2.625,-6.48c-1.86,-0.054 -2.789,2.106 -2.789,6.48c0,4.212 0.929,6.316 2.789,6.316c1.805,0 2.679,-2.104 2.625,-6.316z" fill="#898989"/>
   <path id="svg_93" d="m789.317,257.353l-4.266,0l0,-4.102l4.266,0l0,4.102z" fill="#898989"/>
   <path id="svg_94" d="m795.551,254.154l8.613,0l0,3.199l-13.371,0l0,-2.379c1.53,-2.297 3.308,-4.184 5.332,-5.66c2.843,-2.133 4.155,-3.718 3.938,-4.758c-0.055,-1.585 -0.875,-2.379 -2.461,-2.379c-1.641,-0.054 -2.653,0.958 -3.035,3.035l-3.691,-0.738c0.71,-3.663 3.144,-5.496 7.301,-5.496c3.773,0.164 5.796,1.887 6.07,5.168c0.273,2.297 -1.066,4.294 -4.02,5.988c-1.915,1.368 -3.474,2.707 -4.676,4.02z" fill="#898989"/>
   <path id="svg_95" d="m815.239,257.353l-4.02,0l0,-12.633c-1.805,1.312 -3.72,2.297 -5.742,2.953l0,-3.445c2.898,-1.093 5.113,-2.761 6.645,-5.004l3.117,0l0,18.129z" fill="#898989"/>
  </g>
  <g id="svg_96">
   <rect id="svg_97" height="2" width="92.592" fill="#3FA304" y="185.582" x="112.833"/>
  </g>
  <g id="svg_98">
   <path id="svg_99" d="m59.77,188.688l5.797,0l0,1.258l-7.82,0l0,-0.93c0.766,-1.422 1.932,-2.734 3.5,-3.938c1.859,-1.312 2.716,-2.37 2.57,-3.172c-0.037,-1.239 -0.729,-1.877 -2.078,-1.914c-1.203,0 -1.969,0.711 -2.297,2.133l-1.531,-0.492c0.547,-2.005 1.914,-3.008 4.102,-3.008c2.224,0.073 3.409,1.112 3.555,3.117c0.182,1.312 -0.711,2.607 -2.68,3.883c-1.387,0.948 -2.426,1.969 -3.118,3.063z" fill="#FFFFFF"/>
   <path id="svg_100" d="m71.09,178.625c2.625,0.037 3.956,1.969 3.992,5.797c0,3.865 -1.331,5.778 -3.992,5.742c-2.662,-0.037 -4.011,-1.95 -4.047,-5.742c0.073,-3.755 1.422,-5.688 4.047,-5.797zm0,10.336c1.495,0.037 2.242,-1.458 2.242,-4.484c0.036,-3.099 -0.711,-4.612 -2.242,-4.539c-1.495,-0.036 -2.242,1.477 -2.242,4.539c0,3.026 0.747,4.521 2.242,4.484z" fill="#FFFFFF"/>
   <path id="svg_101" d="m79.621,190l0,-8.75c-0.839,0.802 -1.987,1.513 -3.445,2.133c0,-0.51 0,-1.002 0,-1.477c1.896,-0.875 3.172,-1.95 3.828,-3.227l1.258,0l0,11.321l-1.641,0z" fill="#FFFFFF"/>
   <path id="svg_102" d="m86.129,184.203l0,-0.055c-1.24,-0.401 -1.896,-1.239 -1.969,-2.516c0.182,-1.896 1.422,-2.898 3.719,-3.008c2.224,0.109 3.445,1.112 3.664,3.008c-0.037,1.349 -0.729,2.188 -2.078,2.516l0,0.055c1.567,0.365 2.388,1.312 2.461,2.844c-0.037,2.042 -1.44,3.081 -4.211,3.117c-2.552,-0.073 -3.865,-1.112 -3.938,-3.117c0.11,-1.495 0.893,-2.443 2.352,-2.844zm1.75,4.813c1.495,-0.036 2.26,-0.692 2.297,-1.969c-0.037,-1.276 -0.839,-2.005 -2.406,-2.188c-1.422,0.146 -2.169,0.857 -2.242,2.133c0.035,1.313 0.82,1.987 2.351,2.024zm0,-9.188c-1.24,0.073 -1.896,0.675 -1.969,1.805c0,1.13 0.656,1.769 1.969,1.914c1.239,-0.182 1.877,-0.802 1.914,-1.859c-0.037,-1.204 -0.675,-1.823 -1.914,-1.86z" fill="#FFFFFF"/>
  </g>
  <g id="svg_103">
   <circle id="svg_104" r="21.006" cy="184.667" cx="733.869" fill="#898989"/>
  </g>
  <g id="svg_105">
   <rect id="svg_106" height="25.845" width="2" fill="#898989" y="173.66" x="928.824"/>
  </g>
  <g id="svg_107">
   <g id="svg_108">
    <g id="svg_109">
     <circle id="svg_110" r="3.785" cy="186.582" cx="942.175" fill="#B5B5B6"/>
    </g>
    <g id="svg_111">
     <path id="svg_112" d="m942.175,191.367c-2.639,0 -4.785,-2.146 -4.785,-4.785s2.146,-4.785 4.785,-4.785s4.785,2.146 4.785,4.785s-2.146,4.785 -4.785,4.785zm0,-7.57c-1.536,0 -2.785,1.25 -2.785,2.785s1.25,2.785 2.785,2.785s2.785,-1.25 2.785,-2.785s-1.249,-2.785 -2.785,-2.785z" fill="#FFFFFF"/>
    </g>
   </g>
   <g id="svg_113">
    <g id="svg_114">
     <circle id="svg_115" r="3.785" cy="186.582" cx="952.864" fill="#B5B5B6"/>
    </g>
    <g id="svg_116">
     <path id="svg_117" d="m952.864,191.367c-2.639,0 -4.785,-2.146 -4.785,-4.785s2.146,-4.785 4.785,-4.785s4.785,2.146 4.785,4.785s-2.146,4.785 -4.785,4.785zm0,-7.57c-1.536,0 -2.785,1.25 -2.785,2.785s1.25,2.785 2.785,2.785s2.785,-1.25 2.785,-2.785s-1.249,-2.785 -2.785,-2.785z" fill="#FFFFFF"/>
    </g>
   </g>
   <g id="svg_118">
    <g id="svg_119">
     <circle id="svg_120" r="3.785" cy="186.582" cx="963.075" fill="#B5B5B6"/>
    </g>
    <g id="svg_121">
     <path id="svg_122" d="m963.075,191.367c-2.639,0 -4.785,-2.146 -4.785,-4.785s2.146,-4.785 4.785,-4.785s4.785,2.146 4.785,4.785s-2.146,4.785 -4.785,4.785zm0,-7.57c-1.536,0 -2.785,1.25 -2.785,2.785s1.25,2.785 2.785,2.785s2.785,-1.25 2.785,-2.785s-1.249,-2.785 -2.785,-2.785z" fill="#FFFFFF"/>
    </g>
   </g>
  </g>
  <g id="svg_123">
   <path id="svg_124" d="m107.858,210.589l-66.722,0c-2.781,0 -5.044,-2.263 -5.044,-5.044l0,-39.09c0,-2.781 2.263,-5.044 5.044,-5.044l66.723,0c2.781,0 5.044,2.263 5.044,5.044l0,39.09c-0.001,2.781 -2.263,5.044 -5.045,5.044zm-66.722,-47.178c-1.678,0 -3.044,1.366 -3.044,3.044l0,39.09c0,1.678 1.366,3.044 3.044,3.044l66.723,0c1.678,0 3.044,-1.366 3.044,-3.044l0,-39.09c0,-1.678 -1.366,-3.044 -3.044,-3.044l-66.723,0z" fill="#3FA304"/>
  </g>
  <g id="svg_125">
   <circle id="svg_126" r="10.329" cy="186.582" cx="218.421" fill="#3FA304"/>
  </g>
  <g id="svg_127">
   <rect id="svg_128" height="2" width="89.287" fill="#3FA304" y="185.582" x="231.583"/>
  </g>
  <g id="svg_129">
   <rect id="svg_130" height="2" width="103.047" fill="#3FA304" y="185.582" x="346.716"/>
  </g>
  <g id="svg_131">
   <rect id="svg_132" height="2" width="105.62" fill="#898989" y="185.582" x="475.562"/>
  </g>
  <g id="svg_133">
   <rect id="svg_134" height="2" width="103.584" fill="#898989" y="185.582" x="607.028"/>
  </g>
  <g id="svg_135">
   <rect id="svg_136" height="2" width="73.742" fill="#898989" y="185" x="757.209"/>
  </g>
  <g id="svg_137">
   <rect id="svg_138" height="2" width="98.873" fill="#898989" y="185" x="830.951"/>
  </g>
  <g id="svg_139">
   <circle id="svg_140" r="10.329" cy="186" cx="333.386" fill="#3FA304"/>
  </g>
  <g id="svg_141">
   <circle id="svg_142" r="10.329" cy="186" cx="462.421" fill="#898989"/>
  </g>
  <g id="svg_143">
   <circle id="svg_144" r="10.329" cy="186" cx="594.088" fill="#898989"/>
  </g>
 </g>
</svg>
