<svg width="1000" height="376" xmlns="http://www.w3.org/2000/svg">

 <g>
  <title>background</title>
  <rect fill="none" id="canvas_background" height="378" width="1002" y="-1" x="-1"/>
 </g>
 <g>
  <title>Layer 1</title>
  <g id="svg_1">
   <path id="svg_2" d="m843.871,288.026c0,3.329 -4.559,6.027 -10.181,6.027l-147.635,0c-5.623,0 -10.185,-2.698 -10.185,-6.027l0,-56.255c0,-3.328 4.562,-6.027 10.185,-6.027l40.619,0l7.982,-13.065l8.944,13.065l90.089,0c5.623,0 10.183,2.699 10.183,6.027l-0.001,56.255l0,0z" fill="#F7F8F8"/>
   <path id="svg_3" d="m833.693,294.553l-147.638,0c-5.893,0 -10.685,-2.928 -10.685,-6.527l0,-56.255c0,-3.599 4.792,-6.527 10.685,-6.527l40.339,0l8.241,-13.485l9.229,13.485l89.825,0c5.89,0 10.683,2.928 10.683,6.527l0,56.255c-0.001,3.599 -4.792,6.527 -10.679,6.527zm-147.638,-68.309c-5.339,0 -9.685,2.479 -9.685,5.527l0,56.255c0,3.047 4.346,5.527 9.685,5.527l147.638,0c5.338,0 9.681,-2.479 9.681,-5.527l0,-56.255c0,-3.047 -4.343,-5.527 -9.682,-5.527l-90.353,0l-8.657,-12.645l-7.729,12.645l-40.898,0z" fill="#C9CACA"/>
  </g>
  <g id="svg_4">
   <path id="svg_5" d="m287.011,281.521c0,3.027 -2.903,5.481 -6.484,5.481l-94.027,0c-3.581,0 -6.484,-2.454 -6.484,-5.481l0,-51.161c0,-3.027 2.903,-5.481 6.484,-5.481l26.506,0l6.997,-11.882l6.971,11.882l53.553,0c3.581,0 6.484,2.455 6.484,5.481l0,51.161l0,0z" fill="#F7F8F8"/>
   <path id="svg_6" d="m280.527,287.502l-94.027,0c-3.853,0 -6.984,-2.683 -6.984,-5.981l0,-51.161c0,-3.298 3.133,-5.981 6.984,-5.981l26.22,0l7.284,-12.369l7.256,12.369l53.267,0c3.853,0 6.984,2.683 6.984,5.981l0,51.161c0,3.298 -3.133,5.981 -6.984,5.981zm-94.027,-62.123c-3.3,0 -5.984,2.234 -5.984,4.981l0,51.161c0,2.747 2.687,4.981 5.984,4.981l94.024,0c3.302,0 5.984,-2.234 5.984,-4.981l0,-51.161c0,-2.747 -2.685,-4.981 -5.984,-4.981l-53.839,0l-6.685,-11.395l-6.71,11.395l-26.79,0z" fill="#C9CACA"/>
  </g>
  <g id="svg_7">
   <path id="svg_8" d="m528.115,294.133c0,3.792 -3.122,6.865 -6.973,6.865l-101.108,0c-3.851,0 -6.973,-3.074 -6.973,-6.865l0,-64.073c0,-3.791 3.122,-6.865 6.973,-6.865l27.66,0l7.524,-12.2l5.811,12.2l60.114,0c3.851,0 6.973,3.074 6.973,6.865l0,64.073l-0.001,0z" fill="#F7F8F8"/>
   <path id="svg_9" d="m521.144,301.498l-101.11,0c-4.121,0 -7.473,-3.304 -7.473,-7.365l0,-64.073c0,-4.061 3.352,-7.365 7.473,-7.365l27.382,0l7.859,-12.744l6.07,12.744l59.798,0c4.12,0 7.473,3.304 7.473,7.365l0,64.073c-0.001,4.061 -3.353,7.365 -7.472,7.365zm-101.11,-77.803c-3.567,0 -6.473,2.855 -6.473,6.365l0,64.073c0,3.51 2.904,6.365 6.473,6.365l101.107,0c3.569,0 6.473,-2.855 6.473,-6.365l0.002,-64.073c0,-3.51 -2.901,-6.365 -6.473,-6.365l-60.43,0l-5.553,-11.656l-7.188,11.656l-27.938,0z" fill="#C9CACA"/>
  </g>
  <g id="svg_10">
   <path id="svg_11" d="m908.83,97.358c0,-3.027 -2.821,-5.481 -6.307,-5.481l-91.46,0c-3.483,0 -6.308,2.454 -6.308,5.481l0,51.161c0,3.026 2.821,5.48 6.308,5.48l25.782,0l6.806,11.883l6.78,-11.883l52.091,0c3.483,0 6.308,-2.454 6.308,-5.48l0,-51.161l0,0z" fill="#F7F8F8"/>
   <path id="svg_12" d="m843.655,166.889l-7.097,-12.39l-25.492,0c-3.754,0 -6.808,-2.683 -6.808,-5.98l0,-51.161c0,-3.298 3.054,-5.981 6.808,-5.981l91.46,0c3.753,0 6.809,2.683 6.809,5.981l0,51.161c0,3.297 -3.056,5.98 -6.81,5.98l-51.801,0l-7.069,12.39zm-32.589,-74.512c-3.202,0 -5.808,2.234 -5.808,4.981l0,51.161c0,2.746 2.604,4.98 5.808,4.98l26.072,0l6.515,11.375l6.491,-11.375l52.381,0c3.202,0 5.808,-2.234 5.808,-4.98l0,-51.161c0,-2.747 -2.604,-4.981 -5.807,-4.981l-91.46,0z" fill="#C9CACA"/>
  </g>
  <g id="svg_13">
   <path id="svg_14" d="m660.524,97.358c0,-3.027 -2.903,-5.481 -6.484,-5.481l-94.024,0c-3.581,0 -6.484,2.454 -6.484,5.481l0,51.161c0,3.026 2.903,5.48 6.484,5.48l26.506,0l6.997,11.883l6.97,-11.882l53.553,0c3.581,0 6.484,-2.454 6.484,-5.48l-0.002,-51.162l0,0z" fill="#F7F8F8"/>
   <path id="svg_15" d="m593.517,166.869l-7.284,-12.37l-26.22,0c-3.854,0 -6.984,-2.683 -6.984,-5.98l0,-51.161c0,-3.298 3.133,-5.981 6.984,-5.981l94.026,0c3.852,0 6.982,2.683 6.982,5.981l0,51.162c0,3.297 -3.133,5.98 -6.982,5.98l-53.269,0l-7.253,12.369zm-33.504,-74.492c-3.3,0 -5.984,2.234 -5.984,4.981l0,51.161c0,2.746 2.687,4.98 5.984,4.98l26.792,0l6.71,11.396l6.685,-11.395l53.839,0c3.302,0 5.984,-2.234 5.984,-4.98l0,-51.162c0,-2.747 -2.685,-4.981 -5.984,-4.981l-94.026,0z" fill="#C9CACA"/>
  </g>
  <g id="svg_16">
   <path id="svg_17" d="m401.213,97.358c0,-3.027 -2.903,-5.481 -6.484,-5.481l-94.024,0c-3.581,0 -6.484,2.454 -6.484,5.481l0,51.161c0,3.026 2.903,5.48 6.484,5.48l26.503,0l6.997,11.883l6.97,-11.882l53.553,0c3.581,0 6.484,-2.454 6.484,-5.48l0.001,-51.162l0,0z" fill="#F7F8F8"/>
   <path id="svg_18" d="m334.203,166.869l-7.282,-12.37l-26.219,0c-3.853,0 -6.984,-2.683 -6.984,-5.98l0,-51.161c0,-3.298 3.133,-5.981 6.984,-5.981l94.024,0c3.851,0 6.984,2.683 6.984,5.981l-0.001,51.162c0,3.297 -3.135,5.98 -6.984,5.98l-53.265,0l-7.257,12.369zm-33.501,-74.492c-3.302,0 -5.984,2.234 -5.984,4.981l0,51.161c0,2.746 2.685,4.98 5.984,4.98l26.789,0l6.71,11.396l6.688,-11.395l53.839,0c3.3,0 5.984,-2.234 5.984,-4.98l0,-51.162c0,-1.314 -0.611,-2.555 -1.723,-3.494c-1.135,-0.959 -2.646,-1.487 -4.262,-1.487l-94.025,0z" fill="#C9CACA"/>
  </g>
  <g id="svg_19">
   <path id="svg_20" d="m107.898,200.101c0,2.138 -1.73,3.871 -3.871,3.871l-59.03,0c-2.141,0 -3.871,-1.733 -3.871,-3.871l0,-29.999c0,-2.138 1.73,-3.871 3.871,-3.871l59.028,0c2.141,0 3.871,1.733 3.871,3.871l0.002,29.999l0,0z" fill="#3FA304"/>
  </g>
  <g id="svg_21">
   <path id="svg_22" d="m742.169,270.996c-0.028,-0.086 -0.071,-0.243 -0.13,-0.473c-0.058,-0.314 -0.101,-0.529 -0.129,-0.645c0.145,0 0.431,0 0.859,0c0.544,0.029 0.959,0.043 1.246,0.043c0.743,0.058 1.131,-0.258 1.159,-0.945c0.058,-0.458 0.086,-0.845 0.086,-1.16l-3.995,0c0,0.201 -0.029,0.387 -0.086,0.559c-0.029,1.461 -1.176,2.564 -3.438,3.309l-0.772,-0.988c2.006,-0.572 3.021,-1.36 3.052,-2.363l0.043,-0.516l-2.621,0l0,-1.031l9.065,0c-0.028,0.573 -0.071,1.304 -0.129,2.191c0,1.375 -0.718,2.034 -2.147,1.977c-0.458,0.027 -1.147,0.042 -2.063,0.042zm-4.039,5.543l0,-4.727l8.034,0l0,4.727l-1.159,0l0,-0.602l-5.716,0l0,0.602l-1.159,0zm1.159,-3.696l0,2.148l5.717,0l0,-2.148l-5.717,0z" fill="#595757"/>
   <path id="svg_23" d="m748.53,267.988l0,-1.117l9.367,0l0,1.117l-1.891,0l0,2.836l2.318,0l0,1.117l-2.318,0l0,4.469l-1.203,0l0,-4.469l-3.052,0c0.027,2.092 -0.858,3.638 -2.664,4.641c-0.173,-0.201 -0.474,-0.516 -0.901,-0.945c1.633,-0.771 2.42,-2.005 2.363,-3.695l-2.535,0l0,-1.117l2.535,0l0,-2.836l-2.019,-0.001l0,0zm3.22,0l0,2.836l3.053,0l0,-2.836l-3.053,0z" fill="#595757"/>
   <path id="svg_24" d="m768.639,270.91c-0.315,-0.172 -0.761,-0.415 -1.332,-0.73c-0.172,-0.114 -0.301,-0.2 -0.388,-0.258l0,0.988l-5.63,0l0,-0.902c-0.545,0.344 -1.132,0.688 -1.762,1.031c-0.086,-0.2 -0.271,-0.501 -0.559,-0.902c-0.029,-0.057 -0.06,-0.1 -0.087,-0.129c2.178,-1.06 3.796,-2.334 4.854,-3.824l1.375,0.129l-0.258,0.344c1.031,1.347 2.521,2.406 4.469,3.18c-0.224,0.343 -0.455,0.701 -0.682,1.073zm-9.41,2.278l0,-1.074l9.754,0l0,1.074l-5.242,0c-0.658,0.688 -1.289,1.347 -1.891,1.977c0.2,0 0.501,-0.014 0.901,-0.043c1.433,-0.028 2.55,-0.071 3.353,-0.129l-0.945,-0.988l0.816,-0.645c0.286,0.287 0.729,0.73 1.332,1.332c0.544,0.487 0.943,0.859 1.203,1.117l-0.902,0.773c-0.201,-0.258 -0.416,-0.487 -0.646,-0.688c-1.317,0 -3.009,0.071 -5.069,0.215c-0.517,0.028 -0.96,0.086 -1.332,0.172l-0.56,-1.031c0.372,-0.172 0.688,-0.387 0.944,-0.645c0.345,-0.314 0.787,-0.787 1.332,-1.418l-3.048,0.001l0,0zm4.983,-5.672c-0.831,0.917 -1.732,1.69 -2.706,2.32l5.283,0c-1.058,-0.659 -1.919,-1.433 -2.577,-2.32z" fill="#595757"/>
   <path id="svg_25" d="m771.432,275.852l-0.73,-0.773c0.259,-0.286 0.388,-0.63 0.388,-1.031l0,-3.266l-1.159,0l0,-1.074l2.232,0l0,4.082c0.4,-0.314 0.816,-0.658 1.246,-1.031c0.086,0.43 0.188,0.803 0.302,1.117c-0.603,0.516 -0.688,0.588 -0.259,0.215c-0.43,0.373 -0.9,0.773 -1.418,1.203c-0.204,0.17 -0.403,0.355 -0.602,0.558zm0.344,-7.004c-0.145,-0.229 -0.373,-0.544 -0.688,-0.945c-0.286,-0.43 -0.517,-0.744 -0.688,-0.945l0.902,-0.559c0.258,0.287 0.614,0.73 1.073,1.332c0.172,0.201 0.302,0.358 0.388,0.473l-0.987,0.644zm1.418,7.691c-0.086,-0.172 -0.287,-0.473 -0.602,-0.902c-0.06,-0.058 -0.103,-0.101 -0.13,-0.129c1.347,-0.658 2.421,-1.375 3.224,-2.148c-1.175,-1.375 -1.991,-3.352 -2.449,-5.93l1.117,-0.258c0.43,2.378 1.146,4.154 2.146,5.328c1.031,-1.203 1.732,-3.021 2.105,-5.457l1.16,0.215c-0.487,2.722 -1.318,4.756 -2.492,6.102c0.83,0.773 1.861,1.418 3.094,1.934c-0.115,0.172 -0.287,0.443 -0.516,0.816c-0.086,0.172 -0.158,0.286 -0.215,0.344c-1.375,-0.773 -2.438,-1.504 -3.182,-2.191c-0.713,0.716 -1.799,1.472 -3.26,2.276zm3.22,-7.435c-0.373,-0.945 -0.729,-1.775 -1.072,-2.492l1.029,-0.344c0.458,0.945 0.83,1.748 1.117,2.406l-1.074,0.43z" fill="#595757"/>
  </g>
  <g id="svg_26">
   <path id="svg_27" d="m196.623,268.329l0,-1.074l1.072,0l0,-1.934l1.031,0l0,1.934l0.816,0l0,1.074l-0.816,0l0,1.891l0.902,-0.258c0,0.401 0,0.773 0,1.117c-0.229,0.029 -0.53,0.101 -0.902,0.215l0,2.793c0.028,0.83 -0.344,1.26 -1.117,1.289c-0.229,0.028 -0.516,0.043 -0.857,0.043c-0.029,-0.315 -0.086,-0.688 -0.172,-1.117c0.143,0.028 0.344,0.043 0.602,0.043c0.344,0.028 0.518,-0.143 0.518,-0.516l0,-2.234l-1.074,0.301l-0.129,-1.16c0.372,-0.086 0.771,-0.172 1.203,-0.258l0,-2.148l-1.077,-0.001l0,0zm3.094,-1.117l0,-0.902l3.008,0c-0.029,-0.114 -0.086,-0.271 -0.172,-0.473c-0.058,-0.229 -0.115,-0.387 -0.172,-0.473l1.203,-0.129c0.026,0.058 0.057,0.158 0.086,0.301c0.086,0.172 0.172,0.43 0.258,0.773l2.965,0l0,0.902l-2.275,0l0.857,0.172c-0.058,0.086 -0.144,0.215 -0.258,0.387c-0.172,0.258 -0.315,0.459 -0.43,0.602l1.676,0l0,5.93c0.028,0.716 -0.344,1.074 -1.117,1.074c-0.287,0 -0.673,0 -1.16,0c-0.029,-0.229 -0.101,-0.53 -0.215,-0.902c0.372,0 0.716,0 1.031,0c0.344,0 0.501,-0.129 0.473,-0.387l0,-4.855l-4.555,0l0,6.273l-0.945,0l0,-7.133l1.633,0c-0.258,-0.458 -0.473,-0.787 -0.645,-0.988l0.729,-0.172l-1.975,0zm1.675,3.738l0,-0.816l1.332,0l0,-0.645l0.945,0l0,0.645l1.375,0l0,0.816l-1.375,0l0,0.816l1.074,0l0,2.535l-3.096,0l0,-2.535l1.074,0l0,-0.816l-1.329,0zm1.375,-2.578l-0.086,0l0.988,0c0.026,-0.057 0.086,-0.143 0.172,-0.258c0.258,-0.4 0.43,-0.701 0.516,-0.902l-2.318,0c0.313,0.459 0.556,0.846 0.728,1.16zm-0.3,4.168l0,1.031l1.461,0l0,-1.031l-1.461,0z" fill="#595757"/>
   <path id="svg_28" d="m207.838,266.61l0,-0.902l9.797,0l0,0.902l-3.051,0l0,0.902l2.621,0l0,2.879l-5.629,0l1.029,0.086c-0.172,0.287 -0.356,0.559 -0.559,0.816l5.887,0l0,0.902l-2.062,0c-0.401,0.688 -0.874,1.218 -1.418,1.59c0.943,0.258 1.946,0.502 3.008,0.73l-0.475,0.988c-0.544,-0.172 -1.347,-0.43 -2.404,-0.773c-0.544,-0.172 -0.945,-0.301 -1.203,-0.387c-1.175,0.544 -2.908,0.945 -5.199,1.203c-0.029,-0.086 -0.101,-0.258 -0.215,-0.516c-0.086,-0.229 -0.146,-0.387 -0.172,-0.473c1.833,-0.172 3.165,-0.357 3.996,-0.559c-0.346,-0.114 -0.859,-0.271 -1.547,-0.473c-0.487,-0.143 -0.859,-0.258 -1.117,-0.344c0.172,-0.172 0.387,-0.415 0.645,-0.73c0.086,-0.114 0.157,-0.2 0.215,-0.258l-2.447,0l0,-0.902l3.18,0c0.2,-0.286 0.401,-0.587 0.602,-0.902l-3.051,0l0,-2.879l2.621,0l0,-0.902l-3.052,0l0,0.002zm1.461,1.805l0,1.117l1.59,0l0,-1.117l-1.59,0zm3.824,5.027c0.602,-0.344 1.06,-0.759 1.375,-1.246l-3.139,0c-0.058,0.058 -0.144,0.158 -0.258,0.301c-0.144,0.144 -0.244,0.258 -0.301,0.344c0.46,0.115 1.234,0.315 2.323,0.601zm-1.16,-6.832l0,0.902l1.547,0l0,-0.902l-1.547,0zm0,1.805l0,1.117l1.547,0l0,-1.117l-1.547,0zm4.254,0l-1.633,0l0,1.117l1.633,0l0,-1.117z" fill="#595757"/>
   <path id="svg_29" d="m218.666,268.243l0,-1.031l1.203,0l0,-1.891l1.029,0l0,1.891l1.16,0l0,1.031l-1.16,0l0,1.891l1.074,-0.215c-0.029,0.43 -0.029,0.788 0,1.074l-1.074,0.258l0,2.922c0.028,0.83 -0.33,1.246 -1.072,1.246c-0.26,0.028 -0.604,0.043 -1.031,0.043c-0.029,-0.229 -0.072,-0.53 -0.129,-0.902c-0.029,-0.115 -0.043,-0.187 -0.043,-0.215c0.086,0 0.329,0 0.729,0c0.372,0.028 0.544,-0.129 0.518,-0.473l0,-2.32l-1.289,0.344l-0.086,-1.203c0.112,-0.028 0.284,-0.071 0.516,-0.129c0.372,-0.086 0.659,-0.143 0.859,-0.172l0,-2.148l-1.204,-0.001l0,0zm9.711,7.219c-1.232,-0.344 -2.277,-0.76 -3.137,-1.246c-0.831,0.486 -1.893,0.931 -3.182,1.332c-0.058,-0.115 -0.144,-0.287 -0.258,-0.516c-0.144,-0.229 -0.244,-0.401 -0.301,-0.516c1.146,-0.229 2.104,-0.572 2.879,-1.031c-0.716,-0.716 -1.261,-1.504 -1.633,-2.363l0.473,-0.258l-0.729,0l0,-1.031l5.629,0l0,1.074c-0.458,0.975 -1.104,1.834 -1.936,2.578c0.773,0.459 1.704,0.773 2.793,0.945c-0.115,0.172 -0.287,0.458 -0.516,0.859c-0.025,0.087 -0.054,0.144 -0.082,0.173zm-5.758,-5.887c-0.26,-0.344 -0.487,-0.645 -0.688,-0.902c0.974,-0.43 1.418,-1.146 1.332,-2.148l0,-0.816l4.211,0l0,1.805c-0.029,0.43 0.157,0.631 0.561,0.602l0.9,0c-0.058,0.201 -0.115,0.487 -0.172,0.859c0,0.058 0,0.101 0,0.129l-1.16,0c-0.857,0.029 -1.273,-0.357 -1.246,-1.16l0,-1.246l-2.02,0l0,0.301c0.058,1.087 -0.515,1.946 -1.718,2.576zm4.254,1.289l-3.096,0c0.401,0.803 0.902,1.461 1.506,1.977c0.716,-0.544 1.246,-1.203 1.59,-1.977z" fill="#595757"/>
   <path id="svg_30" d="m229.795,266.911c0,-0.114 -0.017,-0.271 -0.043,-0.473c-0.029,-0.229 -0.06,-0.387 -0.086,-0.473c0.63,-0.028 1.518,-0.086 2.664,-0.172c0.198,-0.028 0.356,-0.043 0.473,-0.043l0.172,0.945c-0.029,0 -0.072,0 -0.129,0c-0.287,0.058 -0.602,0.086 -0.945,0.086l0,1.59l1.16,0l0,0.988l-1.16,0l0,0.73c0.086,0.058 0.2,0.144 0.346,0.258c0.399,0.344 0.716,0.616 0.943,0.816l-0.516,0.902l-0.773,-0.816l0,4.297l-0.986,0l0,-4.125c-0.315,0.803 -0.688,1.519 -1.117,2.148c-0.029,-0.114 -0.072,-0.286 -0.129,-0.516c-0.086,-0.314 -0.158,-0.544 -0.215,-0.688c0.63,-0.945 1.103,-1.947 1.418,-3.008l-1.246,0l0,-0.988l1.289,0l0,-1.504l-1.12,0.046zm3.48,0.215l0,-0.859l2.621,0l-0.215,-0.902l1.16,-0.086c0.057,0.315 0.129,0.645 0.215,0.988l2.75,0l0,0.859l-6.531,0zm0,8.379l0,-4.941l6.316,0l0,3.738c0.057,0.773 -0.301,1.16 -1.074,1.16c-0.344,0 -0.702,0 -1.074,0c0,-0.029 -0.015,-0.086 -0.043,-0.172c-0.027,-0.315 -0.07,-0.559 -0.129,-0.73c0.114,0.028 0.401,0.043 0.859,0.043c0.344,0.028 0.501,-0.101 0.473,-0.387l0,-2.793l-4.34,0l0,4.082l-0.988,0zm0.645,-5.543l0,-2.234l5.025,0l0,2.234l-5.025,0zm0.988,-1.504l0,0.773l3.051,0l0,-0.773l-3.051,0zm0.086,5.844l0,-2.234l2.836,0l0,2.234l-2.836,0zm0.816,-1.547l0,0.902l1.246,0l0,-0.902l-1.246,0z" fill="#595757"/>
   <path id="svg_31" d="m241.138,266.997l0,-1.117l9.367,0l0,1.117l-1.893,0l0,2.836l2.32,0l0,1.117l-2.32,0l0,4.469l-1.201,0l0,-4.469l-3.053,0c0.028,2.092 -0.857,3.638 -2.664,4.641c-0.172,-0.201 -0.473,-0.516 -0.9,-0.945c1.633,-0.773 2.42,-2.005 2.363,-3.695l-2.535,0l0,-1.117l2.535,0l0,-2.836l-2.019,-0.001l0,0zm3.223,0l0,2.836l3.053,0l0,-2.836l-3.053,0z" fill="#595757"/>
   <path id="svg_32" d="m255.189,274.56l-1.074,-0.902c-0.456,0.573 -1.103,1.188 -1.934,1.848l-0.729,-0.859c0.802,-0.572 1.418,-1.16 1.848,-1.762l-1.504,-1.375c0.229,-0.83 0.442,-1.891 0.645,-3.18l-0.9,0l0,-1.031l1.072,0c0.088,-0.688 0.174,-1.375 0.26,-2.062l1.115,0.129c-0.086,0.401 -0.172,0.96 -0.258,1.676c0.059,-0.43 0.043,-0.344 -0.043,0.258l1.979,0l0,1.031c-0.146,1.948 -0.458,3.409 -0.945,4.383l1.246,1.074l-0.778,0.772zm-0.558,-6.231l-1.117,0c-0.172,1.089 -0.373,2.049 -0.602,2.879c0.112,0.086 0.271,0.215 0.473,0.387c0.229,0.172 0.387,0.301 0.473,0.387c0.4,-0.831 0.658,-2.048 0.773,-3.653zm1.504,1.504l-0.473,-1.074c0.258,-0.143 0.516,-0.387 0.771,-0.73c0.518,-0.716 1.062,-1.646 1.633,-2.793l1.16,0.43c-0.802,1.261 -1.49,2.264 -2.062,3.008c0.485,-0.028 1.303,-0.071 2.447,-0.129c-0.172,0.029 0,0.029 0.518,0c-0.06,-0.114 -0.158,-0.271 -0.301,-0.473c-0.229,-0.4 -0.401,-0.701 -0.518,-0.902l0.902,-0.473c0.43,0.631 0.959,1.519 1.59,2.664c0.086,0.172 0.157,0.301 0.215,0.387l-0.987,0.516c-0.114,-0.229 -0.243,-0.473 -0.388,-0.73c-1.748,0.058 -2.922,0.115 -3.521,0.172c-0.4,-0.002 -0.729,0.041 -0.986,0.127zm0.085,5.715l0,-4.727l5.07,0l0,4.727l-1.117,0l0,-0.645l-2.836,0l0,0.645l-1.117,0zm1.118,-3.738l0,2.148l2.836,0l0,-2.148l-2.836,0z" fill="#595757"/>
  </g>
  <g id="svg_33">
   <path id="svg_34" d="m312.282,142.334l-0.729,-0.945c0.258,-0.229 0.387,-0.529 0.387,-0.902l0,-3.695l-1.117,0l0,-1.074l2.234,0l0,4.684c0.086,-0.057 0.2,-0.143 0.344,-0.258c0.401,-0.314 0.688,-0.544 0.859,-0.688c0,0.058 0.014,0.129 0.043,0.215c0.057,0.201 0.143,0.502 0.258,0.902c-0.716,0.487 -1.261,0.888 -1.633,1.203c-0.257,0.2 -0.474,0.386 -0.646,0.558zm0.475,-7.52c-0.115,-0.143 -0.26,-0.344 -0.432,-0.602c-0.43,-0.572 -0.771,-1.017 -1.029,-1.332l0.943,-0.602c0.145,0.172 0.346,0.416 0.604,0.73c0.399,0.459 0.702,0.831 0.9,1.117l-0.986,0.689zm7.947,1.848c-1.316,-0.83 -2.361,-1.833 -3.137,-3.008c-0.771,1.117 -1.876,2.148 -3.309,3.094c-0.201,-0.4 -0.416,-0.744 -0.646,-1.031c1.575,-0.916 2.766,-2.105 3.566,-3.566l1.246,0.129l-0.302,0.473c0.831,1.203 1.892,2.148 3.181,2.836c-0.06,0.115 -0.158,0.287 -0.301,0.516c-0.11,0.228 -0.212,0.415 -0.298,0.557zm-4.039,5.457c-1.115,0.028 -1.66,-0.487 -1.633,-1.547l0,-4.254l1.16,0l0,1.805c1.174,-0.486 2.206,-1.06 3.094,-1.719l0.73,0.902c-1.146,0.745 -2.421,1.404 -3.824,1.977l0,1.074c-0.029,0.573 0.258,0.846 0.859,0.816l1.461,0c0.573,0.029 0.888,-0.243 0.944,-0.816c0.087,-0.344 0.144,-0.83 0.173,-1.461c0.43,0.144 0.802,0.258 1.115,0.344c-0.086,0.659 -0.172,1.246 -0.258,1.762c-0.144,0.744 -0.729,1.117 -1.762,1.117l-2.059,0z" fill="#595757"/>
   <path id="svg_35" d="m321.907,134.986l0,-1.117l4.771,0c-0.172,-0.516 -0.373,-1.017 -0.604,-1.504l1.332,-0.215c0.086,0.287 0.229,0.702 0.432,1.246c0.086,0.201 0.143,0.358 0.172,0.473l4.082,0l0,1.117l-1.764,0c-0.43,1.805 -1.218,3.309 -2.361,4.512c1.117,0.745 2.521,1.318 4.211,1.719c-0.258,0.314 -0.501,0.673 -0.73,1.074c-1.919,-0.573 -3.409,-1.231 -4.469,-1.977c-0.859,0.631 -2.32,1.332 -4.383,2.105c-0.172,-0.315 -0.416,-0.702 -0.73,-1.16c1.721,-0.458 3.122,-1.045 4.211,-1.762c-1.175,-1.203 -1.977,-2.707 -2.404,-4.512l-1.766,0.001l0,0zm5.073,3.739c1.06,-0.974 1.747,-2.22 2.062,-3.738l-4.125,0c0.344,1.46 1.031,2.706 2.063,3.738z" fill="#595757"/>
   <path id="svg_36" d="m332.907,135.244l0,-1.074l1.074,0l0,-1.934l1.031,0l0,1.934l0.814,0l0,1.074l-0.814,0l0,1.891l0.901,-0.258c0,0.401 0,0.773 0,1.117c-0.229,0.029 -0.529,0.101 -0.901,0.215l0,2.793c0.028,0.83 -0.344,1.26 -1.117,1.289c-0.229,0.028 -0.516,0.043 -0.859,0.043c-0.027,-0.315 -0.086,-0.688 -0.172,-1.117c0.145,0.028 0.346,0.043 0.604,0.043c0.344,0.028 0.516,-0.143 0.516,-0.516l0,-2.234l-1.074,0.301l-0.129,-1.16c0.372,-0.086 0.773,-0.172 1.203,-0.258l0,-2.148l-1.077,-0.001l0,0zm3.096,-1.117l0,-0.902l3.008,0c-0.029,-0.114 -0.086,-0.271 -0.172,-0.473c-0.06,-0.229 -0.115,-0.387 -0.174,-0.473l1.203,-0.129c0.028,0.058 0.059,0.158 0.086,0.301c0.086,0.172 0.174,0.43 0.26,0.773l2.965,0l0,0.902l-2.277,0l0.859,0.172c-0.06,0.086 -0.146,0.215 -0.258,0.387c-0.174,0.258 -0.315,0.459 -0.432,0.602l1.676,0l0,5.93c0.028,0.716 -0.344,1.074 -1.115,1.074c-0.287,0 -0.673,0 -1.16,0c-0.029,-0.229 -0.103,-0.53 -0.215,-0.902c0.372,0 0.716,0 1.029,0c0.346,0 0.501,-0.129 0.475,-0.387l0,-4.855l-4.557,0l0,6.273l-0.943,0l0,-7.133l1.633,0c-0.258,-0.458 -0.473,-0.787 -0.646,-0.988l0.73,-0.172l-1.975,0l0,0zm1.676,3.738l0,-0.816l1.332,0l0,-0.645l0.943,0l0,0.645l1.375,0l0,0.816l-1.375,0l0,0.816l1.074,0l0,2.535l-3.094,0l0,-2.535l1.074,0l0,-0.816l-1.329,0zm1.375,-2.578l-0.086,0l0.986,0c0.028,-0.057 0.086,-0.143 0.174,-0.258c0.258,-0.4 0.43,-0.701 0.516,-0.902l-2.32,0c0.314,0.459 0.558,0.846 0.73,1.16zm-0.301,4.168l0,1.031l1.461,0l0,-1.031l-1.461,0z" fill="#595757"/>
   <path id="svg_37" d="m344.122,133.525l0,-0.902l9.799,0l0,0.902l-3.053,0l0,0.902l2.621,0l0,2.879l-5.629,0l1.031,0.086c-0.172,0.287 -0.358,0.559 -0.56,0.816l5.888,0l0,0.902l-2.062,0c-0.399,0.688 -0.874,1.218 -1.418,1.59c0.945,0.258 1.948,0.502 3.008,0.729l-0.473,0.988c-0.544,-0.172 -1.347,-0.43 -2.406,-0.773c-0.544,-0.172 -0.943,-0.301 -1.203,-0.387c-1.175,0.544 -2.906,0.945 -5.197,1.203c-0.029,-0.086 -0.103,-0.258 -0.215,-0.516c-0.088,-0.229 -0.146,-0.387 -0.174,-0.473c1.833,-0.172 3.165,-0.356 3.996,-0.559c-0.344,-0.114 -0.857,-0.271 -1.547,-0.473c-0.485,-0.143 -0.857,-0.258 -1.117,-0.344c0.174,-0.172 0.389,-0.415 0.646,-0.729c0.086,-0.114 0.157,-0.2 0.215,-0.258l-2.449,0l0,-0.902l3.182,0c0.198,-0.286 0.399,-0.587 0.602,-0.902l-3.051,0l0,-2.879l2.621,0l0,-0.902l-3.054,0l-0.001,0.002l0,0zm1.463,1.805l0,1.117l1.59,0l0,-1.117l-1.59,0zm3.822,5.027c0.604,-0.344 1.062,-0.759 1.375,-1.246l-3.137,0c-0.058,0.058 -0.144,0.158 -0.258,0.301c-0.146,0.144 -0.244,0.258 -0.301,0.344c0.461,0.115 1.235,0.315 2.321,0.601zm-1.16,-6.832l0,0.902l1.549,0l0,-0.902l-1.549,0zm0,1.805l0,1.117l1.549,0l0,-1.117l-1.549,0zm4.256,0l-1.635,0l0,1.117l1.635,0l0,-1.117z" fill="#595757"/>
   <path id="svg_38" d="m355.683,142.42l0,-3.609c-0.058,0.058 -0.129,0.129 -0.215,0.215s-0.215,0.258 -0.389,0.516c-0.113,-0.344 -0.229,-0.716 -0.344,-1.117c0.659,-0.773 1.174,-1.618 1.547,-2.535l1.074,0.172c-0.029,0.086 -0.086,0.201 -0.172,0.344c-0.086,0.172 -0.158,0.301 -0.215,0.387l1.332,0l-0.258,-0.73l1.029,-0.129l0.303,0.859l1.418,0l0,0.73l-1.678,0l0,0.73l1.548,0l0,0.773l-1.548,0l0,0.73l1.592,0l0,0.773l-1.592,0l0,0.688l1.807,0l0,0.688l-4.254,0l0,0.516l-0.985,-0.001l0,0zm-0.215,-8.465l0,-0.816l2.062,0l0,-0.945l1.074,0l0,0.945l1.891,0l0,0.816l-1.891,0l0,0.816l2.621,0c0,-1.146 -0.015,-2.005 -0.043,-2.578l1.117,0c0,1.232 0.014,2.092 0.043,2.578l2.793,0l0,0.902l-2.75,0c0.026,1.318 0.129,2.32 0.301,3.008c0.43,-0.744 0.816,-1.518 1.16,-2.32l0.945,0.43c-0.632,1.347 -1.232,2.378 -1.807,3.094l0.086,0.129c0.2,0.803 0.444,1.203 0.73,1.203c0.143,0 0.229,-0.114 0.258,-0.344c0.086,-0.4 0.172,-0.945 0.258,-1.633c0.401,0.201 0.702,0.33 0.902,0.387c-0.086,0.773 -0.188,1.347 -0.301,1.719c-0.146,0.658 -0.518,1.002 -1.117,1.031c-0.688,0.028 -1.246,-0.473 -1.676,-1.504c-0.229,0.229 -0.518,0.458 -0.859,0.688c-0.059,-0.086 -0.158,-0.215 -0.301,-0.387c-0.172,-0.2 -0.287,-0.344 -0.346,-0.43c0.487,-0.344 0.874,-0.688 1.16,-1.031c-0.258,-1.088 -0.43,-2.435 -0.516,-4.039l-6.402,0l0,-0.902l2.664,0l0,-0.816l-2.056,-0.001l0,0zm1.203,3.566l0,0.73l1.418,0l0,-0.73l-1.418,0zm0,1.504l0,0.73l1.418,0l0,-0.73l-1.418,0zm0,1.504l0,0.688l1.418,0l0,-0.688l-1.418,0zm7.305,-6.015c-0.344,-0.43 -0.773,-0.916 -1.289,-1.461l0.73,-0.559c0.544,0.487 1.002,0.945 1.375,1.375l-0.816,0.645z" fill="#595757"/>
   <path id="svg_39" d="m365.907,141.775l0,-1.074l1.633,0l0,-6.488l1.246,0l0,6.488l2.363,0l0,-8.508l1.203,0l0,3.137l3.223,0l0,1.117l-3.223,0l0,4.254l3.781,0l0,1.074l-10.226,0z" fill="#595757"/>
  </g>
  <g id="svg_40">
   <path id="svg_41" d="m572.703,142.334l-0.729,-0.945c0.258,-0.229 0.387,-0.529 0.387,-0.902l0,-3.695l-1.117,0l0,-1.074l2.234,0l0,4.684c0.086,-0.057 0.199,-0.143 0.344,-0.258c0.4,-0.314 0.688,-0.544 0.859,-0.688c0,0.058 0.014,0.129 0.043,0.215c0.057,0.201 0.143,0.502 0.258,0.902c-0.717,0.487 -1.262,0.888 -1.633,1.203c-0.257,0.2 -0.472,0.386 -0.646,0.558zm0.475,-7.52c-0.115,-0.143 -0.258,-0.344 -0.432,-0.602c-0.43,-0.572 -0.771,-1.017 -1.029,-1.332l0.943,-0.602c0.145,0.172 0.346,0.416 0.604,0.73c0.398,0.459 0.701,0.831 0.9,1.117l-0.986,0.689zm7.949,1.848c-1.318,-0.83 -2.363,-1.833 -3.139,-3.008c-0.771,1.117 -1.877,2.148 -3.309,3.094c-0.201,-0.4 -0.416,-0.744 -0.646,-1.031c1.574,-0.916 2.766,-2.105 3.566,-3.566l1.246,0.129l-0.301,0.473c0.828,1.203 1.891,2.148 3.18,2.836c-0.061,0.115 -0.158,0.287 -0.301,0.516c-0.11,0.228 -0.21,0.415 -0.296,0.557zm-4.039,5.457c-1.117,0.028 -1.662,-0.487 -1.635,-1.547l0,-4.254l1.16,0l0,1.805c1.174,-0.486 2.205,-1.06 3.096,-1.719l0.729,0.902c-1.146,0.745 -2.422,1.404 -3.824,1.977l0,1.074c-0.027,0.573 0.258,0.846 0.859,0.816l1.461,0c0.572,0.029 0.887,-0.243 0.945,-0.816c0.086,-0.344 0.143,-0.83 0.172,-1.461c0.43,0.144 0.801,0.258 1.117,0.344c-0.088,0.659 -0.174,1.246 -0.26,1.762c-0.145,0.744 -0.729,1.117 -1.762,1.117l-2.058,0z" fill="#595757"/>
   <path id="svg_42" d="m582.328,134.986l0,-1.117l4.771,0c-0.172,-0.516 -0.373,-1.017 -0.603,-1.504l1.331,-0.215c0.087,0.287 0.229,0.702 0.432,1.246c0.086,0.201 0.143,0.358 0.172,0.473l4.082,0l0,1.117l-1.762,0c-0.432,1.805 -1.221,3.309 -2.363,4.512c1.117,0.745 2.52,1.318 4.211,1.719c-0.258,0.314 -0.502,0.673 -0.73,1.074c-1.92,-0.573 -3.408,-1.231 -4.469,-1.977c-0.859,0.631 -2.32,1.332 -4.383,2.105c-0.172,-0.315 -0.416,-0.702 -0.73,-1.16c1.721,-0.458 3.121,-1.045 4.211,-1.762c-1.176,-1.203 -1.977,-2.707 -2.404,-4.512l-1.766,0.001l0,0zm5.073,3.739c1.061,-0.974 1.746,-2.22 2.062,-3.738l-4.125,0c0.344,1.46 1.029,2.706 2.063,3.738z" fill="#595757"/>
   <path id="svg_43" d="m602.996,136.834c-0.545,-0.286 -1.029,-0.559 -1.461,-0.816l0,0.988l-2.49,0l0,1.375l3.223,0l0,1.074l-3.223,0l0,1.504l4.211,0l0,1.031l-9.625,0l0,-1.031l4.168,0l0,-1.504l-3.225,0l0,-1.074l3.225,0l0,-1.375l-2.449,0l0,-0.945c-0.459,0.315 -0.975,0.602 -1.547,0.859c-0.172,-0.286 -0.387,-0.615 -0.646,-0.988c2.234,-1.117 3.838,-2.392 4.812,-3.824l1.332,0.129l-0.172,0.301c1.145,1.375 2.646,2.449 4.512,3.223c-0.029,0.029 -0.061,0.086 -0.086,0.172c-0.256,0.428 -0.443,0.729 -0.559,0.901zm-4.509,-3.48c-0.771,0.945 -1.762,1.805 -2.965,2.578l5.887,0c-1.176,-0.716 -2.149,-1.576 -2.922,-2.578z" fill="#595757"/>
   <path id="svg_44" d="m604.328,134.986l0,-1.117l4.771,0c-0.172,-0.516 -0.373,-1.017 -0.603,-1.504l1.331,-0.215c0.087,0.287 0.229,0.702 0.432,1.246c0.086,0.201 0.143,0.358 0.172,0.473l4.082,0l0,1.117l-1.762,0c-0.432,1.805 -1.221,3.309 -2.363,4.512c1.117,0.745 2.52,1.318 4.211,1.719c-0.258,0.314 -0.502,0.673 -0.73,1.074c-1.92,-0.573 -3.408,-1.231 -4.469,-1.977c-0.859,0.631 -2.32,1.332 -4.383,2.105c-0.172,-0.315 -0.416,-0.702 -0.73,-1.16c1.721,-0.458 3.121,-1.045 4.211,-1.762c-1.176,-1.203 -1.977,-2.707 -2.404,-4.512l-1.766,0.001l0,0zm5.073,3.739c1.061,-0.974 1.746,-2.22 2.062,-3.738l-4.125,0c0.344,1.46 1.029,2.706 2.063,3.738z" fill="#595757"/>
   <path id="svg_45" d="m616.104,142.42l0,-3.609c-0.059,0.058 -0.129,0.129 -0.215,0.215s-0.215,0.258 -0.387,0.516c-0.115,-0.344 -0.23,-0.716 -0.346,-1.117c0.658,-0.773 1.174,-1.618 1.547,-2.535l1.074,0.172c-0.029,0.086 -0.086,0.201 -0.172,0.344c-0.086,0.172 -0.158,0.301 -0.215,0.387l1.332,0l-0.258,-0.73l1.029,-0.129l0.303,0.859l1.418,0l0,0.73l-1.678,0l0,0.73l1.547,0l0,0.773l-1.547,0l0,0.73l1.592,0l0,0.773l-1.592,0l0,0.688l1.807,0l0,0.688l-4.254,0l0,0.516l-0.985,-0.001l0,0zm-0.215,-8.465l0,-0.816l2.062,0l0,-0.945l1.074,0l0,0.945l1.891,0l0,0.816l-1.891,0l0,0.816l2.621,0c0,-1.146 -0.016,-2.005 -0.043,-2.578l1.117,0c0,1.232 0.014,2.092 0.043,2.578l2.793,0l0,0.902l-2.75,0c0.025,1.318 0.129,2.32 0.301,3.008c0.43,-0.744 0.816,-1.518 1.16,-2.32l0.945,0.43c-0.633,1.347 -1.232,2.378 -1.807,3.094l0.086,0.129c0.199,0.803 0.443,1.203 0.73,1.203c0.143,0 0.229,-0.114 0.258,-0.344c0.086,-0.4 0.172,-0.945 0.258,-1.633c0.4,0.201 0.701,0.33 0.902,0.387c-0.086,0.773 -0.188,1.347 -0.302,1.719c-0.146,0.658 -0.517,1.002 -1.116,1.031c-0.688,0.028 -1.246,-0.473 -1.677,-1.504c-0.229,0.229 -0.517,0.458 -0.858,0.688c-0.061,-0.086 -0.158,-0.215 -0.301,-0.387c-0.173,-0.2 -0.287,-0.344 -0.346,-0.43c0.486,-0.344 0.873,-0.688 1.16,-1.031c-0.258,-1.088 -0.43,-2.435 -0.516,-4.039l-6.402,0l0,-0.902l2.664,0l0,-0.816l-2.056,-0.001l0,0zm1.203,3.566l0,0.73l1.418,0l0,-0.73l-1.418,0zm0,1.504l0,0.73l1.418,0l0,-0.73l-1.418,0zm0,1.504l0,0.688l1.418,0l0,-0.688l-1.418,0zm7.305,-6.015c-0.344,-0.43 -0.773,-0.916 -1.289,-1.461l0.73,-0.559c0.543,0.487 1.002,0.945 1.375,1.375l-0.816,0.645z" fill="#595757"/>
   <path id="svg_46" d="m626.328,141.775l0,-1.074l1.635,0l0,-6.488l1.245,0l0,6.488l2.362,0l0,-8.508l1.203,0l0,3.137l3.223,0l0,1.117l-3.223,0l0,4.254l3.781,0l0,1.074l-10.226,0z" fill="#595757"/>
  </g>
  <g id="svg_47">
   <path id="svg_48" d="m830.635,130.346l0,0.965l1.676,0l0,1.168l-1.676,0l0,6.297l-1.523,0l0,-6.297l-1.32,0l0,-1.168l1.32,0l0,-0.965c-0.066,-1.658 0.677,-2.454 2.234,-2.387c0.677,0 1.252,0.085 1.727,0.254l-0.457,1.117c-0.271,-0.135 -0.559,-0.203 -0.861,-0.203c-0.782,-0.033 -1.154,0.373 -1.12,1.219z" fill="#595757"/>
   <path id="svg_49" d="m833.276,129.889l0,-1.574l1.574,0l0,1.574l-1.574,0zm0,8.886l0,-7.465l1.574,0l0,7.465l-1.574,0z" fill="#595757"/>
   <path id="svg_50" d="m842.264,136.49l1.625,0.254c-0.542,1.489 -1.777,2.234 -3.707,2.234c-2.506,-0.102 -3.811,-1.371 -3.91,-3.809c0.102,-2.606 1.354,-3.961 3.758,-4.062c2.505,0.034 3.774,1.389 3.811,4.062c0,0.17 0,0.305 0,0.406l-5.992,0c0.066,1.456 0.846,2.234 2.336,2.336c1.114,-0.032 1.805,-0.507 2.079,-1.421zm-4.418,-1.98l4.469,0c-0.068,-1.455 -0.796,-2.217 -2.184,-2.285c-1.422,0.068 -2.183,0.83 -2.285,2.285z" fill="#595757"/>
   <path id="svg_51" d="m845.311,138.775l0,-10.715l1.574,0l0,10.715l-1.574,0z" fill="#595757"/>
   <path id="svg_52" d="m853.893,128.061l1.574,0l0,10.715l-1.574,0l0,-1.168c-0.44,0.914 -1.287,1.371 -2.539,1.371c-1.998,-0.136 -3.03,-1.388 -3.098,-3.758c0.031,-2.708 1.134,-4.079 3.301,-4.113c1.15,0.068 1.93,0.559 2.336,1.473l0,-4.52zm0.051,7.21l0,-0.762c-0.136,-1.286 -0.812,-2.014 -2.031,-2.184c-1.354,0.068 -2.049,0.999 -2.082,2.793c0.033,1.795 0.729,2.709 2.082,2.742c1.32,-0.032 1.994,-0.895 2.031,-2.589z" fill="#595757"/>
   <path id="svg_53" d="m862.932,128.518l0,2.793l1.676,0l0,1.168l-1.676,0l0,4.266c-0.034,0.779 0.271,1.151 0.914,1.117c0.271,0 0.508,-0.051 0.711,-0.152l0.254,0.863c-0.339,0.271 -0.83,0.406 -1.473,0.406c-1.32,0.033 -1.966,-0.627 -1.932,-1.98l0,-4.52l-1.219,0l0,-1.168l1.219,0l0,-2.387l1.526,-0.406z" fill="#595757"/>
   <path id="svg_54" d="m867.246,134.916l0,3.859l-1.521,0l0,-7.465l1.521,0l0,1.422c0.372,-1.049 1.032,-1.591 1.98,-1.625c0.438,0 0.896,0.136 1.371,0.406l-0.561,1.371c-0.271,-0.236 -0.627,-0.355 -1.064,-0.355c-1.114,0.069 -1.691,0.864 -1.726,2.387z" fill="#595757"/>
   <path id="svg_55" d="m871.41,129.889l0,-1.574l1.574,0l0,1.574l-1.574,0zm0,8.886l0,-7.465l1.574,0l0,7.465l-1.574,0z" fill="#595757"/>
   <path id="svg_56" d="m876.389,137.76l0,3.809l-1.574,0l0,-10.258l1.574,0l0,1.27c0.438,-0.947 1.286,-1.422 2.539,-1.422c1.93,0.102 2.943,1.389 3.047,3.859c-0.034,2.607 -1.066,3.927 -3.098,3.961c-1.151,-0.035 -1.98,-0.441 -2.488,-1.219zm-0.051,-3.149l0,0.863c0.031,1.523 0.711,2.319 2.029,2.387c1.354,0 2.031,-0.931 2.031,-2.793c-0.034,-1.76 -0.729,-2.657 -2.082,-2.691c-1.25,0.068 -1.91,0.812 -1.978,2.234z" fill="#595757"/>
  </g>
  <g id="svg_57">
   <path id="svg_58" d="m209.87,248.33c0.107,6.289 -2.217,9.379 -6.975,9.27c-4.594,-0.11 -6.919,-3.171 -6.973,-9.188c0.164,-6.124 2.488,-9.297 6.973,-9.516c4.596,0.055 6.92,3.2 6.975,9.434zm-4.265,0.082c0.056,-4.43 -0.818,-6.59 -2.625,-6.48c-1.858,-0.054 -2.789,2.105 -2.789,6.48c0,4.212 0.931,6.316 2.789,6.316c1.804,0.001 2.678,-2.104 2.625,-6.316z" fill="#3FA304"/>
   <path id="svg_59" d="m225.702,253.58l-2.217,0l0,3.773l-3.525,0l0,-3.773l-8.859,0l0,-2.543l8.531,-11.812l3.854,0l0,11.484l2.217,0l0,2.871l-0.001,0zm-5.66,-10.5c-0.164,0.383 -0.41,0.82 -0.738,1.312l-4.43,6.316l5.086,0l0,-5.742c0,-0.82 0.027,-1.447 0.082,-1.886z" fill="#3FA304"/>
   <path id="svg_60" d="m231.198,257.354l-4.266,0l0,-4.102l4.266,0l0,4.102z" fill="#3FA304"/>
   <path id="svg_61" d="m246.62,248.33c0.107,6.289 -2.217,9.379 -6.975,9.27c-4.594,-0.11 -6.919,-3.171 -6.973,-9.188c0.164,-6.124 2.488,-9.297 6.973,-9.516c4.596,0.055 6.92,3.2 6.975,9.434zm-4.265,0.082c0.056,-4.43 -0.818,-6.59 -2.625,-6.48c-1.858,-0.054 -2.789,2.105 -2.789,6.48c0,4.212 0.931,6.316 2.789,6.316c1.804,0.001 2.678,-2.104 2.625,-6.316z" fill="#3FA304"/>
   <path id="svg_62" d="m252.855,254.154l8.613,0l0,3.199l-13.371,0l0,-2.379c1.53,-2.297 3.308,-4.184 5.332,-5.66c2.843,-2.133 4.155,-3.719 3.938,-4.758c-0.057,-1.586 -0.875,-2.379 -2.463,-2.379c-1.641,-0.054 -2.651,0.957 -3.033,3.035l-3.691,-0.738c0.71,-3.663 3.144,-5.496 7.301,-5.496c3.773,0.164 5.796,1.887 6.07,5.168c0.271,2.297 -1.066,4.294 -4.021,5.988c-1.915,1.368 -3.473,2.708 -4.675,4.02z" fill="#3FA304"/>
  </g>
  <g id="svg_63">
   <g id="svg_64">
    <path id="svg_65" d="m325.205,114.244c0.109,6.289 -2.215,9.379 -6.973,9.27c-4.594,-0.11 -6.919,-3.171 -6.973,-9.188c0.164,-6.124 2.486,-9.297 6.973,-9.516c4.594,0.055 6.92,3.2 6.973,9.434zm-4.264,0.082c0.054,-4.43 -0.82,-6.59 -2.625,-6.48c-1.86,-0.054 -2.789,2.105 -2.789,6.48c0,4.212 0.929,6.316 2.789,6.316c1.803,0.001 2.677,-2.104 2.625,-6.316z" fill="#898989"/>
    <path id="svg_66" d="m333.656,123.186l-4.102,0c0.546,-5.031 2.515,-9.871 5.906,-14.52l-8.941,0l0,-3.281l13.371,0l0,2.871c-3.775,4.758 -5.854,9.734 -6.234,14.93z" fill="#898989"/>
    <path id="svg_67" d="m345.469,123.268l-4.268,0l0,-4.102l4.268,0l0,4.102z" fill="#898989"/>
    <path id="svg_68" d="m351.701,120.068l8.613,0l0,3.199l-13.371,0l0,-2.379c1.53,-2.297 3.31,-4.184 5.332,-5.66c2.843,-2.133 4.155,-3.719 3.938,-4.758c-0.057,-1.586 -0.875,-2.379 -2.461,-2.379c-1.643,-0.054 -2.653,0.957 -3.035,3.035l-3.691,-0.738c0.71,-3.663 3.146,-5.496 7.301,-5.496c3.773,0.164 5.796,1.887 6.07,5.168c0.273,2.297 -1.066,4.294 -4.02,5.988c-1.913,1.368 -3.472,2.708 -4.676,4.02z" fill="#898989"/>
    <path id="svg_69" d="m375.738,114.244c0.109,6.289 -2.215,9.379 -6.973,9.27c-4.594,-0.11 -6.919,-3.171 -6.973,-9.188c0.162,-6.124 2.486,-9.297 6.973,-9.516c4.594,0.055 6.918,3.2 6.973,9.434zm-4.266,0.082c0.054,-4.43 -0.82,-6.59 -2.625,-6.48c-1.86,-0.054 -2.789,2.105 -2.789,6.48c0,4.212 0.929,6.316 2.789,6.316c1.805,0.001 2.679,-2.104 2.625,-6.316z" fill="#898989"/>
   </g>
  </g>
  <g id="svg_70">
   <path id="svg_71" d="m442.443,248.33c0.109,6.289 -2.215,9.379 -6.973,9.27c-4.594,-0.11 -6.919,-3.171 -6.975,-9.188c0.164,-6.124 2.488,-9.297 6.975,-9.516c4.594,0.055 6.918,3.2 6.973,9.434zm-4.266,0.082c0.054,-4.43 -0.82,-6.59 -2.625,-6.48c-1.86,-0.054 -2.789,2.105 -2.789,6.48c0,4.212 0.929,6.316 2.789,6.316c1.805,0.001 2.679,-2.104 2.625,-6.316z" fill="#898989"/>
   <path id="svg_72" d="m447.857,248.002l0,-0.082c-2.188,-0.546 -3.31,-1.94 -3.363,-4.184c0.328,-3.062 2.488,-4.676 6.48,-4.84c3.991,0.164 6.152,1.777 6.479,4.84c0,2.188 -1.259,3.582 -3.771,4.184c2.732,0.547 4.155,2.023 4.266,4.43c-0.055,3.499 -2.516,5.25 -7.383,5.25c-4.266,-0.11 -6.479,-1.805 -6.645,-5.086c0.109,-2.351 1.421,-3.856 3.937,-4.512zm5.988,4.43c0.054,-1.477 -0.958,-2.461 -3.035,-2.953c-1.86,0.492 -2.789,1.449 -2.789,2.871c0.109,1.587 1.066,2.434 2.871,2.543c1.914,-0.054 2.896,-0.874 2.953,-2.461zm-0.492,-8.45c0,-1.422 -0.793,-2.133 -2.379,-2.133c-1.532,0.055 -2.325,0.767 -2.379,2.133c-0.057,1.203 0.736,2.023 2.379,2.461c1.586,-0.437 2.379,-1.257 2.379,-2.461z" fill="#898989"/>
   <path id="svg_73" d="m463.607,257.354l-4.266,0l0,-4.102l4.266,0l0,4.102z" fill="#898989"/>
   <path id="svg_74" d="m479.029,248.33c0.109,6.289 -2.215,9.379 -6.973,9.27c-4.594,-0.11 -6.919,-3.171 -6.975,-9.188c0.164,-6.124 2.488,-9.297 6.975,-9.516c4.594,0.055 6.918,3.2 6.973,9.434zm-4.266,0.082c0.054,-4.43 -0.82,-6.59 -2.625,-6.48c-1.86,-0.054 -2.789,2.105 -2.789,6.48c0,4.212 0.929,6.316 2.789,6.316c1.805,0.001 2.679,-2.104 2.625,-6.316z" fill="#898989"/>
   <path id="svg_75" d="m493.959,243.408l-3.773,0.656c-0.328,-1.477 -1.148,-2.187 -2.461,-2.133c-2.133,-0.054 -3.229,1.859 -3.281,5.742c0.929,-1.258 2.297,-1.914 4.104,-1.969c3.607,0.219 5.55,2.133 5.822,5.742c-0.219,3.938 -2.434,5.988 -6.645,6.152c-4.922,0.164 -7.329,-2.925 -7.219,-9.27c0.164,-6.124 2.543,-9.27 7.137,-9.434c3.445,0.002 5.549,1.507 6.316,4.514zm-3.446,8.285c-0.057,-1.914 -1.04,-2.898 -2.953,-2.953c-1.86,0.055 -2.844,0.984 -2.953,2.789c0.054,1.969 1.093,3.008 3.117,3.117c1.75,-0.164 2.679,-1.148 2.789,-2.953z" fill="#898989"/>
  </g>
  <g id="svg_76">
   <path id="svg_77" d="m429.521,275.574l-0.73,-0.945c0.26,-0.229 0.389,-0.529 0.389,-0.902l0,-3.695l-1.117,0l0,-1.074l2.234,0l0,4.684c0.086,-0.057 0.198,-0.143 0.344,-0.258c0.399,-0.314 0.688,-0.544 0.857,-0.688c0,0.058 0.016,0.129 0.043,0.215c0.059,0.201 0.145,0.502 0.26,0.902c-0.718,0.487 -1.263,0.888 -1.635,1.203c-0.26,0.2 -0.473,0.386 -0.645,0.558zm0.471,-7.519c-0.113,-0.143 -0.258,-0.344 -0.43,-0.602c-0.43,-0.572 -0.773,-1.017 -1.031,-1.332l0.945,-0.602c0.143,0.172 0.344,0.416 0.602,0.73c0.401,0.459 0.702,0.831 0.902,1.117l-0.988,0.689zm7.951,1.847c-1.316,-0.83 -2.363,-1.833 -3.137,-3.008c-0.773,1.117 -1.876,2.148 -3.311,3.094c-0.199,-0.4 -0.416,-0.744 -0.645,-1.031c1.575,-0.916 2.764,-2.105 3.566,-3.566l1.244,0.129l-0.301,0.473c0.831,1.203 1.893,2.148 3.182,2.836c-0.06,0.115 -0.158,0.287 -0.303,0.516c-0.109,0.228 -0.209,0.415 -0.295,0.557zm-4.039,5.457c-1.117,0.028 -1.662,-0.487 -1.633,-1.547l0,-4.254l1.16,0l0,1.805c1.174,-0.486 2.206,-1.062 3.094,-1.719l0.73,0.902c-1.146,0.745 -2.421,1.404 -3.824,1.977l0,1.074c-0.029,0.573 0.258,0.846 0.857,0.816l1.463,0c0.571,0.029 0.888,-0.243 0.943,-0.816c0.086,-0.344 0.145,-0.83 0.172,-1.461c0.432,0.146 0.804,0.258 1.117,0.344c-0.086,0.659 -0.172,1.246 -0.258,1.762c-0.146,0.744 -0.73,1.117 -1.762,1.117l-2.059,0z" fill="#595757"/>
   <path id="svg_78" d="m439.146,268.227l0,-1.117l4.77,0c-0.172,-0.516 -0.371,-1.017 -0.602,-1.504l1.332,-0.215c0.086,0.287 0.229,0.702 0.43,1.246c0.086,0.201 0.145,0.358 0.172,0.473l4.082,0l0,1.117l-1.762,0c-0.43,1.805 -1.218,3.309 -2.363,4.512c1.117,0.745 2.521,1.318 4.211,1.719c-0.258,0.314 -0.501,0.673 -0.729,1.074c-1.919,-0.573 -3.409,-1.231 -4.469,-1.977c-0.859,0.631 -2.32,1.332 -4.383,2.105c-0.174,-0.315 -0.416,-0.702 -0.73,-1.16c1.719,-0.458 3.122,-1.045 4.211,-1.762c-1.175,-1.203 -1.977,-2.707 -2.406,-4.512l-1.764,0.001l0,0zm5.071,3.738c1.06,-0.974 1.747,-2.22 2.062,-3.738l-4.125,0c0.342,1.461 1.031,2.707 2.063,3.738z" fill="#595757"/>
   <path id="svg_79" d="m450.146,268.484l0,-1.074l1.074,0l0,-1.934l1.031,0l0,1.934l0.814,0l0,1.074l-0.814,0l0,1.891l0.9,-0.258c0,0.401 0,0.773 0,1.117c-0.229,0.029 -0.53,0.101 -0.9,0.215l0,2.793c0.026,0.83 -0.346,1.26 -1.117,1.289c-0.229,0.028 -0.518,0.043 -0.859,0.043c-0.029,-0.315 -0.086,-0.688 -0.172,-1.117c0.143,0.028 0.344,0.043 0.602,0.043c0.346,0.028 0.518,-0.143 0.518,-0.516l0,-2.234l-1.074,0.301l-0.129,-1.16c0.372,-0.086 0.771,-0.172 1.203,-0.258l0,-2.148l-1.077,-0.001l0,0zm3.094,-1.117l0,-0.902l3.008,0c-0.027,-0.114 -0.086,-0.271 -0.172,-0.473c-0.058,-0.229 -0.113,-0.387 -0.172,-0.473l1.203,-0.129c0.028,0.058 0.057,0.158 0.086,0.301c0.086,0.172 0.172,0.43 0.258,0.773l2.965,0l0,0.902l-2.275,0l0.857,0.172c-0.058,0.086 -0.144,0.215 -0.258,0.387c-0.172,0.258 -0.313,0.459 -0.43,0.602l1.676,0l0,5.93c0.028,0.716 -0.344,1.074 -1.117,1.074c-0.287,0 -0.673,0 -1.158,0c-0.029,-0.229 -0.103,-0.53 -0.217,-0.902c0.372,0 0.718,0 1.031,0c0.344,0 0.501,-0.129 0.473,-0.387l0,-4.855l-4.555,0l0,6.273l-0.945,0l0,-7.133l1.635,0c-0.26,-0.458 -0.475,-0.787 -0.646,-0.988l0.73,-0.172l-1.977,0zm1.674,3.738l0,-0.816l1.332,0l0,-0.645l0.945,0l0,0.645l1.375,0l0,0.816l-1.375,0l0,0.816l1.074,0l0,2.535l-3.094,0l0,-2.535l1.072,0l0,-0.816l-1.329,0zm1.375,-2.578l-0.086,0l0.988,0c0.028,-0.057 0.086,-0.143 0.172,-0.258c0.258,-0.4 0.432,-0.701 0.518,-0.902l-2.32,0c0.314,0.459 0.556,0.846 0.728,1.16zm-0.299,4.168l0,1.031l1.461,0l0,-1.031l-1.461,0z" fill="#595757"/>
   <path id="svg_80" d="m461.361,266.766l0,-0.902l9.797,0l0,0.902l-3.051,0l0,0.902l2.621,0l0,2.879l-5.629,0l1.031,0.086c-0.174,0.287 -0.358,0.559 -0.561,0.816l5.887,0l0,0.902l-2.062,0c-0.401,0.688 -0.874,1.218 -1.418,1.59c0.945,0.258 1.948,0.502 3.008,0.73l-0.473,0.988c-0.544,-0.172 -1.348,-0.43 -2.406,-0.773c-0.544,-0.172 -0.945,-0.301 -1.203,-0.387c-1.175,0.544 -2.908,0.945 -5.199,1.203c-0.027,-0.086 -0.101,-0.258 -0.215,-0.516c-0.086,-0.229 -0.144,-0.387 -0.172,-0.473c1.833,-0.172 3.165,-0.357 3.996,-0.559c-0.344,-0.114 -0.859,-0.271 -1.547,-0.473c-0.487,-0.143 -0.859,-0.258 -1.117,-0.344c0.172,-0.172 0.387,-0.415 0.646,-0.73c0.086,-0.114 0.155,-0.2 0.215,-0.258l-2.449,0l0,-0.902l3.18,0c0.2,-0.286 0.401,-0.587 0.604,-0.902l-3.053,0l0,-2.879l2.621,0l0,-0.902l-3.052,0l0,0.002l0.001,0zm1.461,1.804l0,1.117l1.59,0l0,-1.117l-1.59,0zm3.824,5.028c0.602,-0.344 1.06,-0.759 1.375,-1.246l-3.137,0c-0.06,0.058 -0.146,0.158 -0.258,0.301c-0.146,0.144 -0.244,0.258 -0.303,0.344c0.459,0.114 1.234,0.315 2.323,0.601zm-1.16,-6.832l0,0.902l1.547,0l0,-0.902l-1.547,0zm0,1.804l0,1.117l1.547,0l0,-1.117l-1.547,0zm4.254,0l-1.633,0l0,1.117l1.633,0l0,-1.117z" fill="#595757"/>
   <path id="svg_81" d="m473.392,268.699l0,-0.902l6.402,0l0,-0.945l-6.66,0l0,-0.945l7.775,0l0,3.738l1.504,0l0,0.945l-4.512,0l0,0.258c0.344,0.545 0.673,1.003 0.988,1.375c0.771,-0.458 1.461,-0.945 2.062,-1.461l0.773,0.859c-0.172,0.115 -0.444,0.287 -0.816,0.516c-0.516,0.344 -0.917,0.604 -1.201,0.773c0.716,0.487 1.633,0.874 2.75,1.16c-0.06,0.086 -0.131,0.215 -0.217,0.387c-0.086,0.086 -0.215,0.301 -0.387,0.645c-1.891,-0.573 -3.208,-1.432 -3.953,-2.578l0,1.59c0.059,0.945 -0.399,1.432 -1.375,1.461c-0.573,0 -1.003,0.014 -1.289,0.043c-0.027,-0.201 -0.086,-0.473 -0.172,-0.816c-0.029,-0.115 -0.058,-0.201 -0.086,-0.258c0.344,0 0.702,0 1.074,0c0.516,0.028 0.759,-0.186 0.729,-0.645l0,-0.859l-4.34,1.848l-0.387,-1.074c0.114,-0.028 0.286,-0.1 0.516,-0.215c0.458,-0.172 1.16,-0.443 2.105,-0.816c-0.258,-0.2 -0.716,-0.516 -1.375,-0.945c-0.201,-0.143 -0.358,-0.258 -0.474,-0.344l0.646,-0.773c0.172,0.115 0.43,0.272 0.772,0.473c0.517,0.315 0.901,0.559 1.159,0.73l-0.688,0.859c0.688,-0.314 1.375,-0.615 2.062,-0.902l0,-1.289l-4.684,0l0,-0.945l7.69,0l0,-0.945l-6.396,0l0,-0.003l0.005,0z" fill="#595757"/>
   <path id="svg_82" d="m484.092,275.746c-0.115,-0.058 -0.287,-0.158 -0.518,-0.301c-0.258,-0.144 -0.442,-0.258 -0.559,-0.344c0.43,-0.658 0.716,-1.303 0.859,-1.934c0.143,-0.63 0.215,-1.575 0.215,-2.836l0,-4.383l8.766,0l0,8.207c0.057,0.945 -0.416,1.403 -1.418,1.375c-0.373,0.028 -0.831,0.043 -1.375,0.043c-0.029,-0.086 -0.058,-0.215 -0.086,-0.387c-0.058,-0.315 -0.115,-0.559 -0.172,-0.73c0.143,0 0.344,0.014 0.602,0.043c0.26,0 0.444,0 0.561,0c0.516,0.028 0.759,-0.157 0.729,-0.559l0,-1.418l-2.707,0l0,2.922l-1.16,0l0,-2.922l-2.619,0c-0.059,1.033 -0.431,2.107 -1.118,3.224zm1.203,-5.414c0,0.144 -0.017,0.358 -0.043,0.645c0,0.229 0,0.401 0,0.516l2.576,0l0,-1.719l-2.533,0l0,0.558zm0,-3.309l0,1.719l2.533,0l0,-1.719l-2.533,0zm6.402,0l-2.707,0l0,1.719l2.707,0l0,-1.719zm-2.707,2.75l0,1.719l2.707,0l0,-1.719l-2.707,0z" fill="#595757"/>
   <path id="svg_83" d="m494.318,267.152l0,-0.945l3.609,0l0,0.945l-1.375,0c-0.172,0.745 -0.401,1.461 -0.688,2.148l1.719,0l0,5.113l-1.762,0l0,0.73l-0.9,0l0,-3.867c-0.06,0.086 -0.146,0.229 -0.26,0.43c-0.144,0.172 -0.242,0.315 -0.301,0.43c-0.115,-0.43 -0.244,-0.83 -0.387,-1.203c0.716,-1.06 1.217,-2.32 1.504,-3.781l-1.159,0zm2.449,6.317l0,-3.223l-0.945,0l0,3.223l0.945,0zm1.418,-4.383c-0.058,-0.086 -0.172,-0.229 -0.344,-0.43c-0.146,-0.143 -0.244,-0.243 -0.303,-0.301c0.89,-0.859 1.635,-1.861 2.234,-3.008l1.161,0.129l-0.473,0.816l2.75,0l0,0.945l-0.773,0.945l1.676,0l0,6.145c0.027,0.802 -0.314,1.203 -1.029,1.203c-0.26,0.028 -0.547,0.043 -0.859,0.043c-0.059,-0.258 -0.129,-0.573 -0.215,-0.945c0.199,0 0.414,0 0.645,0c0.371,0.028 0.543,-0.115 0.518,-0.43l0,-0.988l-1.418,0l0,2.062l-0.988,0l0,-2.062l-1.461,0c-0.086,0.889 -0.389,1.719 -0.902,2.492c-0.287,-0.201 -0.587,-0.416 -0.902,-0.645c0.401,-0.516 0.646,-1.017 0.73,-1.504c0.114,-0.516 0.172,-1.346 0.172,-2.492l0,-2.148l-0.219,0.173zm3.825,-1.891l-2.106,0c-0.258,0.315 -0.53,0.645 -0.814,0.988l2.104,0l0.816,-0.988zm-2.622,3.953c0,0.459 -0.017,0.874 -0.043,1.246l1.418,0l0,-1.246l-1.375,0zm0,-2.062l0,1.203l1.375,0l0,-1.203l-1.375,0zm3.782,0l-1.418,0l0,1.203l1.418,0l0,-1.203zm-1.418,2.062l0,1.246l1.418,0l0,-1.246l-1.418,0z" fill="#595757"/>
   <path id="svg_84" d="m506.651,275.016l-0.771,-0.816c0.258,-0.344 0.387,-0.688 0.387,-1.031l0,-3.223l-1.203,0l0,-1.074l2.32,0l0,3.91c0.229,-0.172 0.699,-0.615 1.418,-1.332c0.086,0.401 0.197,0.773 0.344,1.117c-0.746,0.688 -1.348,1.261 -1.805,1.719c-0.319,0.285 -0.548,0.528 -0.69,0.73zm0.859,-6.961c-0.432,-0.516 -0.977,-1.131 -1.633,-1.848l0.9,-0.688c0.543,0.545 1.117,1.132 1.719,1.762l-0.986,0.774zm1.375,7.648c-0.258,-0.401 -0.518,-0.745 -0.773,-1.031c1.979,-1.461 2.965,-3.709 2.965,-6.746c0,-0.314 0.016,-0.816 0.043,-1.504c0,-0.43 0,-0.716 0,-0.859l1.203,0c0,0.773 -0.016,1.361 -0.043,1.762c0.285,3.523 1.346,5.901 3.18,7.133c-0.086,0.086 -0.215,0.258 -0.387,0.516c-0.201,0.258 -0.344,0.443 -0.43,0.559c-1.461,-1.174 -2.395,-2.836 -2.793,-4.984c-0.344,2.004 -1.332,3.722 -2.965,5.154z" fill="#595757"/>
  </g>
  <g id="svg_85">
   <path id="svg_86" d="m428.06,289.046l0,-1.117l7.477,0l0,1.117l-7.477,0zm4.768,2.578c-0.027,-0.373 -0.113,-0.76 -0.258,-1.16c0.688,0.029 1.403,0.043 2.148,0.043c1.002,0.029 1.504,-0.344 1.504,-1.117c0.114,-0.945 0.172,-1.891 0.172,-2.836l-6.918,0l0.43,-5.027l1.246,0l-0.129,1.418l7.262,0l0,1.117l-7.348,0l-0.129,1.418l6.918,0c-0.029,0.631 -0.101,1.69 -0.215,3.18c-0.029,0.401 -0.043,0.702 -0.043,0.902c0,1.403 -0.773,2.091 -2.32,2.062c-0.829,0 -1.602,0 -2.32,0z" fill="#595757"/>
   <path id="svg_87" d="m448.814,286.167c-0.544,-0.286 -1.031,-0.559 -1.461,-0.816l0,0.988l-2.492,0l0,1.375l3.225,0l0,1.074l-3.225,0l0,1.504l4.211,0l0,1.031l-9.625,0l0,-1.031l4.168,0l0,-1.504l-3.223,0l0,-1.074l3.223,0l0,-1.375l-2.449,0l0,-0.945c-0.458,0.315 -0.974,0.602 -1.547,0.859c-0.172,-0.286 -0.387,-0.615 -0.645,-0.988c2.232,-1.117 3.838,-2.392 4.812,-3.824l1.332,0.129l-0.172,0.301c1.146,1.375 2.649,2.449 4.512,3.223c-0.027,0.029 -0.058,0.086 -0.086,0.172c-0.257,0.428 -0.444,0.729 -0.558,0.901zm-4.512,-3.48c-0.773,0.945 -1.764,1.805 -2.965,2.578l5.887,0c-1.174,-0.716 -2.15,-1.576 -2.922,-2.578z" fill="#595757"/>
   <path id="svg_88" d="m450.146,284.319l0,-1.117l4.77,0c-0.172,-0.516 -0.371,-1.017 -0.602,-1.504l1.332,-0.215c0.086,0.287 0.229,0.702 0.43,1.246c0.086,0.201 0.145,0.358 0.172,0.473l4.082,0l0,1.117l-1.762,0c-0.43,1.805 -1.218,3.309 -2.363,4.512c1.117,0.745 2.521,1.318 4.211,1.719c-0.258,0.314 -0.501,0.673 -0.729,1.074c-1.919,-0.573 -3.409,-1.231 -4.469,-1.977c-0.859,0.631 -2.32,1.332 -4.383,2.105c-0.174,-0.315 -0.416,-0.702 -0.73,-1.16c1.719,-0.458 3.122,-1.045 4.211,-1.762c-1.175,-1.203 -1.977,-2.707 -2.406,-4.512l-1.764,0.001l0,0zm5.071,3.739c1.06,-0.974 1.747,-2.22 2.062,-3.738l-4.125,0c0.342,1.46 1.031,2.706 2.063,3.738z" fill="#595757"/>
   <path id="svg_89" d="m461.189,284.491l0,-1.031l1.203,0l0,-1.891l1.031,0l0,1.891l1.158,0l0,1.031l-1.158,0l0,1.891l1.072,-0.215c-0.027,0.43 -0.027,0.788 0,1.074l-1.072,0.258l0,2.922c0.026,0.83 -0.33,1.246 -1.074,1.246c-0.258,0.028 -0.604,0.043 -1.031,0.043c-0.029,-0.229 -0.072,-0.53 -0.129,-0.902c-0.029,-0.115 -0.043,-0.187 -0.043,-0.215c0.086,0 0.329,0 0.73,0c0.37,0.028 0.544,-0.129 0.516,-0.473l0,-2.32l-1.289,0.344l-0.086,-1.203c0.114,-0.028 0.286,-0.071 0.516,-0.129c0.372,-0.086 0.659,-0.143 0.859,-0.172l0,-2.148l-1.203,-0.001l0,0zm9.711,7.219c-1.23,-0.344 -2.277,-0.76 -3.137,-1.246c-0.831,0.486 -1.893,0.931 -3.182,1.332c-0.058,-0.115 -0.144,-0.287 -0.258,-0.516c-0.144,-0.229 -0.244,-0.401 -0.301,-0.516c1.146,-0.229 2.105,-0.572 2.879,-1.031c-0.716,-0.716 -1.261,-1.504 -1.633,-2.363l0.473,-0.258l-0.729,0l0,-1.031l5.629,0l0,1.074c-0.458,0.975 -1.104,1.834 -1.936,2.578c0.773,0.459 1.704,0.773 2.795,0.945c-0.115,0.172 -0.287,0.458 -0.518,0.859c-0.027,0.087 -0.054,0.144 -0.082,0.173zm-5.758,-5.887c-0.258,-0.344 -0.487,-0.646 -0.688,-0.902c0.976,-0.43 1.418,-1.146 1.332,-2.148l0,-0.816l4.211,0l0,1.805c-0.027,0.43 0.157,0.631 0.561,0.602l0.9,0c-0.058,0.201 -0.113,0.487 -0.172,0.859c0,0.058 0,0.101 0,0.129l-1.158,0c-0.859,0.029 -1.275,-0.357 -1.246,-1.16l0,-1.246l-2.021,0l0,0.301c0.057,1.087 -0.516,1.946 -1.719,2.576zm4.254,1.289l-3.094,0c0.399,0.803 0.9,1.461 1.504,1.977c0.716,-0.544 1.246,-1.203 1.59,-1.977z" fill="#595757"/>
   <path id="svg_90" d="m472.318,283.159c0,-0.114 -0.015,-0.271 -0.043,-0.473c-0.029,-0.229 -0.058,-0.387 -0.086,-0.473c0.63,-0.028 1.518,-0.086 2.664,-0.172c0.2,-0.028 0.358,-0.043 0.473,-0.043l0.172,0.945c-0.027,0 -0.07,0 -0.129,0c-0.287,0.058 -0.602,0.086 -0.943,0.086l0,1.59l1.16,0l0,0.988l-1.16,0l0,0.73c0.086,0.058 0.198,0.144 0.344,0.258c0.401,0.344 0.716,0.616 0.945,0.816l-0.518,0.902l-0.771,-0.816l0,4.297l-0.988,0l0,-4.125c-0.315,0.803 -0.688,1.519 -1.117,2.148c-0.029,-0.114 -0.072,-0.286 -0.129,-0.516c-0.086,-0.312 -0.158,-0.544 -0.215,-0.688c0.63,-0.945 1.103,-1.947 1.418,-3.008l-1.246,0l0,-0.988l1.289,0l0,-1.504l-1.12,0.046zm3.481,0.215l0,-0.859l2.621,0l-0.217,-0.902l1.16,-0.086c0.059,0.315 0.129,0.645 0.215,0.988l2.75,0l0,0.859l-6.529,0zm0,8.379l0,-4.941l6.314,0l0,3.738c0.059,0.773 -0.301,1.16 -1.072,1.16c-0.346,0 -0.702,0 -1.074,0c0,-0.029 -0.017,-0.086 -0.043,-0.172c-0.029,-0.315 -0.072,-0.559 -0.129,-0.73c0.112,0.028 0.399,0.043 0.857,0.043c0.344,0.028 0.501,-0.101 0.475,-0.387l0,-2.793l-4.342,0l0,4.082l-0.986,0zm0.644,-5.543l0,-2.234l5.027,0l0,2.234l-5.027,0zm0.988,-1.504l0,0.773l3.051,0l0,-0.773l-3.051,0zm0.086,5.844l0,-2.234l2.836,0l0,2.234l-2.836,0zm0.817,-1.547l0,0.902l1.244,0l0,-0.902l-1.244,0z" fill="#595757"/>
   <path id="svg_91" d="m483.66,283.245l0,-1.117l9.367,0l0,1.117l-1.891,0l0,2.836l2.318,0l0,1.117l-2.318,0l0,4.469l-1.203,0l0,-4.469l-3.051,0c0.026,2.092 -0.859,3.638 -2.664,4.641c-0.172,-0.201 -0.475,-0.516 -0.902,-0.945c1.633,-0.773 2.42,-2.005 2.363,-3.695l-2.535,0l0,-1.117l2.535,0l0,-2.836l-2.019,-0.001l0,0zm3.225,0l0,2.836l3.051,0l0,-2.836l-3.051,0z" fill="#595757"/>
   <path id="svg_92" d="m497.713,290.808l-1.074,-0.902c-0.458,0.573 -1.104,1.188 -1.936,1.848l-0.729,-0.859c0.802,-0.572 1.418,-1.16 1.848,-1.762l-1.504,-1.375c0.229,-0.83 0.444,-1.891 0.646,-3.18l-0.902,0l0,-1.031l1.074,0c0.086,-0.688 0.172,-1.375 0.258,-2.062l1.117,0.129c-0.086,0.401 -0.172,0.96 -0.258,1.676c0.057,-0.43 0.043,-0.344 -0.043,0.258l1.977,0l0,1.031c-0.144,1.948 -0.458,3.409 -0.945,4.383l1.246,1.074l-0.775,0.772zm-0.559,-6.231l-1.117,0c-0.172,1.089 -0.373,2.049 -0.602,2.879c0.114,0.086 0.271,0.215 0.473,0.387c0.229,0.172 0.389,0.301 0.475,0.387c0.398,-0.831 0.654,-2.048 0.771,-3.653zm1.502,1.504l-0.473,-1.074c0.258,-0.143 0.516,-0.387 0.771,-0.73c0.518,-0.716 1.062,-1.646 1.635,-2.793l1.16,0.43c-0.805,1.261 -1.49,2.264 -2.063,3.008c0.487,-0.028 1.303,-0.071 2.45,-0.129c-0.172,0.029 0,0.029 0.516,0c-0.059,-0.114 -0.158,-0.271 -0.301,-0.473c-0.23,-0.4 -0.402,-0.701 -0.516,-0.902l0.9,-0.473c0.432,0.631 0.959,1.519 1.59,2.664c0.086,0.172 0.156,0.301 0.217,0.387l-0.988,0.516c-0.115,-0.229 -0.244,-0.473 -0.387,-0.729c-1.748,0.058 -2.924,0.115 -3.524,0.172c-0.4,-0.003 -0.729,0.04 -0.987,0.126zm0.086,5.715l0,-4.727l5.071,0l0,4.727l-1.117,0l0,-0.645l-2.836,0l0,0.645l-1.118,0zm1.119,-3.738l0,2.148l2.836,0l0,-2.148l-2.836,0z" fill="#595757"/>
  </g>
  <g id="svg_93">
   <g id="svg_94">
    <path id="svg_95" d="m585.627,112.243c0.106,6.289 -2.217,9.379 -6.975,9.27c-4.594,-0.11 -6.92,-3.171 -6.973,-9.188c0.164,-6.124 2.486,-9.297 6.973,-9.516c4.594,0.055 6.92,3.2 6.975,9.434zm-4.265,0.082c0.053,-4.43 -0.82,-6.59 -2.625,-6.48c-1.858,-0.054 -2.789,2.105 -2.789,6.48c0,4.212 0.931,6.316 2.789,6.316c1.804,0.001 2.675,-2.104 2.625,-6.316z" fill="#898989"/>
    <path id="svg_96" d="m587.432,117.083l3.689,-0.574c0.328,1.423 1.177,2.133 2.545,2.133c2.075,0.055 3.17,-1.858 3.279,-5.742c-0.932,1.203 -2.297,1.833 -4.102,1.887c-3.665,-0.164 -5.578,-2.022 -5.742,-5.578c0.271,-4.047 2.514,-6.18 6.727,-6.398c4.866,-0.164 7.221,2.899 7.057,9.188c0,6.289 -2.437,9.461 -7.301,9.516c-3.445,-0.002 -5.496,-1.479 -6.152,-4.432zm9.349,-8.039c-0.056,-2.078 -1.064,-3.145 -3.034,-3.199c-1.753,0.11 -2.682,1.148 -2.788,3.117c0.053,1.859 1.011,2.844 2.869,2.953c1.913,-0.054 2.9,-1.012 2.953,-2.871z" fill="#898989"/>
    <path id="svg_97" d="m606.545,121.267l-4.268,0l0,-4.102l4.268,0l0,4.102z" fill="#898989"/>
    <path id="svg_98" d="m621.967,112.243c0.106,6.289 -2.215,9.379 -6.975,9.27c-4.594,-0.11 -6.92,-3.171 -6.973,-9.188c0.164,-6.124 2.487,-9.297 6.973,-9.516c4.596,0.055 6.917,3.2 6.975,9.434zm-4.268,0.082c0.055,-4.43 -0.818,-6.59 -2.625,-6.48c-1.858,-0.054 -2.789,2.105 -2.789,6.48c0,4.212 0.931,6.316 2.789,6.316c1.807,0.001 2.68,-2.104 2.625,-6.316z" fill="#898989"/>
    <path id="svg_99" d="m636.897,107.321l-3.773,0.656c-0.326,-1.477 -1.146,-2.187 -2.461,-2.133c-2.133,-0.054 -3.229,1.859 -3.279,5.742c0.929,-1.258 2.297,-1.914 4.102,-1.969c3.609,0.219 5.549,2.133 5.824,5.742c-0.22,3.938 -2.437,5.988 -6.646,6.152c-4.922,0.164 -7.33,-2.925 -7.219,-9.27c0.164,-6.124 2.543,-9.271 7.137,-9.434c3.444,0.003 5.547,1.507 6.315,4.514zm-3.448,8.285c-0.056,-1.914 -1.04,-2.898 -2.953,-2.953c-1.858,0.055 -2.845,0.984 -2.951,2.789c0.053,1.969 1.093,3.008 3.115,3.117c1.749,-0.163 2.68,-1.148 2.789,-2.953z" fill="#898989"/>
   </g>
  </g>
  <g id="svg_100">
   <path id="svg_101" d="m702.267,257.354l-4.021,0l0,-12.633c-1.805,1.312 -3.72,2.297 -5.741,2.953l0,-3.445c2.897,-1.094 5.112,-2.761 6.646,-5.004l3.117,0l0,18.129l-0.001,0z" fill="#898989"/>
   <path id="svg_102" d="m718.836,248.33c0.108,6.289 -2.216,9.379 -6.974,9.27c-4.594,-0.11 -6.919,-3.171 -6.973,-9.188c0.164,-6.124 2.487,-9.297 6.973,-9.516c4.594,0.055 6.919,3.2 6.974,9.434zm-4.264,0.082c0.055,-4.43 -0.819,-6.59 -2.625,-6.48c-1.858,-0.054 -2.789,2.105 -2.789,6.48c0,4.212 0.931,6.316 2.789,6.316c1.803,0.001 2.676,-2.104 2.625,-6.316z" fill="#898989"/>
   <path id="svg_103" d="m724.66,257.354l-4.266,0l0,-4.102l4.266,0l0,4.102z" fill="#898989"/>
   <path id="svg_104" d="m735.736,257.354l-4.021,0l0,-12.633c-1.806,1.312 -3.721,2.297 -5.741,2.953l0,-3.445c2.896,-1.094 5.112,-2.761 6.645,-5.004l3.117,0l0,18.129z" fill="#898989"/>
   <path id="svg_105" d="m742.297,248.002l0,-0.082c-2.188,-0.546 -3.311,-1.94 -3.362,-4.184c0.328,-3.062 2.487,-4.676 6.479,-4.84c3.991,0.164 6.152,1.777 6.48,4.84c0,2.188 -1.259,3.582 -3.773,4.184c2.734,0.547 4.155,2.023 4.268,4.43c-0.057,3.499 -2.518,5.25 -7.384,5.25c-4.267,-0.11 -6.479,-1.805 -6.646,-5.086c0.111,-2.351 1.422,-3.856 3.938,-4.512zm5.988,4.43c0.056,-1.477 -0.957,-2.461 -3.034,-2.953c-1.858,0.492 -2.789,1.449 -2.789,2.871c0.108,1.587 1.065,2.434 2.87,2.543c1.914,-0.054 2.9,-0.874 2.953,-2.461zm-0.492,-8.45c0,-1.422 -0.793,-2.133 -2.38,-2.133c-1.53,0.055 -2.324,0.767 -2.379,2.133c-0.055,1.203 0.738,2.023 2.379,2.461c1.587,-0.437 2.38,-1.257 2.38,-2.461z" fill="#898989"/>
   <path id="svg_106" d="m765.103,249.725l-11.484,0l0,-2.789l11.484,0l0,2.789z" fill="#898989"/>
   <path id="svg_107" d="m775.931,257.354l-4.021,0l0,-12.633c-1.805,1.312 -3.72,2.297 -5.741,2.953l0,-3.445c2.897,-1.094 5.112,-2.761 6.646,-5.004l3.117,0l0,18.129l-0.001,0z" fill="#898989"/>
   <path id="svg_108" d="m792.5,248.33c0.108,6.289 -2.216,9.379 -6.974,9.27c-4.594,-0.11 -6.919,-3.171 -6.973,-9.188c0.163,-6.124 2.486,-9.297 6.973,-9.516c4.595,0.055 6.921,3.2 6.974,9.434zm-4.264,0.082c0.054,-4.43 -0.819,-6.59 -2.625,-6.48c-1.858,-0.054 -2.789,2.105 -2.789,6.48c0,4.212 0.931,6.316 2.789,6.316c1.802,0.001 2.677,-2.104 2.625,-6.316z" fill="#898989"/>
   <path id="svg_109" d="m798.324,257.354l-4.266,0l0,-4.102l4.266,0l0,4.102z" fill="#898989"/>
   <path id="svg_110" d="m804.56,254.154l8.612,0l0,3.199l-13.37,0l0,-2.379c1.528,-2.297 3.309,-4.184 5.332,-5.66c2.843,-2.133 4.153,-3.719 3.938,-4.758c-0.055,-1.586 -0.875,-2.379 -2.461,-2.379c-1.641,-0.054 -2.653,0.957 -3.035,3.035l-3.689,-0.738c0.71,-3.663 3.145,-5.496 7.301,-5.496c3.772,0.164 5.796,1.887 6.069,5.168c0.272,2.297 -1.065,4.294 -4.021,5.988c-1.915,1.368 -3.474,2.708 -4.676,4.02z" fill="#898989"/>
   <path id="svg_111" d="m828.595,248.33c0.107,6.289 -2.216,9.379 -6.975,9.27c-4.594,-0.11 -6.919,-3.171 -6.973,-9.188c0.164,-6.124 2.487,-9.297 6.973,-9.516c4.595,0.055 6.918,3.2 6.975,9.434zm-4.267,0.082c0.056,-4.43 -0.819,-6.59 -2.625,-6.48c-1.857,-0.054 -2.789,2.105 -2.789,6.48c0,4.212 0.932,6.316 2.789,6.316c1.806,0.001 2.679,-2.104 2.625,-6.316z" fill="#898989"/>
  </g>
  <g id="svg_112">
   <g id="svg_113">
    <path id="svg_114" d="m833.356,120.266l-4.02,0l0,-12.633c-1.807,1.312 -3.722,2.297 -5.742,2.953l0,-3.445c2.896,-1.094 5.111,-2.761 6.645,-5.004l3.117,0l0,18.129z" fill="#898989"/>
    <path id="svg_115" d="m849.926,111.242c0.107,6.289 -2.215,9.379 -6.975,9.27c-4.594,-0.11 -6.919,-3.171 -6.973,-9.188c0.164,-6.124 2.488,-9.297 6.973,-9.516c4.596,0.055 6.918,3.2 6.975,9.434zm-4.268,0.082c0.056,-4.43 -0.818,-6.59 -2.625,-6.48c-1.857,-0.054 -2.789,2.105 -2.789,6.48c0,4.212 0.932,6.316 2.789,6.316c1.807,0.001 2.681,-2.104 2.625,-6.316z" fill="#898989"/>
    <path id="svg_116" d="m855.75,120.266l-4.268,0l0,-4.102l4.268,0l0,4.102z" fill="#898989"/>
    <path id="svg_117" d="m861.985,117.066l8.613,0l0,3.199l-13.371,0l0,-2.379c1.53,-2.297 3.309,-4.184 5.332,-5.66c2.843,-2.133 4.155,-3.719 3.938,-4.758c-0.055,-1.586 -0.875,-2.379 -2.461,-2.379c-1.641,-0.054 -2.651,0.957 -3.035,3.035l-3.689,-0.738c0.71,-3.663 3.145,-5.496 7.301,-5.496c3.773,0.164 5.796,1.887 6.07,5.168c0.271,2.297 -1.066,4.294 -4.021,5.988c-1.919,1.368 -3.475,2.708 -4.677,4.02z" fill="#898989"/>
    <path id="svg_118" d="m881.672,120.266l-4.021,0l0,-12.633c-1.805,1.312 -3.72,2.297 -5.742,2.953l0,-3.445c2.898,-1.094 5.113,-2.761 6.646,-5.004l3.117,0l0,18.129z" fill="#898989"/>
   </g>
  </g>
  <g id="svg_119">
   <rect id="svg_120" height="2" width="92.592" fill="#3FA304" y="185.582" x="112.833"/>
  </g>
  <g id="svg_121">
   <path id="svg_122" d="m51.828,188.797l5.797,0l0,1.258l-7.82,0l0,-0.93c0.766,-1.422 1.932,-2.734 3.5,-3.938c1.859,-1.312 2.716,-2.369 2.57,-3.172c-0.037,-1.239 -0.729,-1.877 -2.078,-1.914c-1.203,0 -1.969,0.711 -2.297,2.133l-1.531,-0.492c0.547,-2.005 1.914,-3.008 4.102,-3.008c2.226,0.073 3.409,1.112 3.557,3.117c0.182,1.312 -0.711,2.607 -2.682,3.883c-1.387,0.949 -2.426,1.969 -3.118,3.063z" fill="#FFFFFF"/>
   <path id="svg_123" d="m63.148,178.734c2.625,0.037 3.956,1.969 3.992,5.797c0,3.865 -1.331,5.778 -3.992,5.742c-2.662,-0.037 -4.011,-1.95 -4.047,-5.742c0.073,-3.755 1.422,-5.687 4.047,-5.797zm0,10.336c1.495,0.037 2.242,-1.458 2.242,-4.484c0.036,-3.099 -0.711,-4.611 -2.242,-4.539c-1.495,-0.036 -2.242,1.477 -2.242,4.539c0,3.026 0.747,4.521 2.242,4.484z" fill="#FFFFFF"/>
   <path id="svg_124" d="m71.679,190.109l0,-8.75c-0.839,0.803 -1.987,1.514 -3.445,2.133c0,-0.51 0,-1.002 0,-1.477c1.896,-0.875 3.172,-1.95 3.828,-3.227l1.258,0l0,11.32l-1.641,0.001l0,0z" fill="#FFFFFF"/>
   <path id="svg_125" d="m78.187,184.312l0,-0.055c-1.24,-0.4 -1.896,-1.239 -1.969,-2.516c0.182,-1.896 1.422,-2.898 3.719,-3.008c2.226,0.109 3.445,1.112 3.664,3.008c-0.037,1.35 -0.729,2.188 -2.078,2.516l0,0.055c1.567,0.365 2.39,1.312 2.461,2.844c-0.037,2.042 -1.438,3.08 -4.211,3.117c-2.552,-0.073 -3.863,-1.111 -3.938,-3.117c0.11,-1.494 0.894,-2.442 2.352,-2.844zm1.75,4.813c1.495,-0.036 2.26,-0.692 2.297,-1.969c-0.037,-1.275 -0.839,-2.005 -2.404,-2.188c-1.424,0.146 -2.169,0.857 -2.242,2.133c0.034,1.313 0.818,1.988 2.349,2.024zm0,-9.187c-1.24,0.073 -1.896,0.675 -1.969,1.805c0,1.131 0.656,1.769 1.969,1.914c1.239,-0.182 1.877,-0.802 1.914,-1.859c-0.036,-1.204 -0.674,-1.823 -1.914,-1.86z" fill="#FFFFFF"/>
   <path id="svg_126" d="m86.008,183.711c-0.073,-0.109 -0.183,-0.273 -0.328,-0.492c-0.109,-0.182 -0.292,-0.455 -0.547,-0.82c1.312,-1.166 2.352,-2.661 3.117,-4.484l1.641,0.164c-0.219,0.475 -0.438,0.912 -0.656,1.312l8.479,0l0,1.312l-4.431,0l0,2.133l4.103,0l0,1.312l-4.104,0l0,2.516l4.979,0l0,1.367l-4.979,0l0,3.008l-1.477,0l0,-3.008l-6.727,0l0,-1.367l2.022,0l0,-3.828l4.703,0l0,-2.133l-3.336,0c-0.619,0.985 -1.439,1.987 -2.459,3.008zm2.57,0.437l0,2.516l3.227,0l0,-2.516l-3.227,0z" fill="#FFFFFF"/>
  </g>
  <g id="svg_127">
   <circle id="svg_128" r="21.006" cy="184.667" cx="733.866" fill="#898989"/>
  </g>
  <g id="svg_129">
   <circle id="svg_130" r="10.553" cy="186" cx="843.871" fill="#898989"/>
  </g>
  <g id="svg_131">
   <rect id="svg_132" height="25.844" width="2" fill="#898989" y="173.66" x="928.823"/>
  </g>
  <g id="svg_133">
   <g id="svg_134">
    <circle id="svg_135" r="3.785" cy="186.582" cx="942.175" fill="#B5B5B6"/>
    <path id="svg_136" d="m942.175,191.367c-2.641,0 -4.785,-2.146 -4.785,-4.785s2.146,-4.785 4.785,-4.785c2.638,0 4.784,2.146 4.784,4.785s-2.146,4.785 -4.784,4.785zm0,-7.57c-1.536,0 -2.785,1.25 -2.785,2.785s1.249,2.785 2.785,2.785c1.534,0 2.784,-1.25 2.784,-2.785s-1.249,-2.785 -2.784,-2.785z" fill="#FFFFFF"/>
   </g>
   <g id="svg_137">
    <circle id="svg_138" r="3.785" cy="186.582" cx="952.864" fill="#B5B5B6"/>
    <path id="svg_139" d="m952.864,191.367c-2.639,0 -4.785,-2.146 -4.785,-4.785s2.146,-4.785 4.785,-4.785c2.641,0 4.785,2.146 4.785,4.785s-2.147,4.785 -4.785,4.785zm0,-7.57c-1.536,0 -2.785,1.25 -2.785,2.785s1.249,2.785 2.785,2.785s2.785,-1.25 2.785,-2.785s-1.249,-2.785 -2.785,-2.785z" fill="#FFFFFF"/>
   </g>
   <g id="svg_140">
    <circle id="svg_141" r="3.785" cy="186.582" cx="963.073" fill="#B5B5B6"/>
    <path id="svg_142" d="m963.073,191.367c-2.639,0 -4.785,-2.146 -4.785,-4.785s2.146,-4.785 4.785,-4.785c2.641,0 4.785,2.146 4.785,4.785s-2.145,4.785 -4.785,4.785zm0,-7.57c-1.536,0 -2.785,1.25 -2.785,2.785s1.249,2.785 2.785,2.785s2.785,-1.25 2.785,-2.785s-1.247,-2.785 -2.785,-2.785z" fill="#FFFFFF"/>
   </g>
  </g>
  <g id="svg_143">
   <path id="svg_144" d="m107.858,210.589l-66.722,0c-2.781,0 -5.044,-2.263 -5.044,-5.044l0,-39.09c0,-2.781 2.263,-5.044 5.044,-5.044l66.723,0c2.781,0 5.044,2.263 5.044,5.044l0,39.09c-0.001,2.781 -2.265,5.044 -5.045,5.044zm-66.722,-47.178c-1.678,0 -3.044,1.366 -3.044,3.044l0,39.09c0,1.678 1.366,3.044 3.044,3.044l66.722,0c1.68,0 3.044,-1.366 3.044,-3.044l0.001,-39.09c0,-1.678 -1.364,-3.044 -3.044,-3.044l-66.723,0z" fill="#3FA304"/>
  </g>
  <g id="svg_145">
   <circle id="svg_146" r="10.329" cy="186.582" cx="218.421" fill="#3FA304"/>
  </g>
  <g id="svg_147">
   <rect id="svg_148" height="2" width="89.285" fill="#898989" y="185.582" x="231.583"/>
  </g>
  <g id="svg_149">
   <rect id="svg_150" height="2" width="103.047" fill="#898989" y="185.582" x="346.716"/>
  </g>
  <g id="svg_151">
   <rect id="svg_152" height="2" width="105.62" fill="#898989" y="185.582" x="475.562"/>
  </g>
  <g id="svg_153">
   <rect id="svg_154" height="2" width="103.585" fill="#898989" y="185.582" x="607.028"/>
  </g>
  <g id="svg_155">
   <rect id="svg_156" height="2" width="73.739" fill="#898989" y="185" x="757.209"/>
  </g>
  <g id="svg_157">
   <rect id="svg_158" height="2" width="73.026" fill="#898989" y="185" x="856.795"/>
  </g>
  <g id="svg_159">
   <circle id="svg_160" r="10.329" cy="186" cx="333.386" fill="#898989"/>
  </g>
  <g id="svg_161">
   <circle id="svg_162" r="10.329" cy="186" cx="462.421" fill="#898989"/>
  </g>
  <g id="svg_163">
   <circle id="svg_164" r="10.329" cy="186" cx="594.088" fill="#898989"/>
  </g>
 </g>
</svg>
