<svg width="1000" height="288.209" xmlns="http://www.w3.org/2000/svg">
 <g>
  <title>background</title>
  <rect x="-1" y="-1" width="1002" height="290.209" id="canvas_background" fill="none"/>
 </g>

 <g>
  <title>Layer 1</title>
  <path fill="#F7F8F8" stroke="#C9CACA" stroke-miterlimit="10" d="m843.874,243.235c0,3.329 -4.559,6.027 -10.181,6.027l-147.638,0c-5.623,0 -10.182,-2.698 -10.182,-6.027l0,-56.255c0,-3.328 4.559,-6.027 10.182,-6.027l40.619,0l7.985,-13.065l8.944,13.065l90.089,0c5.623,0 10.181,2.699 10.181,6.027l0,56.255l0.001,0z" id="svg_1"/>
  <path fill="#F7F8F8" stroke="#C9CACA" stroke-miterlimit="10" d="m287.011,236.73c0,3.027 -2.903,5.481 -6.484,5.481l-94.027,0c-3.581,0 -6.484,-2.454 -6.484,-5.481l0,-51.161c0,-3.027 2.903,-5.481 6.484,-5.481l26.506,0l6.997,-11.882l6.971,11.882l53.553,0c3.581,0 6.484,2.455 6.484,5.481l0,51.161z" id="svg_2"/>
  <path fill="#F7F8F8" stroke="#C9CACA" stroke-miterlimit="10" d="m528.117,249.342c0,3.792 -3.122,6.865 -6.973,6.865l-101.107,0c-3.851,0 -6.973,-3.074 -6.973,-6.865l0,-64.072c0,-3.791 3.122,-6.865 6.973,-6.865l27.66,0l7.524,-12.2l5.811,12.2l60.114,0c3.851,0 6.973,3.074 6.973,6.865l0,64.072l-0.002,0z" id="svg_3"/>
  <path fill="#F7F8F8" stroke="#C9CACA" stroke-miterlimit="10" d="m908.833,52.567c0,-3.027 -2.824,-5.481 -6.307,-5.481l-91.46,0c-3.483,0 -6.308,2.454 -6.308,5.481l0,51.161c0,3.026 2.824,5.48 6.308,5.48l25.782,0l6.806,11.883l6.78,-11.883l52.091,0c3.483,0 6.307,-2.454 6.307,-5.48l0,-51.161l0.001,0z" id="svg_4"/>
  <path fill="#F7F8F8" stroke="#C9CACA" stroke-miterlimit="10" d="m660.524,52.567c0,-3.027 -2.903,-5.481 -6.484,-5.481l-94.027,0c-3.581,0 -6.484,2.454 -6.484,5.481l0,51.161c0,3.026 2.903,5.48 6.484,5.48l26.506,0l6.997,11.883l6.971,-11.883l53.553,0c3.581,0 6.484,-2.454 6.484,-5.48l0,-51.161z" id="svg_5"/>
  <path fill="#F7F8F8" stroke="#C9CACA" stroke-miterlimit="10" d="m401.213,52.567c0,-3.027 -2.903,-5.481 -6.484,-5.481l-94.027,0c-3.581,0 -6.484,2.454 -6.484,5.481l0,51.161c0,3.026 2.903,5.48 6.484,5.48l26.506,0l6.997,11.883l6.971,-11.883l53.553,0c3.581,0 6.484,-2.454 6.484,-5.48l0,-51.161z" id="svg_6"/>
  <path fill="#036EB8" d="m107.898,155.31c0,2.138 -1.733,3.871 -3.871,3.871l-59.03,0c-2.138,0 -3.871,-1.733 -3.871,-3.871l0,-29.999c0,-2.138 1.733,-3.871 3.871,-3.871l59.031,0c2.138,0 3.871,1.733 3.871,3.871l0,29.999l-0.001,0z" id="svg_7"/>
  <text transform="matrix(1,0,0,1,686.5786,231.502) " fill="#595757" font-family="'FZLTZHK--GBK1-0'" font-size="11" id="svg_8">召开会议</text>
  <text transform="matrix(1,0,0,1,193.1855,229.5112) " fill="#595757" font-family="'FZLTZHK--GBK1-0'" font-size="11" id="svg_9">摘要投稿开始</text>
  <text transform="matrix(1,0,0,1,310.5229,96.4263) " fill="#595757" font-family="'FZLTZHK--GBK1-0'" font-size="11" id="svg_10">论文摘要截止</text>
  <text transform="matrix(1,0,0,1,570.9434,96.4263) " fill="#595757" font-family="'FZLTZHK--GBK1-0'" font-size="11" id="svg_11">论文全文截止</text>
  <text transform="matrix(1,0,0,1,827.7915,93.4253) " fill="#595757" font-family="'FZLTZHK--GBK1-0'" font-size="13" id="svg_12">field trip</text>
  <text transform="matrix(1,0,0,1,195.187,210.8394) " fill="#036EB8" font-family="'FZLTTHK--GBK1-0'" font-size="21" id="svg_13">04.02</text>
  <text transform="matrix(1,0,0,1,310.5234,76.7539) " fill="#898989" font-family="'FZLTTHK--GBK1-0'" font-size="21" id="svg_14">06.30</text>
  <text transform="matrix(1,0,0,1,427.7598,210.8394) " fill="#898989" font-family="'FZLTTHK--GBK1-0'" font-size="21" id="svg_15">08.06</text>
  <text transform="matrix(1,0,0,1,427.7598,229.5112) " id="svg_16">
   <tspan x="0" y="0" fill="#595757" font-family="'FZLTZHK--GBK1-0'" font-size="11" id="svg_17">论文摘要录用确认</tspan>
   <tspan x="0" y="16.092" fill="#595757" font-family="'FZLTZHK--GBK1-0'" font-size="11" id="svg_18">与全文投稿开始</tspan>
  </text>
  <g id="svg_19">
   <text transform="matrix(1,0,0,1,570.9434,74.7524) " fill="#898989" font-family="'FZLTTHK--GBK1-0'" font-size="21" id="svg_20">09.06</text>
  </g>
  <text transform="matrix(1,0,0,1,682.9224,210.8394) " fill="#898989" font-family="'FZLTTHK--GBK1-0'" font-size="21" id="svg_21">10.18-10.20</text>
  <g id="svg_22">
   <text transform="matrix(1,0,0,1,823.02,73.752) " fill="#898989" font-family="'FZLTTHK--GBK1-0'" font-size="21" id="svg_23">10.21</text>
  </g>
  <line fill="none" stroke="#898989" stroke-width="2" stroke-miterlimit="10" x1="111.901" y1="141.791" x2="929.824" y2="141.791" id="svg_24"/>
  <text transform="matrix(1,0,0,1,47.3115,144.6621) " fill="#FFFFFF" font-family="'FZLTTHK--GBK1-0'" font-size="14.1533" id="svg_25">2018年</text>
  <circle fill="#036EB8" stroke="#FFFFFF" stroke-width="5" stroke-miterlimit="10" cx="219.421" cy="141.791" r="12.923" id="svg_26"/>
  <circle fill="#898989" stroke="#FFFFFF" stroke-width="5" stroke-miterlimit="10" cx="333.793" cy="141.791" r="12.923" id="svg_27"/>
  <circle fill="#898989" stroke="#FFFFFF" stroke-width="5" stroke-miterlimit="10" cx="462.64" cy="141.791" r="12.923" id="svg_28"/>
  <circle fill="#898989" stroke="#FFFFFF" stroke-width="6" stroke-miterlimit="10" cx="594.105" cy="141.791" r="12.923" id="svg_29"/>
  <circle fill="#898989" stroke="#FFFFFF" stroke-width="5" stroke-miterlimit="10" cx="733.869" cy="139.875" r="23.34" id="svg_30"/>
  <circle fill="#898989" stroke="#FFFFFF" stroke-width="5" stroke-miterlimit="10" cx="843.874" cy="141.209" r="12.923" id="svg_31"/>
  <line fill="none" stroke="#898989" stroke-width="2" stroke-miterlimit="10" x1="929.824" y1="128.869" x2="929.824" y2="154.713" id="svg_32"/>
  <g id="svg_33">
   <circle fill="#B5B5B6" stroke="#FFFFFF" stroke-width="2" stroke-miterlimit="10" cx="942.175" cy="141.791" r="3.785" id="svg_34"/>
   <circle fill="#B5B5B6" stroke="#FFFFFF" stroke-width="2" stroke-miterlimit="10" cx="952.864" cy="141.791" r="3.785" id="svg_35"/>
   <circle fill="#B5B5B6" stroke="#FFFFFF" stroke-width="2" stroke-miterlimit="10" cx="963.075" cy="141.791" r="3.785" id="svg_36"/>
  </g>
  <path fill="none" stroke="#036EB8" stroke-width="2" stroke-miterlimit="10" d="m111.902,160.754c0,2.233 -1.811,4.044 -4.044,4.044l-66.722,0c-2.233,0 -4.044,-1.811 -4.044,-4.044l0,-39.09c0,-2.233 1.811,-4.044 4.044,-4.044l66.723,0c2.233,0 4.044,1.811 4.044,4.044l0,39.09l-0.001,0z" id="svg_37"/>
 </g>
</svg>